%TF.GenerationSoftware,KiCad,Pcbnew,9.0.2*%
%TF.CreationDate,2025-11-02T21:22:01+09:00*%
%TF.ProjectId,kicad2026_2,6b696361-6432-4303-9236-5f322e6b6963,rev?*%
%TF.SameCoordinates,Original*%
%TF.FileFunction,Soldermask,Top*%
%TF.FilePolarity,Negative*%
%FSLAX46Y46*%
G04 Gerber Fmt 4.6, Leading zero omitted, Abs format (unit mm)*
G04 Created by KiCad (PCBNEW 9.0.2) date 2025-11-02 21:22:01*
%MOMM*%
%LPD*%
G01*
G04 APERTURE LIST*
G04 Aperture macros list*
%AMRoundRect*
0 Rectangle with rounded corners*
0 $1 Rounding radius*
0 $2 $3 $4 $5 $6 $7 $8 $9 X,Y pos of 4 corners*
0 Add a 4 corners polygon primitive as box body*
4,1,4,$2,$3,$4,$5,$6,$7,$8,$9,$2,$3,0*
0 Add four circle primitives for the rounded corners*
1,1,$1+$1,$2,$3*
1,1,$1+$1,$4,$5*
1,1,$1+$1,$6,$7*
1,1,$1+$1,$8,$9*
0 Add four rect primitives between the rounded corners*
20,1,$1+$1,$2,$3,$4,$5,0*
20,1,$1+$1,$4,$5,$6,$7,0*
20,1,$1+$1,$6,$7,$8,$9,0*
20,1,$1+$1,$8,$9,$2,$3,0*%
%AMFreePoly0*
4,1,37,0.800000,0.796148,0.878414,0.796148,1.032228,0.765552,1.177117,0.705537,1.307515,0.618408,1.418408,0.507515,1.505537,0.377117,1.565552,0.232228,1.596148,0.078414,1.596148,-0.078414,1.565552,-0.232228,1.505537,-0.377117,1.418408,-0.507515,1.307515,-0.618408,1.177117,-0.705537,1.032228,-0.765552,0.878414,-0.796148,0.800000,-0.796148,0.800000,-0.800000,-1.400000,-0.800000,
-1.403843,-0.796157,-1.439018,-0.796157,-1.511114,-0.766294,-1.566294,-0.711114,-1.596157,-0.639018,-1.596157,-0.603843,-1.600000,-0.600000,-1.600000,0.600000,-1.596157,0.603843,-1.596157,0.639018,-1.566294,0.711114,-1.511114,0.766294,-1.439018,0.796157,-1.403843,0.796157,-1.400000,0.800000,0.800000,0.800000,0.800000,0.796148,0.800000,0.796148,$1*%
%AMFreePoly1*
4,1,37,1.403843,0.796157,1.439018,0.796157,1.511114,0.766294,1.566294,0.711114,1.596157,0.639018,1.596157,0.603843,1.600000,0.600000,1.600000,-0.600000,1.596157,-0.603843,1.596157,-0.639018,1.566294,-0.711114,1.511114,-0.766294,1.439018,-0.796157,1.403843,-0.796157,1.400000,-0.800000,-0.800000,-0.800000,-0.800000,-0.796148,-0.878414,-0.796148,-1.032228,-0.765552,-1.177117,-0.705537,
-1.307515,-0.618408,-1.418408,-0.507515,-1.505537,-0.377117,-1.565552,-0.232228,-1.596148,-0.078414,-1.596148,0.078414,-1.565552,0.232228,-1.505537,0.377117,-1.418408,0.507515,-1.307515,0.618408,-1.177117,0.705537,-1.032228,0.765552,-0.878414,0.796148,-0.800000,0.796148,-0.800000,0.800000,1.400000,0.800000,1.403843,0.796157,1.403843,0.796157,$1*%
%AMFreePoly2*
4,1,37,0.603843,0.796157,0.639018,0.796157,0.711114,0.766294,0.766294,0.711114,0.796157,0.639018,0.796157,0.603843,0.800000,0.600000,0.800000,-0.600000,0.796157,-0.603843,0.796157,-0.639018,0.766294,-0.711114,0.711114,-0.766294,0.639018,-0.796157,0.603843,-0.796157,0.600000,-0.800000,0.000000,-0.800000,0.000000,-0.796148,-0.078414,-0.796148,-0.232228,-0.765552,-0.377117,-0.705537,
-0.507515,-0.618408,-0.618408,-0.507515,-0.705537,-0.377117,-0.765552,-0.232228,-0.796148,-0.078414,-0.796148,0.078414,-0.765552,0.232228,-0.705537,0.377117,-0.618408,0.507515,-0.507515,0.618408,-0.377117,0.705537,-0.232228,0.765552,-0.078414,0.796148,0.000000,0.796148,0.000000,0.800000,0.600000,0.800000,0.603843,0.796157,0.603843,0.796157,$1*%
%AMFreePoly3*
4,1,37,0.000000,0.796148,0.078414,0.796148,0.232228,0.765552,0.377117,0.705537,0.507515,0.618408,0.618408,0.507515,0.705537,0.377117,0.765552,0.232228,0.796148,0.078414,0.796148,-0.078414,0.765552,-0.232228,0.705537,-0.377117,0.618408,-0.507515,0.507515,-0.618408,0.377117,-0.705537,0.232228,-0.765552,0.078414,-0.796148,0.000000,-0.796148,0.000000,-0.800000,-0.600000,-0.800000,
-0.603843,-0.796157,-0.639018,-0.796157,-0.711114,-0.766294,-0.766294,-0.711114,-0.796157,-0.639018,-0.796157,-0.603843,-0.800000,-0.600000,-0.800000,0.600000,-0.796157,0.603843,-0.796157,0.639018,-0.766294,0.711114,-0.711114,0.766294,-0.639018,0.796157,-0.603843,0.796157,-0.600000,0.800000,0.000000,0.800000,0.000000,0.796148,0.000000,0.796148,$1*%
G04 Aperture macros list end*
%ADD10R,1.700000X1.700000*%
%ADD11C,1.700000*%
%ADD12R,1.650000X1.650000*%
%ADD13C,1.650000*%
%ADD14RoundRect,0.249999X0.850001X0.850001X-0.850001X0.850001X-0.850001X-0.850001X0.850001X-0.850001X0*%
%ADD15C,2.200000*%
%ADD16C,1.850000*%
%ADD17FreePoly0,0.000000*%
%ADD18RoundRect,0.200000X-0.600000X-0.600000X0.600000X-0.600000X0.600000X0.600000X-0.600000X0.600000X0*%
%ADD19RoundRect,0.800000X-0.800000X-0.000010X0.800000X-0.000010X0.800000X0.000010X-0.800000X0.000010X0*%
%ADD20C,1.600000*%
%ADD21FreePoly1,0.000000*%
%ADD22FreePoly2,0.000000*%
%ADD23FreePoly3,0.000000*%
%ADD24RoundRect,0.225000X-0.225000X-0.250000X0.225000X-0.250000X0.225000X0.250000X-0.225000X0.250000X0*%
%ADD25RoundRect,0.102000X0.571500X0.571500X-0.571500X0.571500X-0.571500X-0.571500X0.571500X-0.571500X0*%
%ADD26RoundRect,0.102000X2.095500X0.952500X-2.095500X0.952500X-2.095500X-0.952500X2.095500X-0.952500X0*%
%ADD27RoundRect,0.102000X0.952500X2.095500X-0.952500X2.095500X-0.952500X-2.095500X0.952500X-2.095500X0*%
%ADD28RoundRect,0.225000X-0.250000X0.225000X-0.250000X-0.225000X0.250000X-0.225000X0.250000X0.225000X0*%
%ADD29R,0.939800X2.616200*%
%ADD30R,2.616200X0.939800*%
%ADD31RoundRect,0.249999X-0.850001X-0.850001X0.850001X-0.850001X0.850001X0.850001X-0.850001X0.850001X0*%
%ADD32R,1.275000X1.275000*%
%ADD33C,1.275000*%
%ADD34C,2.050000*%
%ADD35C,2.250000*%
G04 APERTURE END LIST*
D10*
%TO.C,J5*%
X138938000Y-159258000D03*
D11*
X141478000Y-159258000D03*
X144018000Y-159258000D03*
X146558000Y-159258000D03*
X149098000Y-159258000D03*
X151638000Y-159258000D03*
X154178000Y-159258000D03*
%TD*%
D12*
%TO.C,IC1*%
X137668000Y-140462000D03*
D13*
X140208000Y-140462000D03*
X142748000Y-140462000D03*
X145288000Y-140462000D03*
X147828000Y-140462000D03*
X150368000Y-140462000D03*
X150368000Y-132842000D03*
X147828000Y-132842000D03*
X145288000Y-132842000D03*
X142748000Y-132842000D03*
X140208000Y-132842000D03*
X137668000Y-132842000D03*
%TD*%
D10*
%TO.C,J1*%
X138938000Y-155448000D03*
D11*
X141478000Y-155448000D03*
X144018000Y-155448000D03*
X146558000Y-155448000D03*
X149098000Y-155448000D03*
X151638000Y-155448000D03*
X154178000Y-155448000D03*
%TD*%
D10*
%TO.C,J3*%
X130810000Y-116586000D03*
D11*
X130810000Y-119126000D03*
X130810000Y-121666000D03*
X130810000Y-124206000D03*
X130810000Y-126746000D03*
X130810000Y-129286000D03*
X130810000Y-131826000D03*
%TD*%
D14*
%TO.C,D1*%
X131572000Y-154432000D03*
D15*
X123952000Y-154432000D03*
%TD*%
D10*
%TO.C,J16*%
X130810000Y-78486000D03*
D11*
X130810000Y-81026000D03*
X130810000Y-83566000D03*
X130810000Y-86106000D03*
X130810000Y-88646000D03*
X130810000Y-91186000D03*
X130810000Y-93726000D03*
%TD*%
D15*
%TO.C,A1*%
X141801000Y-79632000D03*
D16*
X142101000Y-82662000D03*
X146951000Y-82662000D03*
D15*
X147251000Y-79632000D03*
D17*
X134836000Y-79502000D03*
D18*
X135636000Y-79502000D03*
D19*
X134836000Y-82042000D03*
D20*
X135636000Y-82042000D03*
D21*
X134836000Y-84582000D03*
D22*
X135636000Y-84582000D03*
D19*
X134836000Y-87122000D03*
D20*
X135636000Y-87122000D03*
D19*
X134836000Y-89662000D03*
D20*
X135636000Y-89662000D03*
D19*
X134836000Y-92202000D03*
D20*
X135636000Y-92202000D03*
D19*
X134836000Y-94742000D03*
D20*
X135636000Y-94742000D03*
D21*
X134836000Y-97282000D03*
D22*
X135636000Y-97282000D03*
D19*
X134836000Y-99822000D03*
D20*
X135636000Y-99822000D03*
D19*
X134836000Y-102362000D03*
D20*
X135636000Y-102362000D03*
D19*
X134836000Y-104902000D03*
D20*
X135636000Y-104902000D03*
D19*
X134836000Y-107442000D03*
D20*
X135636000Y-107442000D03*
D21*
X134836000Y-109982000D03*
D22*
X135636000Y-109982000D03*
D19*
X134836000Y-112522000D03*
D20*
X135636000Y-112522000D03*
D19*
X134836000Y-115062000D03*
D20*
X135636000Y-115062000D03*
D19*
X134836000Y-117602000D03*
D20*
X135636000Y-117602000D03*
D19*
X134836000Y-120142000D03*
D20*
X135636000Y-120142000D03*
D21*
X134836000Y-122682000D03*
D22*
X135636000Y-122682000D03*
D19*
X134836000Y-125222000D03*
D20*
X135636000Y-125222000D03*
D19*
X134836000Y-127762000D03*
D20*
X135636000Y-127762000D03*
X153416000Y-127762000D03*
D19*
X154216000Y-127762000D03*
D20*
X153416000Y-125222000D03*
D19*
X154216000Y-125222000D03*
D23*
X153416000Y-122682000D03*
D17*
X154216000Y-122682000D03*
D20*
X153416000Y-120142000D03*
D19*
X154216000Y-120142000D03*
D20*
X153416000Y-117602000D03*
D19*
X154216000Y-117602000D03*
D20*
X153416000Y-115062000D03*
D19*
X154216000Y-115062000D03*
D20*
X153416000Y-112522000D03*
D19*
X154216000Y-112522000D03*
D23*
X153416000Y-109982000D03*
D17*
X154216000Y-109982000D03*
D20*
X153416000Y-107442000D03*
D19*
X154216000Y-107442000D03*
D20*
X153416000Y-104902000D03*
D19*
X154216000Y-104902000D03*
D20*
X153416000Y-102362000D03*
D19*
X154216000Y-102362000D03*
D20*
X153416000Y-99822000D03*
D19*
X154216000Y-99822000D03*
D23*
X153416000Y-97282000D03*
D17*
X154216000Y-97282000D03*
D20*
X153416000Y-94742000D03*
D19*
X154216000Y-94742000D03*
D20*
X153416000Y-92202000D03*
D19*
X154216000Y-92202000D03*
D20*
X153416000Y-89662000D03*
D19*
X154216000Y-89662000D03*
D20*
X153416000Y-87122000D03*
D19*
X154216000Y-87122000D03*
D23*
X153416000Y-84582000D03*
D17*
X154216000Y-84582000D03*
D20*
X153416000Y-82042000D03*
D19*
X154216000Y-82042000D03*
D20*
X153416000Y-79502000D03*
D19*
X154216000Y-79502000D03*
%TD*%
D10*
%TO.C,J10*%
X154432000Y-147320000D03*
D11*
X154432000Y-144780000D03*
X154432000Y-142240000D03*
X154432000Y-139700000D03*
X154432000Y-137160000D03*
X154432000Y-134620000D03*
X154432000Y-132080000D03*
%TD*%
D15*
%TO.C,A3*%
X114484000Y-82314000D03*
D16*
X114784000Y-85344000D03*
X119634000Y-85344000D03*
D15*
X119934000Y-82314000D03*
D17*
X107519000Y-82184000D03*
D18*
X108319000Y-82184000D03*
D19*
X107519000Y-84724000D03*
D20*
X108319000Y-84724000D03*
D21*
X107519000Y-87264000D03*
D22*
X108319000Y-87264000D03*
D19*
X107519000Y-89804000D03*
D20*
X108319000Y-89804000D03*
D19*
X107519000Y-92344000D03*
D20*
X108319000Y-92344000D03*
D19*
X107519000Y-94884000D03*
D20*
X108319000Y-94884000D03*
D19*
X107519000Y-97424000D03*
D20*
X108319000Y-97424000D03*
D21*
X107519000Y-99964000D03*
D22*
X108319000Y-99964000D03*
D19*
X107519000Y-102504000D03*
D20*
X108319000Y-102504000D03*
D19*
X107519000Y-105044000D03*
D20*
X108319000Y-105044000D03*
D19*
X107519000Y-107584000D03*
D20*
X108319000Y-107584000D03*
D19*
X107519000Y-110124000D03*
D20*
X108319000Y-110124000D03*
D21*
X107519000Y-112664000D03*
D22*
X108319000Y-112664000D03*
D19*
X107519000Y-115204000D03*
D20*
X108319000Y-115204000D03*
D19*
X107519000Y-117744000D03*
D20*
X108319000Y-117744000D03*
D19*
X107519000Y-120284000D03*
D20*
X108319000Y-120284000D03*
D19*
X107519000Y-122824000D03*
D20*
X108319000Y-122824000D03*
D21*
X107519000Y-125364000D03*
D22*
X108319000Y-125364000D03*
D19*
X107519000Y-127904000D03*
D20*
X108319000Y-127904000D03*
D19*
X107519000Y-130444000D03*
D20*
X108319000Y-130444000D03*
X126099000Y-130444000D03*
D19*
X126899000Y-130444000D03*
D20*
X126099000Y-127904000D03*
D19*
X126899000Y-127904000D03*
D23*
X126099000Y-125364000D03*
D17*
X126899000Y-125364000D03*
D20*
X126099000Y-122824000D03*
D19*
X126899000Y-122824000D03*
D20*
X126099000Y-120284000D03*
D19*
X126899000Y-120284000D03*
D20*
X126099000Y-117744000D03*
D19*
X126899000Y-117744000D03*
D20*
X126099000Y-115204000D03*
D19*
X126899000Y-115204000D03*
D23*
X126099000Y-112664000D03*
D17*
X126899000Y-112664000D03*
D20*
X126099000Y-110124000D03*
D19*
X126899000Y-110124000D03*
D20*
X126099000Y-107584000D03*
D19*
X126899000Y-107584000D03*
D20*
X126099000Y-105044000D03*
D19*
X126899000Y-105044000D03*
D20*
X126099000Y-102504000D03*
D19*
X126899000Y-102504000D03*
D23*
X126099000Y-99964000D03*
D17*
X126899000Y-99964000D03*
D20*
X126099000Y-97424000D03*
D19*
X126899000Y-97424000D03*
D20*
X126099000Y-94884000D03*
D19*
X126899000Y-94884000D03*
D20*
X126099000Y-92344000D03*
D19*
X126899000Y-92344000D03*
D20*
X126099000Y-89804000D03*
D19*
X126899000Y-89804000D03*
D23*
X126099000Y-87264000D03*
D17*
X126899000Y-87264000D03*
D20*
X126099000Y-84724000D03*
D19*
X126899000Y-84724000D03*
D20*
X126099000Y-82184000D03*
D19*
X126899000Y-82184000D03*
%TD*%
D24*
%TO.C,C4*%
X119621000Y-153924000D03*
X121171000Y-153924000D03*
%TD*%
D25*
%TO.C,MD3*%
X133069000Y-140970000D03*
D26*
X131926000Y-145542000D03*
X127354000Y-145542000D03*
D27*
X123925000Y-144399000D03*
D25*
X123925000Y-140970000D03*
X123925000Y-136398000D03*
X128497000Y-136398000D03*
X130783000Y-136398000D03*
X133069000Y-136398000D03*
X133069000Y-138684000D03*
X123925000Y-138684000D03*
X126211000Y-136398000D03*
%TD*%
D28*
%TO.C,C1*%
X134112000Y-149847000D03*
X134112000Y-151397000D03*
%TD*%
D29*
%TO.C,U1*%
X117237200Y-135605200D03*
X115987200Y-135605200D03*
X114737200Y-135605200D03*
X113487200Y-135605200D03*
X112237200Y-135605200D03*
X110987200Y-135605200D03*
X109737200Y-135605200D03*
D30*
X107340400Y-138002000D03*
X107340400Y-139252000D03*
X107340400Y-140502000D03*
X107340400Y-141752000D03*
X107340400Y-143002000D03*
X107340400Y-144252000D03*
X107340400Y-145502000D03*
D29*
X109737200Y-147898800D03*
X110987200Y-147898800D03*
X112237200Y-147898800D03*
X113487200Y-147898800D03*
X114737200Y-147898800D03*
X115987200Y-147898800D03*
X117237200Y-147898800D03*
D30*
X119634000Y-145502000D03*
X119634000Y-144252000D03*
X119634000Y-143002000D03*
X119634000Y-141752000D03*
X119634000Y-140502000D03*
X119634000Y-139252000D03*
X119634000Y-138002000D03*
%TD*%
D10*
%TO.C,J2*%
X130785000Y-112776000D03*
D11*
X130785000Y-110236000D03*
X130785000Y-107696000D03*
X130785000Y-105156000D03*
X130785000Y-102616000D03*
X130785000Y-100076000D03*
X130785000Y-97536000D03*
%TD*%
D20*
%TO.C,R7*%
X121766019Y-98298000D03*
X111606019Y-98298000D03*
%TD*%
D10*
%TO.C,J11*%
X131298000Y-150245000D03*
D11*
X128758000Y-150245000D03*
X126218000Y-150245000D03*
X123678000Y-150245000D03*
%TD*%
D10*
%TO.C,J7*%
X131308000Y-158775000D03*
D11*
X128768000Y-158775000D03*
X126228000Y-158775000D03*
X123688000Y-158775000D03*
%TD*%
D20*
%TO.C,R6*%
X122936000Y-93472000D03*
X122936000Y-83312000D03*
%TD*%
D31*
%TO.C,D2*%
X139954000Y-136652000D03*
D15*
X147574000Y-136652000D03*
%TD*%
D20*
%TO.C,R8*%
X111760000Y-104140000D03*
X121920000Y-104140000D03*
%TD*%
D32*
%TO.C,C5*%
X141772000Y-148082000D03*
D33*
X146772000Y-148082000D03*
%TD*%
D34*
%TO.C,J4*%
X109728000Y-157226000D03*
D35*
X107188000Y-154686000D03*
X107188000Y-159766000D03*
X112268000Y-154686000D03*
X112268000Y-159766000D03*
%TD*%
M02*
