%TF.GenerationSoftware,KiCad,Pcbnew,9.0.2*%
%TF.CreationDate,2025-11-02T21:22:01+09:00*%
%TF.ProjectId,kicad2026_2,6b696361-6432-4303-9236-5f322e6b6963,rev?*%
%TF.SameCoordinates,Original*%
%TF.FileFunction,Paste,Top*%
%TF.FilePolarity,Positive*%
%FSLAX46Y46*%
G04 Gerber Fmt 4.6, Leading zero omitted, Abs format (unit mm)*
G04 Created by KiCad (PCBNEW 9.0.2) date 2025-11-02 21:22:01*
%MOMM*%
%LPD*%
G01*
G04 APERTURE LIST*
G04 Aperture macros list*
%AMRoundRect*
0 Rectangle with rounded corners*
0 $1 Rounding radius*
0 $2 $3 $4 $5 $6 $7 $8 $9 X,Y pos of 4 corners*
0 Add a 4 corners polygon primitive as box body*
4,1,4,$2,$3,$4,$5,$6,$7,$8,$9,$2,$3,0*
0 Add four circle primitives for the rounded corners*
1,1,$1+$1,$2,$3*
1,1,$1+$1,$4,$5*
1,1,$1+$1,$6,$7*
1,1,$1+$1,$8,$9*
0 Add four rect primitives between the rounded corners*
20,1,$1+$1,$2,$3,$4,$5,0*
20,1,$1+$1,$4,$5,$6,$7,0*
20,1,$1+$1,$6,$7,$8,$9,0*
20,1,$1+$1,$8,$9,$2,$3,0*%
G04 Aperture macros list end*
%ADD10RoundRect,0.225000X-0.225000X-0.250000X0.225000X-0.250000X0.225000X0.250000X-0.225000X0.250000X0*%
%ADD11R,1.143000X1.143000*%
%ADD12R,4.191000X1.905000*%
%ADD13R,1.905000X4.191000*%
%ADD14RoundRect,0.225000X-0.250000X0.225000X-0.250000X-0.225000X0.250000X-0.225000X0.250000X0.225000X0*%
%ADD15R,0.939800X2.616200*%
%ADD16R,2.616200X0.939800*%
G04 APERTURE END LIST*
D10*
%TO.C,C4*%
X119621000Y-153924000D03*
X121171000Y-153924000D03*
%TD*%
D11*
%TO.C,MD3*%
X133069000Y-140970000D03*
D12*
X131926000Y-145542000D03*
X127354000Y-145542000D03*
D13*
X123925000Y-144399000D03*
D11*
X123925000Y-140970000D03*
X123925000Y-136398000D03*
X128497000Y-136398000D03*
X130783000Y-136398000D03*
X133069000Y-136398000D03*
X133069000Y-138684000D03*
X123925000Y-138684000D03*
X126211000Y-136398000D03*
%TD*%
D14*
%TO.C,C1*%
X134112000Y-149847000D03*
X134112000Y-151397000D03*
%TD*%
D15*
%TO.C,U1*%
X117237200Y-135605200D03*
X115987200Y-135605200D03*
X114737200Y-135605200D03*
X113487200Y-135605200D03*
X112237200Y-135605200D03*
X110987200Y-135605200D03*
X109737200Y-135605200D03*
D16*
X107340400Y-138002000D03*
X107340400Y-139252000D03*
X107340400Y-140502000D03*
X107340400Y-141752000D03*
X107340400Y-143002000D03*
X107340400Y-144252000D03*
X107340400Y-145502000D03*
D15*
X109737200Y-147898800D03*
X110987200Y-147898800D03*
X112237200Y-147898800D03*
X113487200Y-147898800D03*
X114737200Y-147898800D03*
X115987200Y-147898800D03*
X117237200Y-147898800D03*
D16*
X119634000Y-145502000D03*
X119634000Y-144252000D03*
X119634000Y-143002000D03*
X119634000Y-141752000D03*
X119634000Y-140502000D03*
X119634000Y-139252000D03*
X119634000Y-138002000D03*
%TD*%
M02*
