M48
; DRILL file {KiCad 9.0.2} date 2025-11-02T21:53:56+0900
; FORMAT={-:-/ absolute / inch / decimal}
; #@! TF.CreationDate,2025-11-02T21:53:56+09:00
; #@! TF.GenerationSoftware,Kicad,Pcbnew,9.0.2
; #@! TF.FileFunction,Plated,1,2,PTH
FMAT,2
INCH
; #@! TA.AperFunction,Plated,PTH,ViaDrill
T1C0.0118
; #@! TA.AperFunction,Plated,PTH,ComponentDrill
T2C0.0354
; #@! TA.AperFunction,Plated,PTH,ComponentDrill
T3C0.0394
; #@! TA.AperFunction,Plated,PTH,ComponentDrill
T4C0.0433
%
G90
G05
T1
X7.4008Y-4.1413
X7.4422Y-3.552
X7.4709Y-3.2669
X7.4736Y-2.7331
X7.5251Y-3.2517
X7.5487Y-3.3012
X7.5776Y-3.2886
X7.5831Y-3.4622
X7.6181Y-3.437
X7.68Y-5.17
X7.7886Y-2.5366
X7.7965Y-3.6768
X7.8295Y-2.6984
X8.0398Y-4.0437
X8.2106Y-5.1134
X8.4698Y-3.924
T2
X6.8418Y-5.1872
X6.9402Y-5.1872
X7.2364Y-5.1872
X7.3348Y-5.1872
T3
X6.7868Y-4.6783
X6.7868Y-4.7783
X7.2917Y-2.8827
X7.2917Y-2.9827
X7.2917Y-3.0827
X7.2917Y-3.1827
X7.2917Y-3.2827
X7.2917Y-3.3827
X7.2917Y-3.4827
X7.49Y-4.22
X7.49Y-4.32
X7.49Y-4.42
X7.49Y-4.52
X7.49Y-4.62
X7.49Y-4.72
X7.49Y-4.82
X7.49Y-4.92
X7.57Y-5.12
X7.57Y-5.22
X7.57Y-5.32
X7.57Y-5.42
X7.69Y-2.26
X7.69Y-2.36
X7.69Y-2.46
X7.69Y-2.56
X7.69Y-2.66
X7.69Y-2.76
X7.69Y-2.86
X7.69Y-3.01
X7.69Y-3.11
X7.69Y-3.21
X7.69Y-3.31
X7.69Y-3.41
X7.69Y-3.51
X7.69Y-3.61
X7.69Y-3.76
X7.69Y-3.86
X7.69Y-3.96
X7.69Y-4.06
X7.69Y-4.16
X7.69Y-4.26
X7.69Y-4.36
X8.01Y-5.2861
X8.01Y-5.44
X8.11Y-5.2861
X8.11Y-5.44
X8.21Y-5.2861
X8.21Y-5.44
X8.31Y-5.2861
X8.31Y-5.44
X8.36Y-2.53
X8.41Y-5.2861
X8.41Y-5.44
X8.46Y-2.53
X8.46Y-4.22
X8.46Y-4.32
X8.46Y-4.42
X8.46Y-4.52
X8.46Y-4.62
X8.46Y-4.72
X8.46Y-4.82
X8.46Y-4.92
X8.51Y-5.2861
X8.51Y-5.44
X8.61Y-5.2861
X8.61Y-5.44
X8.62Y-4.94
X8.62Y-5.04
X8.62Y-5.14
T4
X6.9647Y-2.34
X7.0631Y-2.34
X7.1616Y-2.34
X7.26Y-2.34
X7.3584Y-2.34
X8.0316Y-2.34
X8.13Y-2.34
X8.2284Y-2.34
X8.3269Y-2.34
X8.4253Y-2.34
M30
