%TF.GenerationSoftware,KiCad,Pcbnew,9.0.2*%
%TF.CreationDate,2025-11-02T21:53:54+09:00*%
%TF.ProjectId,SPC_Noname2,5350435f-4e6f-46e6-916d-65322e6b6963,rev?*%
%TF.SameCoordinates,Original*%
%TF.FileFunction,Soldermask,Top*%
%TF.FilePolarity,Negative*%
%FSLAX46Y46*%
G04 Gerber Fmt 4.6, Leading zero omitted, Abs format (unit mm)*
G04 Created by KiCad (PCBNEW 9.0.2) date 2025-11-02 21:53:54*
%MOMM*%
%LPD*%
G01*
G04 APERTURE LIST*
%ADD10R,1.700000X1.700000*%
%ADD11C,1.700000*%
%ADD12R,1.650000X1.650000*%
%ADD13C,1.650000*%
%ADD14R,1.400000X1.400000*%
%ADD15C,1.400000*%
G04 APERTURE END LIST*
D10*
%TO.C,J5*%
X203454000Y-138176000D03*
D11*
X205994000Y-138176000D03*
X208534000Y-138176000D03*
X211074000Y-138176000D03*
X213614000Y-138176000D03*
X216154000Y-138176000D03*
X218694000Y-138176000D03*
%TD*%
D12*
%TO.C,J1*%
X214002000Y-59436000D03*
D13*
X211502000Y-59436000D03*
X209002000Y-59436000D03*
X206502000Y-59436000D03*
X204002000Y-59436000D03*
%TD*%
D10*
%TO.C,J14*%
X172385000Y-118830000D03*
D11*
X172385000Y-121370000D03*
%TD*%
D10*
%TO.C,J10*%
X195326000Y-91694000D03*
D11*
X195326000Y-89154000D03*
X195326000Y-86614000D03*
X195326000Y-84074000D03*
X195326000Y-81534000D03*
X195326000Y-78994000D03*
X195326000Y-76454000D03*
%TD*%
D10*
%TO.C,J9*%
X214884000Y-107188000D03*
D11*
X214884000Y-109728000D03*
X214884000Y-112268000D03*
X214884000Y-114808000D03*
X214884000Y-117348000D03*
X214884000Y-119888000D03*
X214884000Y-122428000D03*
X214884000Y-124968000D03*
%TD*%
D10*
%TO.C,D1*%
X212344000Y-64262000D03*
D11*
X214884000Y-64262000D03*
%TD*%
D10*
%TO.C,J7*%
X203454000Y-134266000D03*
D11*
X205994000Y-134266000D03*
X208534000Y-134266000D03*
X211074000Y-134266000D03*
X213614000Y-134266000D03*
X216154000Y-134266000D03*
X218694000Y-134266000D03*
%TD*%
D12*
%TO.C,J12*%
X186904000Y-59436000D03*
D13*
X184404000Y-59436000D03*
X181904000Y-59436000D03*
X179404000Y-59436000D03*
X176904000Y-59436000D03*
%TD*%
D14*
%TO.C,J3*%
X186305000Y-131754000D03*
D15*
X183805000Y-131754000D03*
%TD*%
D10*
%TO.C,J8*%
X190246000Y-124968000D03*
D11*
X190246000Y-122428000D03*
X190246000Y-119888000D03*
X190246000Y-117348000D03*
X190246000Y-114808000D03*
X190246000Y-112268000D03*
X190246000Y-109728000D03*
X190246000Y-107188000D03*
%TD*%
D10*
%TO.C,J13*%
X192278000Y-137668000D03*
D11*
X192278000Y-135128000D03*
X192278000Y-132588000D03*
X192278000Y-130048000D03*
%TD*%
D10*
%TO.C,J11*%
X195326000Y-95504000D03*
D11*
X195326000Y-98044000D03*
X195326000Y-100584000D03*
X195326000Y-103124000D03*
X195326000Y-105664000D03*
X195326000Y-108204000D03*
X195326000Y-110744000D03*
%TD*%
D10*
%TO.C,J4*%
X185210000Y-88460000D03*
D11*
X185210000Y-85920000D03*
X185210000Y-83380000D03*
X185210000Y-80840000D03*
X185210000Y-78300000D03*
X185210000Y-75760000D03*
X185210000Y-73220000D03*
%TD*%
D10*
%TO.C,J6*%
X218948000Y-130556000D03*
D11*
X218948000Y-128016000D03*
X218948000Y-125476000D03*
%TD*%
D10*
%TO.C,J16*%
X195326000Y-57404000D03*
D11*
X195326000Y-59944000D03*
X195326000Y-62484000D03*
X195326000Y-65024000D03*
X195326000Y-67564000D03*
X195326000Y-70104000D03*
X195326000Y-72644000D03*
%TD*%
D14*
%TO.C,J2*%
X176281000Y-131754000D03*
D15*
X173781000Y-131754000D03*
%TD*%
M02*
