M48
; DRILL file {KiCad 9.0.2} date 2025-11-02T21:54:52+0900
; FORMAT={-:-/ absolute / inch / decimal}
; #@! TF.CreationDate,2025-11-02T21:54:52+09:00
; #@! TF.GenerationSoftware,Kicad,Pcbnew,9.0.2
; #@! TF.FileFunction,Plated,1,2,PTH
FMAT,2
INCH
; #@! TA.AperFunction,Plated,PTH,ViaDrill
T1C0.0118
; #@! TA.AperFunction,Plated,PTH,ComponentDrill
T2C0.0315
; #@! TA.AperFunction,Plated,PTH,ComponentDrill
T3C0.0354
; #@! TA.AperFunction,Plated,PTH,ComponentDrill
T4C0.0394
; #@! TA.AperFunction,Plated,PTH,ComponentDrill
T5C0.0433
; #@! TA.AperFunction,Plated,PTH,ComponentDrill
T6C0.0728
%
G90
G05
T1
X5.28Y-2.91
X5.31Y-2.13
X5.71Y-2.99
X5.7123Y-2.6277
X5.76Y-2.488
T2
X4.69Y-2.95
X4.7Y-2.62
X4.7Y-3.28
X5.09Y-2.95
X5.1Y-2.62
X5.1Y-3.28
X5.2Y-3.13
X5.6Y-3.13
T3
X5.8472Y-3.4198
X5.8472Y-3.5182
T4
X4.75Y-3.57
X4.85Y-3.57
X4.9696Y-2.43
X5.0696Y-2.43
X5.1696Y-2.43
X5.2696Y-2.43
X5.569Y-3.4792
X5.569Y-3.5792
X5.7508Y-2.419
X5.8508Y-2.419
X5.97Y-2.16
X5.97Y-2.26
X6.0Y-2.42
X6.1Y-2.42
X6.11Y-2.16
X6.11Y-2.26
T5
X4.7263Y-2.2
X4.8247Y-2.2
X4.9231Y-2.2
X5.0216Y-2.2
X5.12Y-2.2
X5.25Y-2.76
X5.3431Y-2.1993
X5.4416Y-2.1993
X5.54Y-2.1993
X5.55Y-2.76
X5.6384Y-2.1993
X5.7369Y-2.1993
T6
X5.92Y-2.705
X5.92Y-2.89
X5.92Y-3.075
M30
