%TF.GenerationSoftware,KiCad,Pcbnew,9.0.2*%
%TF.CreationDate,2025-11-02T21:54:50+09:00*%
%TF.ProjectId,kicad2026_3_,6b696361-6432-4303-9236-5f338e2e6b69,rev?*%
%TF.SameCoordinates,Original*%
%TF.FileFunction,Copper,L1,Top*%
%TF.FilePolarity,Positive*%
%FSLAX46Y46*%
G04 Gerber Fmt 4.6, Leading zero omitted, Abs format (unit mm)*
G04 Created by KiCad (PCBNEW 9.0.2) date 2025-11-02 21:54:50*
%MOMM*%
%LPD*%
G01*
G04 APERTURE LIST*
G04 Aperture macros list*
%AMRoundRect*
0 Rectangle with rounded corners*
0 $1 Rounding radius*
0 $2 $3 $4 $5 $6 $7 $8 $9 X,Y pos of 4 corners*
0 Add a 4 corners polygon primitive as box body*
4,1,4,$2,$3,$4,$5,$6,$7,$8,$9,$2,$3,0*
0 Add four circle primitives for the rounded corners*
1,1,$1+$1,$2,$3*
1,1,$1+$1,$4,$5*
1,1,$1+$1,$6,$7*
1,1,$1+$1,$8,$9*
0 Add four rect primitives between the rounded corners*
20,1,$1+$1,$2,$3,$4,$5,0*
20,1,$1+$1,$4,$5,$6,$7,0*
20,1,$1+$1,$6,$7,$8,$9,0*
20,1,$1+$1,$8,$9,$2,$3,0*%
G04 Aperture macros list end*
%TA.AperFunction,ComponentPad*%
%ADD10R,1.700000X1.700000*%
%TD*%
%TA.AperFunction,ComponentPad*%
%ADD11C,1.700000*%
%TD*%
%TA.AperFunction,ComponentPad*%
%ADD12R,1.650000X1.650000*%
%TD*%
%TA.AperFunction,ComponentPad*%
%ADD13C,1.650000*%
%TD*%
%TA.AperFunction,ComponentPad*%
%ADD14C,1.600000*%
%TD*%
%TA.AperFunction,ComponentPad*%
%ADD15R,1.400000X1.400000*%
%TD*%
%TA.AperFunction,ComponentPad*%
%ADD16C,1.400000*%
%TD*%
%TA.AperFunction,ComponentPad*%
%ADD17R,2.775000X2.775000*%
%TD*%
%TA.AperFunction,ComponentPad*%
%ADD18C,2.775000*%
%TD*%
%TA.AperFunction,ComponentPad*%
%ADD19RoundRect,0.249999X0.850001X0.850001X-0.850001X0.850001X-0.850001X-0.850001X0.850001X-0.850001X0*%
%TD*%
%TA.AperFunction,ComponentPad*%
%ADD20C,2.200000*%
%TD*%
%TA.AperFunction,ViaPad*%
%ADD21C,0.600000*%
%TD*%
%TA.AperFunction,Conductor*%
%ADD22C,1.500000*%
%TD*%
%TA.AperFunction,Conductor*%
%ADD23C,0.200000*%
%TD*%
%TA.AperFunction,Conductor*%
%ADD24C,2.000000*%
%TD*%
G04 APERTURE END LIST*
D10*
%TO.P,D3,1,K*%
%TO.N,Net-(D3-K)*%
X146070000Y-61443000D03*
D11*
%TO.P,D3,2,A*%
%TO.N,LED4*%
X148610000Y-61443000D03*
%TD*%
D12*
%TO.P,J2,1,Pin_1*%
%TO.N,7.4V*%
X120048000Y-55880000D03*
D13*
%TO.P,J2,2,Pin_2*%
%TO.N,5V*%
X122548000Y-55880000D03*
%TO.P,J2,3,Pin_3*%
%TO.N,SCL3*%
X125048000Y-55880000D03*
%TO.P,J2,4,Pin_4*%
%TO.N,SDA3*%
X127548000Y-55880000D03*
%TO.P,J2,5,Pin_5*%
%TO.N,GND*%
X130048000Y-55880000D03*
%TD*%
D10*
%TO.P,J15,1,Pin_1*%
%TO.N,SDA3*%
X133848000Y-61722000D03*
D11*
%TO.P,J15,2,Pin_2*%
%TO.N,SCL3*%
X131308000Y-61722000D03*
%TO.P,J15,3,Pin_3*%
%TO.N,5V*%
X128768000Y-61722000D03*
%TO.P,J15,4,Pin_4*%
%TO.N,GND*%
X126228000Y-61722000D03*
%TD*%
D14*
%TO.P,R4,1*%
%TO.N,Net-(D4-K)*%
X132080000Y-79502000D03*
%TO.P,R4,2*%
%TO.N,GND*%
X142240000Y-79502000D03*
%TD*%
D10*
%TO.P,J12,1,Pin_1*%
%TO.N,GND*%
X120650000Y-90678000D03*
D11*
%TO.P,J12,2,Pin_2*%
%TO.N,Net-(D7-A)*%
X123190000Y-90678000D03*
%TD*%
D10*
%TO.P,D5,1,K*%
%TO.N,Net-(D5-K)*%
X151638000Y-57404000D03*
D11*
%TO.P,D5,2,A*%
%TO.N,LED2*%
X151638000Y-54864000D03*
%TD*%
D15*
%TO.P,J1,1,Pin_1*%
%TO.N,Net-(D7-A)*%
X148518000Y-86863000D03*
D16*
%TO.P,J1,2,Pin_2*%
%TO.N,GND*%
X148518000Y-89363000D03*
%TD*%
D10*
%TO.P,D2,1,K*%
%TO.N,GND*%
X141453000Y-90912000D03*
D11*
%TO.P,D2,2,A*%
%TO.N,5V*%
X141453000Y-88372000D03*
%TD*%
D14*
%TO.P,R5,1*%
%TO.N,Net-(D3-K)*%
X119380000Y-83312000D03*
%TO.P,R5,2*%
%TO.N,GND*%
X129540000Y-83312000D03*
%TD*%
%TO.P,R1,1*%
%TO.N,GND*%
X119380000Y-66548000D03*
%TO.P,R1,2*%
%TO.N,Net-(D6-K)*%
X129540000Y-66548000D03*
%TD*%
%TO.P,R3,1*%
%TO.N,GND*%
X119126000Y-74930000D03*
%TO.P,R3,2*%
%TO.N,Net-(D5-K)*%
X129286000Y-74930000D03*
%TD*%
D12*
%TO.P,J3,1,Pin_1*%
%TO.N,LED1*%
X135716000Y-55863000D03*
D13*
%TO.P,J3,2,Pin_2*%
%TO.N,LED2*%
X138216000Y-55863000D03*
%TO.P,J3,3,Pin_3*%
%TO.N,LED3*%
X140716000Y-55863000D03*
%TO.P,J3,4,Pin_4*%
%TO.N,LED4*%
X143216000Y-55863000D03*
%TO.P,J3,5,Pin_5*%
%TO.N,GND*%
X145716000Y-55863000D03*
%TD*%
D10*
%TO.P,D4,1,K*%
%TO.N,Net-(D4-K)*%
X154940000Y-61468000D03*
D11*
%TO.P,D4,2,A*%
%TO.N,LED3*%
X152400000Y-61468000D03*
%TD*%
D17*
%TO.P,SW2,1,A*%
%TO.N,7.4V*%
X150368000Y-68706000D03*
D18*
%TO.P,SW2,2,B*%
%TO.N,+BATT*%
X150368000Y-73406000D03*
%TO.P,SW2,3,C*%
%TO.N,unconnected-(SW2-C-Pad3)*%
X150368000Y-78106000D03*
%TD*%
D10*
%TO.P,D6,1,K*%
%TO.N,Net-(D6-K)*%
X155194000Y-57404000D03*
D11*
%TO.P,D6,2,A*%
%TO.N,LED1*%
X155194000Y-54864000D03*
%TD*%
D19*
%TO.P,D7,1,K*%
%TO.N,+BATT*%
X140970000Y-70104000D03*
D20*
%TO.P,D7,2,A*%
%TO.N,Net-(D7-A)*%
X133350000Y-70104000D03*
%TD*%
D21*
%TO.N,GND*%
X134874000Y-54102000D03*
%TO.N,Net-(D3-K)*%
X146304000Y-63194000D03*
%TO.N,Net-(D4-K)*%
X145034000Y-75946000D03*
%TO.N,Net-(D5-K)*%
X145092661Y-66743339D03*
%TO.N,Net-(D7-A)*%
X134112000Y-73914000D03*
%TD*%
D22*
%TO.N,5V*%
X131299000Y-65455081D02*
X128768000Y-62924081D01*
X128768000Y-62924081D02*
X128768000Y-61722000D01*
X131299000Y-76181000D02*
X141453000Y-86335000D01*
X131299000Y-76181000D02*
X131299000Y-65455081D01*
X141453000Y-86335000D02*
X141453000Y-88372000D01*
D23*
%TO.N,Net-(D3-K)*%
X146304000Y-61677000D02*
X146070000Y-61443000D01*
X146304000Y-63194000D02*
X146304000Y-61677000D01*
%TO.N,LED3*%
X151224000Y-60292000D02*
X145145000Y-60292000D01*
X145145000Y-60292000D02*
X140716000Y-55863000D01*
X152400000Y-61468000D02*
X151224000Y-60292000D01*
%TO.N,Net-(D4-K)*%
X154940000Y-71221900D02*
X150215900Y-75946000D01*
X154940000Y-61468000D02*
X154940000Y-71221900D01*
X150215900Y-75946000D02*
X145034000Y-75946000D01*
%TO.N,LED2*%
X151638000Y-54864000D02*
X150788000Y-54014000D01*
X150788000Y-54014000D02*
X140065000Y-54014000D01*
X140065000Y-54014000D02*
X138216000Y-55863000D01*
%TO.N,Net-(D5-K)*%
X151638000Y-57404000D02*
X153551000Y-59317000D01*
X153551000Y-59317000D02*
X153551000Y-62146000D01*
X153551000Y-62146000D02*
X148953661Y-66743339D01*
X148953661Y-66743339D02*
X145092661Y-66743339D01*
%TO.N,LED1*%
X155194000Y-54864000D02*
X153943000Y-53613000D01*
X153943000Y-53613000D02*
X137966000Y-53613000D01*
X137966000Y-53613000D02*
X135716000Y-55863000D01*
D24*
%TO.N,+BATT*%
X144272000Y-73406000D02*
X140970000Y-70104000D01*
X150368000Y-73406000D02*
X144272000Y-73406000D01*
D23*
%TO.N,Net-(D7-A)*%
X148518000Y-82224000D02*
X148518000Y-83716366D01*
D24*
X148518000Y-83716366D02*
X148518000Y-86863000D01*
X136398000Y-70104000D02*
X148518000Y-82224000D01*
X133992420Y-73914000D02*
X133350000Y-73271580D01*
X133350000Y-73271580D02*
X133350000Y-70104000D01*
X133350000Y-70104000D02*
X136398000Y-70104000D01*
D23*
X134112000Y-73914000D02*
X133992420Y-73914000D01*
D24*
%TO.N,7.4V*%
X120048000Y-56245197D02*
X120048000Y-55880000D01*
X134134000Y-57906000D02*
X121708803Y-57906000D01*
X144934000Y-68706000D02*
X134134000Y-57906000D01*
X121708803Y-57906000D02*
X120048000Y-56245197D01*
X150368000Y-68706000D02*
X144934000Y-68706000D01*
%TD*%
%TA.AperFunction,Conductor*%
%TO.N,GND*%
G36*
X137164941Y-53352185D02*
G01*
X137210696Y-53404989D01*
X137220640Y-53474147D01*
X137191615Y-53537703D01*
X137185583Y-53544181D01*
X136228582Y-54501181D01*
X136167259Y-54534666D01*
X136140901Y-54537500D01*
X134843129Y-54537500D01*
X134843123Y-54537501D01*
X134783516Y-54543908D01*
X134648671Y-54594202D01*
X134648664Y-54594206D01*
X134533455Y-54680452D01*
X134533452Y-54680455D01*
X134447206Y-54795664D01*
X134447202Y-54795671D01*
X134396908Y-54930517D01*
X134390501Y-54990116D01*
X134390500Y-54990135D01*
X134390500Y-56282250D01*
X134370815Y-56349289D01*
X134318011Y-56395044D01*
X134256778Y-56405868D01*
X134252099Y-56405500D01*
X134252092Y-56405500D01*
X131441114Y-56405500D01*
X131374075Y-56385815D01*
X131328320Y-56333011D01*
X131318376Y-56263853D01*
X131323183Y-56243182D01*
X131340373Y-56190276D01*
X131340373Y-56190273D01*
X131373000Y-55984279D01*
X131373000Y-55775720D01*
X131340373Y-55569727D01*
X131275924Y-55371372D01*
X131181244Y-55185556D01*
X131181236Y-55185543D01*
X131145372Y-55136180D01*
X131145371Y-55136179D01*
X130571787Y-55709764D01*
X130560518Y-55667708D01*
X130488110Y-55542292D01*
X130385708Y-55439890D01*
X130260292Y-55367482D01*
X130218233Y-55356212D01*
X130791819Y-54782627D01*
X130742451Y-54746759D01*
X130556627Y-54652075D01*
X130358272Y-54587626D01*
X130152279Y-54555000D01*
X129943721Y-54555000D01*
X129737727Y-54587626D01*
X129539372Y-54652075D01*
X129353552Y-54746757D01*
X129304180Y-54782627D01*
X129877766Y-55356212D01*
X129835708Y-55367482D01*
X129710292Y-55439890D01*
X129607890Y-55542292D01*
X129535482Y-55667708D01*
X129524212Y-55709765D01*
X128950627Y-55136180D01*
X128914755Y-55185555D01*
X128914754Y-55185556D01*
X128908764Y-55197313D01*
X128860788Y-55248108D01*
X128792967Y-55264901D01*
X128726832Y-55242361D01*
X128687795Y-55197308D01*
X128681670Y-55185286D01*
X128559035Y-55016495D01*
X128411505Y-54868965D01*
X128242714Y-54746330D01*
X128056820Y-54651612D01*
X127858389Y-54587137D01*
X127652324Y-54554500D01*
X127652319Y-54554500D01*
X127443681Y-54554500D01*
X127443676Y-54554500D01*
X127237610Y-54587137D01*
X127039179Y-54651612D01*
X126853285Y-54746330D01*
X126684493Y-54868966D01*
X126536966Y-55016493D01*
X126414330Y-55185286D01*
X126408484Y-55196759D01*
X126360508Y-55247554D01*
X126292687Y-55264348D01*
X126226553Y-55241809D01*
X126187516Y-55196759D01*
X126186303Y-55194380D01*
X126181670Y-55185286D01*
X126059035Y-55016495D01*
X125911505Y-54868965D01*
X125742714Y-54746330D01*
X125556820Y-54651612D01*
X125358389Y-54587137D01*
X125152324Y-54554500D01*
X125152319Y-54554500D01*
X124943681Y-54554500D01*
X124943676Y-54554500D01*
X124737610Y-54587137D01*
X124539179Y-54651612D01*
X124353285Y-54746330D01*
X124184493Y-54868966D01*
X124036966Y-55016493D01*
X123914330Y-55185286D01*
X123908484Y-55196759D01*
X123860508Y-55247554D01*
X123792687Y-55264348D01*
X123726553Y-55241809D01*
X123687516Y-55196759D01*
X123686303Y-55194380D01*
X123681670Y-55185286D01*
X123559035Y-55016495D01*
X123411505Y-54868965D01*
X123242714Y-54746330D01*
X123056820Y-54651612D01*
X122858389Y-54587137D01*
X122652324Y-54554500D01*
X122652319Y-54554500D01*
X122443681Y-54554500D01*
X122443676Y-54554500D01*
X122237610Y-54587137D01*
X122039179Y-54651612D01*
X121853285Y-54746330D01*
X121684496Y-54868964D01*
X121568411Y-54985049D01*
X121507088Y-55018533D01*
X121437396Y-55013549D01*
X121381463Y-54971677D01*
X121364548Y-54940699D01*
X121316798Y-54812673D01*
X121316793Y-54812664D01*
X121230547Y-54697455D01*
X121230544Y-54697452D01*
X121115335Y-54611206D01*
X121115328Y-54611202D01*
X120980482Y-54560908D01*
X120980483Y-54560908D01*
X120920883Y-54554501D01*
X120920881Y-54554500D01*
X120920873Y-54554500D01*
X120920865Y-54554500D01*
X120781465Y-54554500D01*
X120725170Y-54540985D01*
X120718332Y-54537501D01*
X120679697Y-54517815D01*
X120623996Y-54489433D01*
X120399368Y-54416446D01*
X120166097Y-54379500D01*
X120166092Y-54379500D01*
X119929908Y-54379500D01*
X119929903Y-54379500D01*
X119696630Y-54416447D01*
X119696627Y-54416447D01*
X119472011Y-54489430D01*
X119472010Y-54489430D01*
X119370827Y-54540985D01*
X119314534Y-54554500D01*
X119175130Y-54554500D01*
X119175123Y-54554501D01*
X119115516Y-54560908D01*
X118980671Y-54611202D01*
X118980664Y-54611206D01*
X118865455Y-54697452D01*
X118865452Y-54697455D01*
X118779206Y-54812664D01*
X118779202Y-54812671D01*
X118728908Y-54947517D01*
X118722501Y-55007116D01*
X118722500Y-55007135D01*
X118722500Y-55146533D01*
X118708985Y-55202827D01*
X118657434Y-55304000D01*
X118584446Y-55528631D01*
X118547500Y-55761902D01*
X118547500Y-56363294D01*
X118584446Y-56596565D01*
X118657433Y-56821193D01*
X118764657Y-57031631D01*
X118903483Y-57222707D01*
X120731293Y-59050517D01*
X120922369Y-59189343D01*
X121132811Y-59296568D01*
X121357434Y-59369553D01*
X121444912Y-59383408D01*
X121590706Y-59406500D01*
X121590711Y-59406500D01*
X121826895Y-59406500D01*
X133461111Y-59406500D01*
X133528150Y-59426185D01*
X133548792Y-59442819D01*
X134265792Y-60159819D01*
X134299277Y-60221142D01*
X134294293Y-60290834D01*
X134252421Y-60346767D01*
X134186957Y-60371184D01*
X134178111Y-60371500D01*
X132950129Y-60371500D01*
X132950123Y-60371501D01*
X132890516Y-60377908D01*
X132755671Y-60428202D01*
X132755664Y-60428206D01*
X132640455Y-60514452D01*
X132640452Y-60514455D01*
X132554206Y-60629664D01*
X132554203Y-60629669D01*
X132505189Y-60761083D01*
X132463317Y-60817016D01*
X132397853Y-60841433D01*
X132329580Y-60826581D01*
X132301326Y-60805430D01*
X132187786Y-60691890D01*
X132015820Y-60566951D01*
X131826414Y-60470444D01*
X131826413Y-60470443D01*
X131826412Y-60470443D01*
X131624243Y-60404754D01*
X131624241Y-60404753D01*
X131624240Y-60404753D01*
X131462957Y-60379208D01*
X131414287Y-60371500D01*
X131201713Y-60371500D01*
X131153042Y-60379208D01*
X130991760Y-60404753D01*
X130789585Y-60470444D01*
X130600179Y-60566951D01*
X130428213Y-60691890D01*
X130277890Y-60842213D01*
X130152949Y-61014182D01*
X130148484Y-61022946D01*
X130100509Y-61073742D01*
X130032688Y-61090536D01*
X129966553Y-61067998D01*
X129927516Y-61022946D01*
X129923050Y-61014182D01*
X129798109Y-60842213D01*
X129647786Y-60691890D01*
X129475820Y-60566951D01*
X129286414Y-60470444D01*
X129286413Y-60470443D01*
X129286412Y-60470443D01*
X129084243Y-60404754D01*
X129084241Y-60404753D01*
X129084240Y-60404753D01*
X128922957Y-60379208D01*
X128874287Y-60371500D01*
X128661713Y-60371500D01*
X128613042Y-60379208D01*
X128451760Y-60404753D01*
X128249585Y-60470444D01*
X128060179Y-60566951D01*
X127888213Y-60691890D01*
X127737890Y-60842213D01*
X127612949Y-61014182D01*
X127608202Y-61023499D01*
X127560227Y-61074293D01*
X127492405Y-61091087D01*
X127426271Y-61068548D01*
X127387234Y-61023495D01*
X127382626Y-61014452D01*
X127343270Y-60960282D01*
X127343269Y-60960282D01*
X126710962Y-61592590D01*
X126693925Y-61529007D01*
X126628099Y-61414993D01*
X126535007Y-61321901D01*
X126420993Y-61256075D01*
X126357409Y-61239037D01*
X126989716Y-60606728D01*
X126935550Y-60567375D01*
X126746217Y-60470904D01*
X126544129Y-60405242D01*
X126334246Y-60372000D01*
X126121754Y-60372000D01*
X125911872Y-60405242D01*
X125911869Y-60405242D01*
X125709782Y-60470904D01*
X125520439Y-60567380D01*
X125466282Y-60606727D01*
X125466282Y-60606728D01*
X126098591Y-61239037D01*
X126035007Y-61256075D01*
X125920993Y-61321901D01*
X125827901Y-61414993D01*
X125762075Y-61529007D01*
X125745037Y-61592591D01*
X125112728Y-60960282D01*
X125112727Y-60960282D01*
X125073380Y-61014439D01*
X124976904Y-61203782D01*
X124911242Y-61405869D01*
X124911242Y-61405872D01*
X124878000Y-61615753D01*
X124878000Y-61828246D01*
X124911242Y-62038127D01*
X124911242Y-62038130D01*
X124976904Y-62240217D01*
X125073375Y-62429550D01*
X125112728Y-62483716D01*
X125745037Y-61851408D01*
X125762075Y-61914993D01*
X125827901Y-62029007D01*
X125920993Y-62122099D01*
X126035007Y-62187925D01*
X126098590Y-62204962D01*
X125466282Y-62837269D01*
X125466282Y-62837270D01*
X125520449Y-62876624D01*
X125709782Y-62973095D01*
X125911870Y-63038757D01*
X126121754Y-63072000D01*
X126334246Y-63072000D01*
X126544127Y-63038757D01*
X126544130Y-63038757D01*
X126746217Y-62973095D01*
X126935554Y-62876622D01*
X126989716Y-62837270D01*
X126989717Y-62837270D01*
X126357408Y-62204962D01*
X126420993Y-62187925D01*
X126535007Y-62122099D01*
X126628099Y-62029007D01*
X126693925Y-61914993D01*
X126710962Y-61851408D01*
X127343269Y-62483716D01*
X127383771Y-62480529D01*
X127452148Y-62494893D01*
X127501905Y-62543944D01*
X127517500Y-62604147D01*
X127517500Y-63022503D01*
X127548290Y-63216907D01*
X127609117Y-63404111D01*
X127695259Y-63573172D01*
X127698476Y-63579486D01*
X127814172Y-63738727D01*
X127814174Y-63738729D01*
X129182579Y-65107134D01*
X129216064Y-65168457D01*
X129211080Y-65238149D01*
X129169208Y-65294082D01*
X129133218Y-65312745D01*
X129104513Y-65322072D01*
X129040776Y-65342781D01*
X128858386Y-65435715D01*
X128692786Y-65556028D01*
X128548028Y-65700786D01*
X128427715Y-65866386D01*
X128334781Y-66048776D01*
X128271522Y-66243465D01*
X128239500Y-66445648D01*
X128239500Y-66650351D01*
X128271522Y-66852534D01*
X128334781Y-67047223D01*
X128398691Y-67172653D01*
X128427585Y-67229359D01*
X128427715Y-67229613D01*
X128548028Y-67395213D01*
X128692786Y-67539971D01*
X128813226Y-67627474D01*
X128858390Y-67660287D01*
X128974607Y-67719503D01*
X129040776Y-67753218D01*
X129040778Y-67753218D01*
X129040781Y-67753220D01*
X129145137Y-67787127D01*
X129235465Y-67816477D01*
X129336557Y-67832488D01*
X129437648Y-67848500D01*
X129437649Y-67848500D01*
X129642351Y-67848500D01*
X129642352Y-67848500D01*
X129844534Y-67816477D01*
X129886181Y-67802944D01*
X129956022Y-67800950D01*
X130015855Y-67837030D01*
X130046684Y-67899730D01*
X130048500Y-67920876D01*
X130048500Y-73656578D01*
X130028815Y-73723617D01*
X129976011Y-73769372D01*
X129906853Y-73779316D01*
X129868206Y-73767063D01*
X129785226Y-73724782D01*
X129590534Y-73661522D01*
X129415995Y-73633878D01*
X129388352Y-73629500D01*
X129183648Y-73629500D01*
X129159329Y-73633351D01*
X128981465Y-73661522D01*
X128786776Y-73724781D01*
X128604386Y-73817715D01*
X128438786Y-73938028D01*
X128294028Y-74082786D01*
X128173715Y-74248386D01*
X128080781Y-74430776D01*
X128017522Y-74625465D01*
X127985500Y-74827648D01*
X127985500Y-75032351D01*
X128017522Y-75234534D01*
X128080781Y-75429223D01*
X128144691Y-75554653D01*
X128173585Y-75611359D01*
X128173715Y-75611613D01*
X128294028Y-75777213D01*
X128438786Y-75921971D01*
X128523499Y-75983517D01*
X128604390Y-76042287D01*
X128703796Y-76092937D01*
X128786776Y-76135218D01*
X128786778Y-76135218D01*
X128786781Y-76135220D01*
X128873578Y-76163422D01*
X128981465Y-76198477D01*
X129082557Y-76214488D01*
X129183648Y-76230500D01*
X129183649Y-76230500D01*
X129388351Y-76230500D01*
X129388352Y-76230500D01*
X129590534Y-76198477D01*
X129785219Y-76135220D01*
X129785224Y-76135217D01*
X129785228Y-76135216D01*
X129868205Y-76092937D01*
X129936874Y-76080040D01*
X130001614Y-76106316D01*
X130041872Y-76163422D01*
X130048500Y-76203421D01*
X130048500Y-76279422D01*
X130079290Y-76473826D01*
X130140117Y-76661030D01*
X130223865Y-76825393D01*
X130229476Y-76836405D01*
X130345172Y-76995646D01*
X130345174Y-76995648D01*
X131503506Y-78153980D01*
X131536991Y-78215303D01*
X131532007Y-78284995D01*
X131490135Y-78340928D01*
X131472123Y-78352143D01*
X131442413Y-78367281D01*
X131398385Y-78389715D01*
X131232786Y-78510028D01*
X131088028Y-78654786D01*
X130967715Y-78820386D01*
X130874781Y-79002776D01*
X130811522Y-79197465D01*
X130779500Y-79399648D01*
X130779500Y-79604351D01*
X130811522Y-79806534D01*
X130874781Y-80001223D01*
X130938691Y-80126653D01*
X130967585Y-80183359D01*
X130967715Y-80183613D01*
X131088028Y-80349213D01*
X131232786Y-80493971D01*
X131353226Y-80581474D01*
X131398390Y-80614287D01*
X131514607Y-80673503D01*
X131580776Y-80707218D01*
X131580778Y-80707218D01*
X131580781Y-80707220D01*
X131685137Y-80741127D01*
X131775465Y-80770477D01*
X131876557Y-80786488D01*
X131977648Y-80802500D01*
X131977649Y-80802500D01*
X132182351Y-80802500D01*
X132182352Y-80802500D01*
X132384534Y-80770477D01*
X132579219Y-80707220D01*
X132761610Y-80614287D01*
X132854590Y-80546732D01*
X132927213Y-80493971D01*
X132927215Y-80493968D01*
X132927219Y-80493966D01*
X133071966Y-80349219D01*
X133071968Y-80349215D01*
X133071971Y-80349213D01*
X133192284Y-80183614D01*
X133192285Y-80183613D01*
X133192287Y-80183610D01*
X133229854Y-80109879D01*
X133277828Y-80059084D01*
X133345649Y-80042289D01*
X133411784Y-80064826D01*
X133428020Y-80078494D01*
X140166181Y-86816655D01*
X140199666Y-86877978D01*
X140202500Y-86904336D01*
X140202500Y-87830696D01*
X140196431Y-87869014D01*
X140135753Y-88055760D01*
X140102500Y-88265713D01*
X140102500Y-88478286D01*
X140135753Y-88688239D01*
X140201444Y-88890414D01*
X140297951Y-89079820D01*
X140422890Y-89251786D01*
X140536818Y-89365714D01*
X140570303Y-89427037D01*
X140565319Y-89496729D01*
X140523447Y-89552662D01*
X140492471Y-89569577D01*
X140360912Y-89618646D01*
X140360906Y-89618649D01*
X140245812Y-89704809D01*
X140245809Y-89704812D01*
X140159649Y-89819906D01*
X140159645Y-89819913D01*
X140109403Y-89954620D01*
X140109401Y-89954627D01*
X140103000Y-90014155D01*
X140103000Y-90662000D01*
X141019988Y-90662000D01*
X140987075Y-90719007D01*
X140953000Y-90846174D01*
X140953000Y-90977826D01*
X140987075Y-91104993D01*
X141019988Y-91162000D01*
X140103000Y-91162000D01*
X140103000Y-91809844D01*
X140109401Y-91869372D01*
X140109403Y-91869379D01*
X140159645Y-92004086D01*
X140159649Y-92004093D01*
X140245809Y-92119187D01*
X140246441Y-92119819D01*
X140246868Y-92120602D01*
X140251125Y-92126288D01*
X140250307Y-92126899D01*
X140279926Y-92181142D01*
X140274942Y-92250834D01*
X140233070Y-92306767D01*
X140167606Y-92331184D01*
X140158760Y-92331500D01*
X117718500Y-92331500D01*
X117651461Y-92311815D01*
X117605706Y-92259011D01*
X117594500Y-92207500D01*
X117594500Y-89780155D01*
X119300000Y-89780155D01*
X119300000Y-90428000D01*
X120216988Y-90428000D01*
X120184075Y-90485007D01*
X120150000Y-90612174D01*
X120150000Y-90743826D01*
X120184075Y-90870993D01*
X120216988Y-90928000D01*
X119300000Y-90928000D01*
X119300000Y-91575844D01*
X119306401Y-91635372D01*
X119306403Y-91635379D01*
X119356645Y-91770086D01*
X119356649Y-91770093D01*
X119442809Y-91885187D01*
X119442812Y-91885190D01*
X119557906Y-91971350D01*
X119557913Y-91971354D01*
X119692620Y-92021596D01*
X119692627Y-92021598D01*
X119752155Y-92027999D01*
X119752172Y-92028000D01*
X120400000Y-92028000D01*
X120400000Y-91111012D01*
X120457007Y-91143925D01*
X120584174Y-91178000D01*
X120715826Y-91178000D01*
X120842993Y-91143925D01*
X120900000Y-91111012D01*
X120900000Y-92028000D01*
X121547828Y-92028000D01*
X121547844Y-92027999D01*
X121607372Y-92021598D01*
X121607379Y-92021596D01*
X121742086Y-91971354D01*
X121742093Y-91971350D01*
X121857187Y-91885190D01*
X121857190Y-91885187D01*
X121943350Y-91770093D01*
X121943354Y-91770086D01*
X121992422Y-91638529D01*
X122034293Y-91582595D01*
X122099757Y-91558178D01*
X122168030Y-91573030D01*
X122196285Y-91594181D01*
X122310213Y-91708109D01*
X122482179Y-91833048D01*
X122482181Y-91833049D01*
X122482184Y-91833051D01*
X122671588Y-91929557D01*
X122873757Y-91995246D01*
X123083713Y-92028500D01*
X123083714Y-92028500D01*
X123296286Y-92028500D01*
X123296287Y-92028500D01*
X123506243Y-91995246D01*
X123708412Y-91929557D01*
X123897816Y-91833051D01*
X123984471Y-91770093D01*
X124069786Y-91708109D01*
X124069788Y-91708106D01*
X124069792Y-91708104D01*
X124220104Y-91557792D01*
X124220106Y-91557788D01*
X124220109Y-91557786D01*
X124345048Y-91385820D01*
X124345047Y-91385820D01*
X124345051Y-91385816D01*
X124441557Y-91196412D01*
X124507246Y-90994243D01*
X124540500Y-90784287D01*
X124540500Y-90571713D01*
X124507246Y-90361757D01*
X124441557Y-90159588D01*
X124345051Y-89970184D01*
X124345049Y-89970181D01*
X124345048Y-89970179D01*
X124220109Y-89798213D01*
X124069786Y-89647890D01*
X123897820Y-89522951D01*
X123708414Y-89426444D01*
X123708413Y-89426443D01*
X123708412Y-89426443D01*
X123506243Y-89360754D01*
X123506241Y-89360753D01*
X123506240Y-89360753D01*
X123344957Y-89335208D01*
X123296287Y-89327500D01*
X123083713Y-89327500D01*
X123035042Y-89335208D01*
X122873760Y-89360753D01*
X122671585Y-89426444D01*
X122482179Y-89522951D01*
X122310215Y-89647889D01*
X122196285Y-89761819D01*
X122134962Y-89795303D01*
X122065270Y-89790319D01*
X122009337Y-89748447D01*
X121992422Y-89717470D01*
X121943354Y-89585913D01*
X121943350Y-89585906D01*
X121857190Y-89470812D01*
X121857187Y-89470809D01*
X121742093Y-89384649D01*
X121742086Y-89384645D01*
X121607379Y-89334403D01*
X121607372Y-89334401D01*
X121547844Y-89328000D01*
X120900000Y-89328000D01*
X120900000Y-90244988D01*
X120842993Y-90212075D01*
X120715826Y-90178000D01*
X120584174Y-90178000D01*
X120457007Y-90212075D01*
X120400000Y-90244988D01*
X120400000Y-89328000D01*
X119752155Y-89328000D01*
X119692627Y-89334401D01*
X119692620Y-89334403D01*
X119557913Y-89384645D01*
X119557906Y-89384649D01*
X119442812Y-89470809D01*
X119442809Y-89470812D01*
X119356649Y-89585906D01*
X119356645Y-89585913D01*
X119306403Y-89720620D01*
X119306401Y-89720627D01*
X119300000Y-89780155D01*
X117594500Y-89780155D01*
X117594500Y-83209648D01*
X118079500Y-83209648D01*
X118079500Y-83414351D01*
X118111522Y-83616534D01*
X118174781Y-83811223D01*
X118238691Y-83936653D01*
X118267585Y-83993359D01*
X118267715Y-83993613D01*
X118388028Y-84159213D01*
X118532786Y-84303971D01*
X118653226Y-84391474D01*
X118698390Y-84424287D01*
X118814607Y-84483503D01*
X118880776Y-84517218D01*
X118880778Y-84517218D01*
X118880781Y-84517220D01*
X118985137Y-84551127D01*
X119075465Y-84580477D01*
X119176557Y-84596488D01*
X119277648Y-84612500D01*
X119277649Y-84612500D01*
X119482351Y-84612500D01*
X119482352Y-84612500D01*
X119684534Y-84580477D01*
X119879219Y-84517220D01*
X120061610Y-84424287D01*
X120154590Y-84356732D01*
X120227213Y-84303971D01*
X120227215Y-84303968D01*
X120227219Y-84303966D01*
X120371966Y-84159219D01*
X120371968Y-84159215D01*
X120371971Y-84159213D01*
X120424732Y-84086590D01*
X120492287Y-83993610D01*
X120585220Y-83811219D01*
X120648477Y-83616534D01*
X120680500Y-83414352D01*
X120680500Y-83209682D01*
X128240000Y-83209682D01*
X128240000Y-83414317D01*
X128272009Y-83616417D01*
X128335244Y-83811031D01*
X128428141Y-83993350D01*
X128428147Y-83993359D01*
X128460523Y-84037921D01*
X128460524Y-84037922D01*
X129140000Y-83358446D01*
X129140000Y-83364661D01*
X129167259Y-83466394D01*
X129219920Y-83557606D01*
X129294394Y-83632080D01*
X129385606Y-83684741D01*
X129487339Y-83712000D01*
X129493553Y-83712000D01*
X128814076Y-84391474D01*
X128858650Y-84423859D01*
X129040968Y-84516755D01*
X129235582Y-84579990D01*
X129437683Y-84612000D01*
X129642317Y-84612000D01*
X129844417Y-84579990D01*
X130039031Y-84516755D01*
X130221349Y-84423859D01*
X130265921Y-84391474D01*
X129586447Y-83712000D01*
X129592661Y-83712000D01*
X129694394Y-83684741D01*
X129785606Y-83632080D01*
X129860080Y-83557606D01*
X129912741Y-83466394D01*
X129940000Y-83364661D01*
X129940000Y-83358447D01*
X130619474Y-84037921D01*
X130651859Y-83993349D01*
X130744755Y-83811031D01*
X130807990Y-83616417D01*
X130840000Y-83414317D01*
X130840000Y-83209682D01*
X130807990Y-83007582D01*
X130744755Y-82812968D01*
X130651859Y-82630650D01*
X130619474Y-82586077D01*
X130619474Y-82586076D01*
X129940000Y-83265551D01*
X129940000Y-83259339D01*
X129912741Y-83157606D01*
X129860080Y-83066394D01*
X129785606Y-82991920D01*
X129694394Y-82939259D01*
X129592661Y-82912000D01*
X129586446Y-82912000D01*
X130265922Y-82232524D01*
X130265921Y-82232523D01*
X130221359Y-82200147D01*
X130221350Y-82200141D01*
X130039031Y-82107244D01*
X129844417Y-82044009D01*
X129642317Y-82012000D01*
X129437683Y-82012000D01*
X129235582Y-82044009D01*
X129040968Y-82107244D01*
X128858644Y-82200143D01*
X128814077Y-82232523D01*
X128814077Y-82232524D01*
X129493554Y-82912000D01*
X129487339Y-82912000D01*
X129385606Y-82939259D01*
X129294394Y-82991920D01*
X129219920Y-83066394D01*
X129167259Y-83157606D01*
X129140000Y-83259339D01*
X129140000Y-83265553D01*
X128460524Y-82586077D01*
X128460523Y-82586077D01*
X128428143Y-82630644D01*
X128335244Y-82812968D01*
X128272009Y-83007582D01*
X128240000Y-83209682D01*
X120680500Y-83209682D01*
X120680500Y-83209648D01*
X120660787Y-83085185D01*
X120648477Y-83007465D01*
X120617458Y-82912000D01*
X120585220Y-82812781D01*
X120585218Y-82812778D01*
X120585218Y-82812776D01*
X120492419Y-82630650D01*
X120492287Y-82630390D01*
X120460092Y-82586077D01*
X120371971Y-82464786D01*
X120227213Y-82320028D01*
X120061613Y-82199715D01*
X120061612Y-82199714D01*
X120061610Y-82199713D01*
X120004653Y-82170691D01*
X119879223Y-82106781D01*
X119684534Y-82043522D01*
X119509995Y-82015878D01*
X119482352Y-82011500D01*
X119277648Y-82011500D01*
X119253329Y-82015351D01*
X119075465Y-82043522D01*
X118880776Y-82106781D01*
X118698386Y-82199715D01*
X118532786Y-82320028D01*
X118388028Y-82464786D01*
X118267715Y-82630386D01*
X118174781Y-82812776D01*
X118111522Y-83007465D01*
X118079500Y-83209648D01*
X117594500Y-83209648D01*
X117594500Y-75146249D01*
X117614185Y-75079210D01*
X117666989Y-75033455D01*
X117736147Y-75023511D01*
X117799703Y-75052536D01*
X117837477Y-75111314D01*
X117840973Y-75126851D01*
X117858009Y-75234417D01*
X117921244Y-75429031D01*
X118014141Y-75611350D01*
X118014147Y-75611359D01*
X118046523Y-75655921D01*
X118046524Y-75655922D01*
X118726000Y-74976446D01*
X118726000Y-74982661D01*
X118753259Y-75084394D01*
X118805920Y-75175606D01*
X118880394Y-75250080D01*
X118971606Y-75302741D01*
X119073339Y-75330000D01*
X119079553Y-75330000D01*
X118400076Y-76009474D01*
X118444650Y-76041859D01*
X118626968Y-76134755D01*
X118821582Y-76197990D01*
X119023683Y-76230000D01*
X119228317Y-76230000D01*
X119430417Y-76197990D01*
X119625031Y-76134755D01*
X119807349Y-76041859D01*
X119851921Y-76009474D01*
X119172447Y-75330000D01*
X119178661Y-75330000D01*
X119280394Y-75302741D01*
X119371606Y-75250080D01*
X119446080Y-75175606D01*
X119498741Y-75084394D01*
X119526000Y-74982661D01*
X119526000Y-74976447D01*
X120205474Y-75655921D01*
X120237859Y-75611349D01*
X120330755Y-75429031D01*
X120393990Y-75234417D01*
X120426000Y-75032317D01*
X120426000Y-74827682D01*
X120393990Y-74625582D01*
X120330755Y-74430968D01*
X120237859Y-74248650D01*
X120205474Y-74204077D01*
X120205474Y-74204076D01*
X119526000Y-74883551D01*
X119526000Y-74877339D01*
X119498741Y-74775606D01*
X119446080Y-74684394D01*
X119371606Y-74609920D01*
X119280394Y-74557259D01*
X119178661Y-74530000D01*
X119172446Y-74530000D01*
X119851922Y-73850524D01*
X119851921Y-73850523D01*
X119807359Y-73818147D01*
X119807350Y-73818141D01*
X119625031Y-73725244D01*
X119430417Y-73662009D01*
X119228317Y-73630000D01*
X119023683Y-73630000D01*
X118821582Y-73662009D01*
X118626968Y-73725244D01*
X118444644Y-73818143D01*
X118400077Y-73850523D01*
X118400077Y-73850524D01*
X119079554Y-74530000D01*
X119073339Y-74530000D01*
X118971606Y-74557259D01*
X118880394Y-74609920D01*
X118805920Y-74684394D01*
X118753259Y-74775606D01*
X118726000Y-74877339D01*
X118726000Y-74883553D01*
X118046524Y-74204077D01*
X118046523Y-74204077D01*
X118014143Y-74248644D01*
X117921244Y-74430968D01*
X117858009Y-74625582D01*
X117840973Y-74733148D01*
X117811044Y-74796283D01*
X117751732Y-74833214D01*
X117681870Y-74832216D01*
X117623637Y-74793606D01*
X117595523Y-74729642D01*
X117594500Y-74713750D01*
X117594500Y-66445682D01*
X118080000Y-66445682D01*
X118080000Y-66650317D01*
X118112009Y-66852417D01*
X118175244Y-67047031D01*
X118268141Y-67229350D01*
X118268147Y-67229359D01*
X118300523Y-67273921D01*
X118300524Y-67273922D01*
X118980000Y-66594446D01*
X118980000Y-66600661D01*
X119007259Y-66702394D01*
X119059920Y-66793606D01*
X119134394Y-66868080D01*
X119225606Y-66920741D01*
X119327339Y-66948000D01*
X119333553Y-66948000D01*
X118654076Y-67627474D01*
X118698650Y-67659859D01*
X118880968Y-67752755D01*
X119075582Y-67815990D01*
X119277683Y-67848000D01*
X119482317Y-67848000D01*
X119684417Y-67815990D01*
X119879031Y-67752755D01*
X120061349Y-67659859D01*
X120105921Y-67627474D01*
X119426447Y-66948000D01*
X119432661Y-66948000D01*
X119534394Y-66920741D01*
X119625606Y-66868080D01*
X119700080Y-66793606D01*
X119752741Y-66702394D01*
X119780000Y-66600661D01*
X119780000Y-66594448D01*
X120459474Y-67273922D01*
X120459474Y-67273921D01*
X120491859Y-67229349D01*
X120584755Y-67047031D01*
X120647990Y-66852417D01*
X120680000Y-66650317D01*
X120680000Y-66445682D01*
X120647990Y-66243582D01*
X120584755Y-66048968D01*
X120491859Y-65866650D01*
X120459474Y-65822077D01*
X120459474Y-65822076D01*
X119780000Y-66501551D01*
X119780000Y-66495339D01*
X119752741Y-66393606D01*
X119700080Y-66302394D01*
X119625606Y-66227920D01*
X119534394Y-66175259D01*
X119432661Y-66148000D01*
X119426446Y-66148000D01*
X120105922Y-65468524D01*
X120105921Y-65468523D01*
X120061359Y-65436147D01*
X120061350Y-65436141D01*
X119879031Y-65343244D01*
X119684417Y-65280009D01*
X119482317Y-65248000D01*
X119277683Y-65248000D01*
X119075582Y-65280009D01*
X118880968Y-65343244D01*
X118698644Y-65436143D01*
X118654077Y-65468523D01*
X118654077Y-65468524D01*
X119333554Y-66148000D01*
X119327339Y-66148000D01*
X119225606Y-66175259D01*
X119134394Y-66227920D01*
X119059920Y-66302394D01*
X119007259Y-66393606D01*
X118980000Y-66495339D01*
X118980000Y-66501553D01*
X118300524Y-65822077D01*
X118300523Y-65822077D01*
X118268143Y-65866644D01*
X118175244Y-66048968D01*
X118112009Y-66243582D01*
X118080000Y-66445682D01*
X117594500Y-66445682D01*
X117594500Y-53456500D01*
X117614185Y-53389461D01*
X117666989Y-53343706D01*
X117718500Y-53332500D01*
X137097902Y-53332500D01*
X137164941Y-53352185D01*
G37*
%TD.AperFunction*%
%TA.AperFunction,Conductor*%
G36*
X156528926Y-58606738D02*
G01*
X156578332Y-58656143D01*
X156593500Y-58715571D01*
X156593500Y-92207500D01*
X156573815Y-92274539D01*
X156521011Y-92320294D01*
X156469500Y-92331500D01*
X142747240Y-92331500D01*
X142680201Y-92311815D01*
X142634446Y-92259011D01*
X142624502Y-92189853D01*
X142653527Y-92126297D01*
X142659559Y-92119819D01*
X142660190Y-92119187D01*
X142746350Y-92004093D01*
X142746354Y-92004086D01*
X142796596Y-91869379D01*
X142796598Y-91869372D01*
X142802999Y-91809844D01*
X142803000Y-91809827D01*
X142803000Y-91162000D01*
X141886012Y-91162000D01*
X141918925Y-91104993D01*
X141953000Y-90977826D01*
X141953000Y-90846174D01*
X141918925Y-90719007D01*
X141886012Y-90662000D01*
X142803000Y-90662000D01*
X142803000Y-90014172D01*
X142802999Y-90014155D01*
X142796598Y-89954627D01*
X142796596Y-89954620D01*
X142746354Y-89819913D01*
X142746350Y-89819906D01*
X142660190Y-89704812D01*
X142660187Y-89704809D01*
X142545093Y-89618649D01*
X142545088Y-89618646D01*
X142413528Y-89569577D01*
X142357595Y-89527705D01*
X142333178Y-89462241D01*
X142348030Y-89393968D01*
X142369175Y-89365720D01*
X142483104Y-89251792D01*
X142528503Y-89189306D01*
X142549160Y-89160872D01*
X142608051Y-89079816D01*
X142704557Y-88890412D01*
X142770246Y-88688243D01*
X142803500Y-88478287D01*
X142803500Y-88265713D01*
X142770246Y-88055757D01*
X142709568Y-87869012D01*
X142703500Y-87830696D01*
X142703500Y-86236577D01*
X142672709Y-86042173D01*
X142611882Y-85854970D01*
X142522523Y-85679594D01*
X142406828Y-85520354D01*
X142267646Y-85381172D01*
X132585819Y-75699345D01*
X132552334Y-75638022D01*
X132549500Y-75611664D01*
X132549500Y-74892469D01*
X132569185Y-74825430D01*
X132621989Y-74779675D01*
X132691147Y-74769731D01*
X132754703Y-74798756D01*
X132761181Y-74804788D01*
X133014910Y-75058517D01*
X133205986Y-75197343D01*
X133283050Y-75236609D01*
X133416423Y-75304566D01*
X133416425Y-75304566D01*
X133416428Y-75304568D01*
X133502037Y-75332384D01*
X133641051Y-75377553D01*
X133874323Y-75414500D01*
X133874328Y-75414500D01*
X134110517Y-75414500D01*
X134343788Y-75377553D01*
X134568412Y-75304568D01*
X134778854Y-75197343D01*
X134969930Y-75058517D01*
X135136937Y-74891510D01*
X135275763Y-74700434D01*
X135382988Y-74489992D01*
X135455973Y-74265368D01*
X135458663Y-74248386D01*
X135492920Y-74032097D01*
X135492920Y-73795902D01*
X135455973Y-73562631D01*
X135382986Y-73338003D01*
X135275762Y-73127565D01*
X135136937Y-72936490D01*
X134886819Y-72686372D01*
X134853334Y-72625049D01*
X134850500Y-72598691D01*
X134850500Y-71728500D01*
X134870185Y-71661461D01*
X134922989Y-71615706D01*
X134974500Y-71604500D01*
X135725111Y-71604500D01*
X135792150Y-71624185D01*
X135812792Y-71640819D01*
X142169581Y-77997608D01*
X142203066Y-78058931D01*
X142198082Y-78128623D01*
X142156210Y-78184556D01*
X142101299Y-78207762D01*
X141935581Y-78234010D01*
X141740968Y-78297244D01*
X141558644Y-78390143D01*
X141514077Y-78422523D01*
X141514077Y-78422524D01*
X142193554Y-79102000D01*
X142187339Y-79102000D01*
X142085606Y-79129259D01*
X141994394Y-79181920D01*
X141919920Y-79256394D01*
X141867259Y-79347606D01*
X141840000Y-79449339D01*
X141840000Y-79455553D01*
X141160524Y-78776077D01*
X141160523Y-78776077D01*
X141128143Y-78820644D01*
X141035244Y-79002968D01*
X140972009Y-79197582D01*
X140940000Y-79399682D01*
X140940000Y-79604317D01*
X140972009Y-79806417D01*
X141035244Y-80001031D01*
X141128141Y-80183350D01*
X141128147Y-80183359D01*
X141160523Y-80227921D01*
X141160524Y-80227922D01*
X141840000Y-79548446D01*
X141840000Y-79554661D01*
X141867259Y-79656394D01*
X141919920Y-79747606D01*
X141994394Y-79822080D01*
X142085606Y-79874741D01*
X142187339Y-79902000D01*
X142193553Y-79902000D01*
X141514076Y-80581474D01*
X141558650Y-80613859D01*
X141740968Y-80706755D01*
X141935582Y-80769990D01*
X142137683Y-80802000D01*
X142342317Y-80802000D01*
X142544417Y-80769990D01*
X142739031Y-80706755D01*
X142921349Y-80613859D01*
X142965921Y-80581474D01*
X142286447Y-79902000D01*
X142292661Y-79902000D01*
X142394394Y-79874741D01*
X142485606Y-79822080D01*
X142560080Y-79747606D01*
X142612741Y-79656394D01*
X142640000Y-79554661D01*
X142640000Y-79548446D01*
X143319474Y-80227921D01*
X143351859Y-80183349D01*
X143444755Y-80001031D01*
X143507990Y-79806417D01*
X143534237Y-79640701D01*
X143564166Y-79577566D01*
X143623478Y-79540635D01*
X143693340Y-79541633D01*
X143744391Y-79572418D01*
X147126143Y-82954170D01*
X147159628Y-83015493D01*
X147154644Y-83085185D01*
X147148948Y-83098144D01*
X147127434Y-83140369D01*
X147054446Y-83364997D01*
X147017500Y-83598268D01*
X147017500Y-86981097D01*
X147054446Y-87214368D01*
X147127433Y-87438996D01*
X147234657Y-87649433D01*
X147373483Y-87840510D01*
X147540490Y-88007517D01*
X147731567Y-88146343D01*
X147800551Y-88181492D01*
X147851347Y-88229467D01*
X147868142Y-88297288D01*
X147867874Y-88301708D01*
X147863669Y-88355116D01*
X148429415Y-88920861D01*
X148344306Y-88943667D01*
X148241694Y-89002910D01*
X148157910Y-89086694D01*
X148098667Y-89189306D01*
X148075861Y-89274414D01*
X147510116Y-88708669D01*
X147510116Y-88708670D01*
X147491669Y-88734060D01*
X147405914Y-88902362D01*
X147347548Y-89081997D01*
X147318000Y-89268552D01*
X147318000Y-89457447D01*
X147347548Y-89644002D01*
X147405914Y-89823637D01*
X147491666Y-89991933D01*
X147510116Y-90017328D01*
X148075861Y-89451584D01*
X148098667Y-89536694D01*
X148157910Y-89639306D01*
X148241694Y-89723090D01*
X148344306Y-89782333D01*
X148429415Y-89805138D01*
X147863669Y-90370882D01*
X147863670Y-90370883D01*
X147889059Y-90389329D01*
X148057362Y-90475085D01*
X148236997Y-90533451D01*
X148423553Y-90563000D01*
X148612447Y-90563000D01*
X148799002Y-90533451D01*
X148978637Y-90475085D01*
X149146937Y-90389331D01*
X149172328Y-90370883D01*
X149172328Y-90370882D01*
X148606584Y-89805138D01*
X148691694Y-89782333D01*
X148794306Y-89723090D01*
X148878090Y-89639306D01*
X148937333Y-89536694D01*
X148960138Y-89451584D01*
X149525882Y-90017328D01*
X149525883Y-90017328D01*
X149544331Y-89991937D01*
X149630085Y-89823637D01*
X149688451Y-89644002D01*
X149718000Y-89457447D01*
X149718000Y-89268552D01*
X149688451Y-89081997D01*
X149630085Y-88902362D01*
X149544329Y-88734059D01*
X149525883Y-88708670D01*
X149525882Y-88708669D01*
X148960137Y-89274414D01*
X148937333Y-89189306D01*
X148878090Y-89086694D01*
X148794306Y-89002910D01*
X148691694Y-88943667D01*
X148606584Y-88920861D01*
X149172328Y-88355117D01*
X149168124Y-88301708D01*
X149182487Y-88233330D01*
X149231538Y-88183573D01*
X149235421Y-88181506D01*
X149304433Y-88146343D01*
X149495510Y-88007517D01*
X149662517Y-87840510D01*
X149801343Y-87649433D01*
X149908568Y-87438992D01*
X149981553Y-87214368D01*
X150018500Y-86981097D01*
X150018500Y-83598268D01*
X149981553Y-83364997D01*
X149947222Y-83259339D01*
X149908568Y-83140374D01*
X149908565Y-83140370D01*
X149908565Y-83140367D01*
X149850535Y-83026479D01*
X149837638Y-82957810D01*
X149850535Y-82913887D01*
X149851497Y-82912000D01*
X149908568Y-82799992D01*
X149981552Y-82575368D01*
X150000587Y-82455184D01*
X150018499Y-82342097D01*
X150018499Y-82105902D01*
X149997004Y-81970197D01*
X149981552Y-81872631D01*
X149908568Y-81648008D01*
X149801343Y-81437566D01*
X149662517Y-81246490D01*
X145302743Y-76886716D01*
X145269258Y-76825393D01*
X145274242Y-76755701D01*
X145316114Y-76699768D01*
X145342966Y-76684476D01*
X145413179Y-76655394D01*
X145467663Y-76618989D01*
X145544875Y-76567398D01*
X145611553Y-76546520D01*
X145613766Y-76546500D01*
X148958102Y-76546500D01*
X149025141Y-76566185D01*
X149070896Y-76618989D01*
X149080840Y-76688147D01*
X149051815Y-76751703D01*
X149045783Y-76758181D01*
X148945485Y-76858478D01*
X148945479Y-76858485D01*
X148794823Y-77054824D01*
X148794812Y-77054840D01*
X148671074Y-77269159D01*
X148671069Y-77269170D01*
X148576361Y-77497815D01*
X148512303Y-77736882D01*
X148480001Y-77982243D01*
X148480000Y-77982260D01*
X148480000Y-78229739D01*
X148480001Y-78229756D01*
X148512303Y-78475117D01*
X148576361Y-78714184D01*
X148671069Y-78942829D01*
X148671074Y-78942840D01*
X148794812Y-79157159D01*
X148794823Y-79157175D01*
X148945479Y-79353514D01*
X148945485Y-79353521D01*
X149120478Y-79528514D01*
X149120484Y-79528519D01*
X149316833Y-79679183D01*
X149316840Y-79679187D01*
X149531159Y-79802925D01*
X149531164Y-79802927D01*
X149531167Y-79802929D01*
X149759820Y-79897640D01*
X149998879Y-79961696D01*
X150244254Y-79994000D01*
X150244261Y-79994000D01*
X150491739Y-79994000D01*
X150491746Y-79994000D01*
X150737121Y-79961696D01*
X150976180Y-79897640D01*
X151204833Y-79802929D01*
X151419167Y-79679183D01*
X151615516Y-79528519D01*
X151790519Y-79353516D01*
X151941183Y-79157167D01*
X152064929Y-78942833D01*
X152159640Y-78714180D01*
X152223696Y-78475121D01*
X152256000Y-78229746D01*
X152256000Y-77982254D01*
X152223696Y-77736879D01*
X152159640Y-77497820D01*
X152064929Y-77269167D01*
X152064927Y-77269164D01*
X152064925Y-77269159D01*
X151941187Y-77054840D01*
X151941183Y-77054833D01*
X151790519Y-76858484D01*
X151790514Y-76858478D01*
X151615521Y-76683485D01*
X151615514Y-76683479D01*
X151419175Y-76532823D01*
X151419173Y-76532821D01*
X151419167Y-76532817D01*
X151419162Y-76532814D01*
X151419159Y-76532812D01*
X151204840Y-76409074D01*
X151204824Y-76409066D01*
X151039313Y-76340510D01*
X150976180Y-76314360D01*
X150976176Y-76314359D01*
X150976174Y-76314358D01*
X150976175Y-76314358D01*
X150963273Y-76310901D01*
X150903613Y-76274536D01*
X150873085Y-76211688D01*
X150881380Y-76142313D01*
X150907684Y-76103449D01*
X155298506Y-71712628D01*
X155298511Y-71712624D01*
X155308714Y-71702420D01*
X155308716Y-71702420D01*
X155420520Y-71590616D01*
X155443794Y-71550304D01*
X155488499Y-71472873D01*
X155488500Y-71472870D01*
X155499577Y-71453685D01*
X155540500Y-71300958D01*
X155540500Y-71142843D01*
X155540500Y-62942499D01*
X155560185Y-62875460D01*
X155612989Y-62829705D01*
X155664500Y-62818499D01*
X155837871Y-62818499D01*
X155837872Y-62818499D01*
X155897483Y-62812091D01*
X156032331Y-62761796D01*
X156147546Y-62675546D01*
X156233796Y-62560331D01*
X156284091Y-62425483D01*
X156290500Y-62365873D01*
X156290499Y-60570128D01*
X156284091Y-60510517D01*
X156269316Y-60470904D01*
X156233797Y-60375671D01*
X156233793Y-60375664D01*
X156147547Y-60260455D01*
X156147544Y-60260452D01*
X156032335Y-60174206D01*
X156032328Y-60174202D01*
X155897482Y-60123908D01*
X155897483Y-60123908D01*
X155837883Y-60117501D01*
X155837881Y-60117500D01*
X155837873Y-60117500D01*
X155837865Y-60117500D01*
X154275500Y-60117500D01*
X154208461Y-60097815D01*
X154162706Y-60045011D01*
X154151500Y-59993500D01*
X154151500Y-59406060D01*
X154151501Y-59406047D01*
X154151501Y-59237944D01*
X154110576Y-59085214D01*
X154110573Y-59085209D01*
X154031524Y-58948290D01*
X154031519Y-58948283D01*
X154031518Y-58948282D01*
X153993364Y-58910128D01*
X153959880Y-58848808D01*
X153964864Y-58779117D01*
X154006734Y-58723183D01*
X154072199Y-58698765D01*
X154124379Y-58706267D01*
X154236517Y-58748091D01*
X154236516Y-58748091D01*
X154243444Y-58748835D01*
X154296127Y-58754500D01*
X156091872Y-58754499D01*
X156151483Y-58748091D01*
X156286331Y-58697796D01*
X156395189Y-58616305D01*
X156460653Y-58591887D01*
X156528926Y-58606738D01*
G37*
%TD.AperFunction*%
%TA.AperFunction,Conductor*%
G36*
X150232037Y-54634185D02*
G01*
X150277792Y-54686989D01*
X150287256Y-54752812D01*
X150287882Y-54752862D01*
X150287663Y-54755640D01*
X150287736Y-54756147D01*
X150287500Y-54757706D01*
X150287500Y-54757713D01*
X150287500Y-54970287D01*
X150297534Y-55033644D01*
X150318902Y-55168555D01*
X150320754Y-55180243D01*
X150377332Y-55354372D01*
X150386444Y-55382414D01*
X150482951Y-55571820D01*
X150607890Y-55743786D01*
X150721430Y-55857326D01*
X150754915Y-55918649D01*
X150749931Y-55988341D01*
X150708059Y-56044274D01*
X150677083Y-56061189D01*
X150545669Y-56110203D01*
X150545664Y-56110206D01*
X150430455Y-56196452D01*
X150430452Y-56196455D01*
X150344206Y-56311664D01*
X150344202Y-56311671D01*
X150293908Y-56446517D01*
X150288648Y-56495447D01*
X150287501Y-56506123D01*
X150287500Y-56506135D01*
X150287500Y-58301870D01*
X150287501Y-58301876D01*
X150293908Y-58361483D01*
X150344202Y-58496328D01*
X150344206Y-58496335D01*
X150430452Y-58611544D01*
X150430455Y-58611547D01*
X150545664Y-58697793D01*
X150545671Y-58697797D01*
X150680517Y-58748091D01*
X150680516Y-58748091D01*
X150687444Y-58748835D01*
X150740127Y-58754500D01*
X152087901Y-58754499D01*
X152154940Y-58774184D01*
X152175582Y-58790818D01*
X152914181Y-59529416D01*
X152947666Y-59590739D01*
X152950500Y-59617097D01*
X152950500Y-60056197D01*
X152930815Y-60123236D01*
X152878011Y-60168991D01*
X152808853Y-60178935D01*
X152788183Y-60174128D01*
X152716244Y-60150754D01*
X152716240Y-60150753D01*
X152554957Y-60125208D01*
X152506287Y-60117500D01*
X152293713Y-60117500D01*
X152265006Y-60122046D01*
X152083757Y-60150753D01*
X152041473Y-60164492D01*
X151971632Y-60166486D01*
X151915476Y-60134241D01*
X151711590Y-59930355D01*
X151711588Y-59930352D01*
X151592717Y-59811481D01*
X151592716Y-59811480D01*
X151505904Y-59761360D01*
X151505904Y-59761359D01*
X151505900Y-59761358D01*
X151455785Y-59732423D01*
X151303057Y-59691499D01*
X151144943Y-59691499D01*
X151137347Y-59691499D01*
X151137331Y-59691500D01*
X145445097Y-59691500D01*
X145378058Y-59671815D01*
X145357416Y-59655181D01*
X143102416Y-57400181D01*
X143068931Y-57338858D01*
X143073915Y-57269166D01*
X143115787Y-57213233D01*
X143181251Y-57188816D01*
X143190097Y-57188500D01*
X143320324Y-57188500D01*
X143526389Y-57155862D01*
X143596772Y-57132993D01*
X143724816Y-57091389D01*
X143910714Y-56996670D01*
X144079505Y-56874035D01*
X144227035Y-56726505D01*
X144349670Y-56557714D01*
X144355794Y-56545692D01*
X144403766Y-56494896D01*
X144471586Y-56478098D01*
X144537722Y-56500632D01*
X144576765Y-56545689D01*
X144582755Y-56557446D01*
X144618627Y-56606818D01*
X144618627Y-56606819D01*
X145192212Y-56033234D01*
X145203482Y-56075292D01*
X145275890Y-56200708D01*
X145378292Y-56303110D01*
X145503708Y-56375518D01*
X145545765Y-56386787D01*
X144972179Y-56960371D01*
X144972180Y-56960372D01*
X145021543Y-56996236D01*
X145021556Y-56996244D01*
X145207372Y-57090924D01*
X145405727Y-57155373D01*
X145611721Y-57188000D01*
X145820279Y-57188000D01*
X146026272Y-57155373D01*
X146224627Y-57090924D01*
X146410451Y-56996240D01*
X146459818Y-56960372D01*
X146459818Y-56960371D01*
X145886234Y-56386787D01*
X145928292Y-56375518D01*
X146053708Y-56303110D01*
X146156110Y-56200708D01*
X146228518Y-56075292D01*
X146239787Y-56033234D01*
X146813371Y-56606818D01*
X146813372Y-56606818D01*
X146849240Y-56557451D01*
X146943924Y-56371627D01*
X147008373Y-56173272D01*
X147041000Y-55967279D01*
X147041000Y-55758720D01*
X147008373Y-55552727D01*
X146943924Y-55354372D01*
X146849244Y-55168556D01*
X146849236Y-55168543D01*
X146813372Y-55119180D01*
X146813371Y-55119179D01*
X146239787Y-55692764D01*
X146228518Y-55650708D01*
X146156110Y-55525292D01*
X146053708Y-55422890D01*
X145928292Y-55350482D01*
X145886233Y-55339212D01*
X146459819Y-54765627D01*
X146458450Y-54748228D01*
X146472815Y-54679851D01*
X146521866Y-54630095D01*
X146582068Y-54614500D01*
X150164998Y-54614500D01*
X150232037Y-54634185D01*
G37*
%TD.AperFunction*%
%TA.AperFunction,Conductor*%
G36*
X144916971Y-54634185D02*
G01*
X144962726Y-54686989D01*
X144973550Y-54748230D01*
X144972180Y-54765627D01*
X145545766Y-55339212D01*
X145503708Y-55350482D01*
X145378292Y-55422890D01*
X145275890Y-55525292D01*
X145203482Y-55650708D01*
X145192212Y-55692765D01*
X144618627Y-55119180D01*
X144582755Y-55168555D01*
X144582754Y-55168556D01*
X144576764Y-55180313D01*
X144528788Y-55231108D01*
X144460967Y-55247901D01*
X144394832Y-55225361D01*
X144355795Y-55180308D01*
X144355760Y-55180239D01*
X144349670Y-55168286D01*
X144227035Y-54999495D01*
X144079505Y-54851965D01*
X144061407Y-54838816D01*
X144018744Y-54783488D01*
X144012765Y-54713874D01*
X144045371Y-54652079D01*
X144106210Y-54617722D01*
X144134295Y-54614500D01*
X144849932Y-54614500D01*
X144916971Y-54634185D01*
G37*
%TD.AperFunction*%
%TD*%
M02*
