%TF.GenerationSoftware,KiCad,Pcbnew,9.0.2*%
%TF.CreationDate,2025-11-02T21:54:50+09:00*%
%TF.ProjectId,kicad2026_3_,6b696361-6432-4303-9236-5f338e2e6b69,rev?*%
%TF.SameCoordinates,Original*%
%TF.FileFunction,Soldermask,Bot*%
%TF.FilePolarity,Negative*%
%FSLAX46Y46*%
G04 Gerber Fmt 4.6, Leading zero omitted, Abs format (unit mm)*
G04 Created by KiCad (PCBNEW 9.0.2) date 2025-11-02 21:54:50*
%MOMM*%
%LPD*%
G01*
G04 APERTURE LIST*
G04 Aperture macros list*
%AMRoundRect*
0 Rectangle with rounded corners*
0 $1 Rounding radius*
0 $2 $3 $4 $5 $6 $7 $8 $9 X,Y pos of 4 corners*
0 Add a 4 corners polygon primitive as box body*
4,1,4,$2,$3,$4,$5,$6,$7,$8,$9,$2,$3,0*
0 Add four circle primitives for the rounded corners*
1,1,$1+$1,$2,$3*
1,1,$1+$1,$4,$5*
1,1,$1+$1,$6,$7*
1,1,$1+$1,$8,$9*
0 Add four rect primitives between the rounded corners*
20,1,$1+$1,$2,$3,$4,$5,0*
20,1,$1+$1,$4,$5,$6,$7,0*
20,1,$1+$1,$6,$7,$8,$9,0*
20,1,$1+$1,$8,$9,$2,$3,0*%
G04 Aperture macros list end*
%ADD10R,1.700000X1.700000*%
%ADD11C,1.700000*%
%ADD12R,1.650000X1.650000*%
%ADD13C,1.650000*%
%ADD14C,1.600000*%
%ADD15R,1.400000X1.400000*%
%ADD16C,1.400000*%
%ADD17R,2.775000X2.775000*%
%ADD18C,2.775000*%
%ADD19RoundRect,0.249999X0.850001X0.850001X-0.850001X0.850001X-0.850001X-0.850001X0.850001X-0.850001X0*%
%ADD20C,2.200000*%
G04 APERTURE END LIST*
D10*
%TO.C,D3*%
X146070000Y-61443000D03*
D11*
X148610000Y-61443000D03*
%TD*%
D12*
%TO.C,J2*%
X120048000Y-55880000D03*
D13*
X122548000Y-55880000D03*
X125048000Y-55880000D03*
X127548000Y-55880000D03*
X130048000Y-55880000D03*
%TD*%
D10*
%TO.C,J15*%
X133848000Y-61722000D03*
D11*
X131308000Y-61722000D03*
X128768000Y-61722000D03*
X126228000Y-61722000D03*
%TD*%
D14*
%TO.C,R4*%
X132080000Y-79502000D03*
X142240000Y-79502000D03*
%TD*%
D10*
%TO.C,J12*%
X120650000Y-90678000D03*
D11*
X123190000Y-90678000D03*
%TD*%
D10*
%TO.C,D5*%
X151638000Y-57404000D03*
D11*
X151638000Y-54864000D03*
%TD*%
D15*
%TO.C,J1*%
X148518000Y-86863000D03*
D16*
X148518000Y-89363000D03*
%TD*%
D10*
%TO.C,D2*%
X141453000Y-90912000D03*
D11*
X141453000Y-88372000D03*
%TD*%
D14*
%TO.C,R5*%
X119380000Y-83312000D03*
X129540000Y-83312000D03*
%TD*%
%TO.C,R1*%
X119380000Y-66548000D03*
X129540000Y-66548000D03*
%TD*%
%TO.C,R3*%
X119126000Y-74930000D03*
X129286000Y-74930000D03*
%TD*%
D12*
%TO.C,J3*%
X135716000Y-55863000D03*
D13*
X138216000Y-55863000D03*
X140716000Y-55863000D03*
X143216000Y-55863000D03*
X145716000Y-55863000D03*
%TD*%
D10*
%TO.C,D4*%
X154940000Y-61468000D03*
D11*
X152400000Y-61468000D03*
%TD*%
D17*
%TO.C,SW2*%
X150368000Y-68706000D03*
D18*
X150368000Y-73406000D03*
X150368000Y-78106000D03*
%TD*%
D10*
%TO.C,D6*%
X155194000Y-57404000D03*
D11*
X155194000Y-54864000D03*
%TD*%
D19*
%TO.C,D7*%
X140970000Y-70104000D03*
D20*
X133350000Y-70104000D03*
%TD*%
M02*
