%TF.GenerationSoftware,KiCad,Pcbnew,9.0.2*%
%TF.CreationDate,2025-11-02T21:54:50+09:00*%
%TF.ProjectId,kicad2026_3_,6b696361-6432-4303-9236-5f338e2e6b69,rev?*%
%TF.SameCoordinates,Original*%
%TF.FileFunction,Copper,L2,Bot*%
%TF.FilePolarity,Positive*%
%FSLAX46Y46*%
G04 Gerber Fmt 4.6, Leading zero omitted, Abs format (unit mm)*
G04 Created by KiCad (PCBNEW 9.0.2) date 2025-11-02 21:54:50*
%MOMM*%
%LPD*%
G01*
G04 APERTURE LIST*
G04 Aperture macros list*
%AMRoundRect*
0 Rectangle with rounded corners*
0 $1 Rounding radius*
0 $2 $3 $4 $5 $6 $7 $8 $9 X,Y pos of 4 corners*
0 Add a 4 corners polygon primitive as box body*
4,1,4,$2,$3,$4,$5,$6,$7,$8,$9,$2,$3,0*
0 Add four circle primitives for the rounded corners*
1,1,$1+$1,$2,$3*
1,1,$1+$1,$4,$5*
1,1,$1+$1,$6,$7*
1,1,$1+$1,$8,$9*
0 Add four rect primitives between the rounded corners*
20,1,$1+$1,$2,$3,$4,$5,0*
20,1,$1+$1,$4,$5,$6,$7,0*
20,1,$1+$1,$6,$7,$8,$9,0*
20,1,$1+$1,$8,$9,$2,$3,0*%
G04 Aperture macros list end*
%TA.AperFunction,ComponentPad*%
%ADD10R,1.700000X1.700000*%
%TD*%
%TA.AperFunction,ComponentPad*%
%ADD11C,1.700000*%
%TD*%
%TA.AperFunction,ComponentPad*%
%ADD12R,1.650000X1.650000*%
%TD*%
%TA.AperFunction,ComponentPad*%
%ADD13C,1.650000*%
%TD*%
%TA.AperFunction,ComponentPad*%
%ADD14C,1.600000*%
%TD*%
%TA.AperFunction,ComponentPad*%
%ADD15R,1.400000X1.400000*%
%TD*%
%TA.AperFunction,ComponentPad*%
%ADD16C,1.400000*%
%TD*%
%TA.AperFunction,ComponentPad*%
%ADD17R,2.775000X2.775000*%
%TD*%
%TA.AperFunction,ComponentPad*%
%ADD18C,2.775000*%
%TD*%
%TA.AperFunction,ComponentPad*%
%ADD19RoundRect,0.249999X0.850001X0.850001X-0.850001X0.850001X-0.850001X-0.850001X0.850001X-0.850001X0*%
%TD*%
%TA.AperFunction,ComponentPad*%
%ADD20C,2.200000*%
%TD*%
%TA.AperFunction,ViaPad*%
%ADD21C,0.600000*%
%TD*%
%TA.AperFunction,Conductor*%
%ADD22C,0.200000*%
%TD*%
%TA.AperFunction,Conductor*%
%ADD23C,1.500000*%
%TD*%
%TA.AperFunction,Conductor*%
%ADD24C,2.000000*%
%TD*%
G04 APERTURE END LIST*
D10*
%TO.P,D3,1,K*%
%TO.N,Net-(D3-K)*%
X146070000Y-61443000D03*
D11*
%TO.P,D3,2,A*%
%TO.N,LED4*%
X148610000Y-61443000D03*
%TD*%
D12*
%TO.P,J2,1,Pin_1*%
%TO.N,7.4V*%
X120048000Y-55880000D03*
D13*
%TO.P,J2,2,Pin_2*%
%TO.N,5V*%
X122548000Y-55880000D03*
%TO.P,J2,3,Pin_3*%
%TO.N,SCL3*%
X125048000Y-55880000D03*
%TO.P,J2,4,Pin_4*%
%TO.N,SDA3*%
X127548000Y-55880000D03*
%TO.P,J2,5,Pin_5*%
%TO.N,GND*%
X130048000Y-55880000D03*
%TD*%
D10*
%TO.P,J15,1,Pin_1*%
%TO.N,SDA3*%
X133848000Y-61722000D03*
D11*
%TO.P,J15,2,Pin_2*%
%TO.N,SCL3*%
X131308000Y-61722000D03*
%TO.P,J15,3,Pin_3*%
%TO.N,5V*%
X128768000Y-61722000D03*
%TO.P,J15,4,Pin_4*%
%TO.N,GND*%
X126228000Y-61722000D03*
%TD*%
D14*
%TO.P,R4,1*%
%TO.N,Net-(D4-K)*%
X132080000Y-79502000D03*
%TO.P,R4,2*%
%TO.N,GND*%
X142240000Y-79502000D03*
%TD*%
D10*
%TO.P,J12,1,Pin_1*%
%TO.N,GND*%
X120650000Y-90678000D03*
D11*
%TO.P,J12,2,Pin_2*%
%TO.N,Net-(D7-A)*%
X123190000Y-90678000D03*
%TD*%
D10*
%TO.P,D5,1,K*%
%TO.N,Net-(D5-K)*%
X151638000Y-57404000D03*
D11*
%TO.P,D5,2,A*%
%TO.N,LED2*%
X151638000Y-54864000D03*
%TD*%
D15*
%TO.P,J1,1,Pin_1*%
%TO.N,Net-(D7-A)*%
X148518000Y-86863000D03*
D16*
%TO.P,J1,2,Pin_2*%
%TO.N,GND*%
X148518000Y-89363000D03*
%TD*%
D10*
%TO.P,D2,1,K*%
%TO.N,GND*%
X141453000Y-90912000D03*
D11*
%TO.P,D2,2,A*%
%TO.N,5V*%
X141453000Y-88372000D03*
%TD*%
D14*
%TO.P,R5,1*%
%TO.N,Net-(D3-K)*%
X119380000Y-83312000D03*
%TO.P,R5,2*%
%TO.N,GND*%
X129540000Y-83312000D03*
%TD*%
%TO.P,R1,1*%
%TO.N,GND*%
X119380000Y-66548000D03*
%TO.P,R1,2*%
%TO.N,Net-(D6-K)*%
X129540000Y-66548000D03*
%TD*%
%TO.P,R3,1*%
%TO.N,GND*%
X119126000Y-74930000D03*
%TO.P,R3,2*%
%TO.N,Net-(D5-K)*%
X129286000Y-74930000D03*
%TD*%
D12*
%TO.P,J3,1,Pin_1*%
%TO.N,LED1*%
X135716000Y-55863000D03*
D13*
%TO.P,J3,2,Pin_2*%
%TO.N,LED2*%
X138216000Y-55863000D03*
%TO.P,J3,3,Pin_3*%
%TO.N,LED3*%
X140716000Y-55863000D03*
%TO.P,J3,4,Pin_4*%
%TO.N,LED4*%
X143216000Y-55863000D03*
%TO.P,J3,5,Pin_5*%
%TO.N,GND*%
X145716000Y-55863000D03*
%TD*%
D10*
%TO.P,D4,1,K*%
%TO.N,Net-(D4-K)*%
X154940000Y-61468000D03*
D11*
%TO.P,D4,2,A*%
%TO.N,LED3*%
X152400000Y-61468000D03*
%TD*%
D17*
%TO.P,SW2,1,A*%
%TO.N,7.4V*%
X150368000Y-68706000D03*
D18*
%TO.P,SW2,2,B*%
%TO.N,+BATT*%
X150368000Y-73406000D03*
%TO.P,SW2,3,C*%
%TO.N,unconnected-(SW2-C-Pad3)*%
X150368000Y-78106000D03*
%TD*%
D10*
%TO.P,D6,1,K*%
%TO.N,Net-(D6-K)*%
X155194000Y-57404000D03*
D11*
%TO.P,D6,2,A*%
%TO.N,LED1*%
X155194000Y-54864000D03*
%TD*%
D19*
%TO.P,D7,1,K*%
%TO.N,+BATT*%
X140970000Y-70104000D03*
D20*
%TO.P,D7,2,A*%
%TO.N,Net-(D7-A)*%
X133350000Y-70104000D03*
%TD*%
D21*
%TO.N,GND*%
X134874000Y-54102000D03*
%TO.N,Net-(D3-K)*%
X146304000Y-63194000D03*
%TO.N,Net-(D4-K)*%
X145034000Y-75946000D03*
%TO.N,Net-(D5-K)*%
X145092661Y-66743339D03*
%TO.N,Net-(D7-A)*%
X134112000Y-73914000D03*
%TD*%
D22*
%TO.N,GND*%
X143955000Y-54102000D02*
X134874000Y-54102000D01*
X145716000Y-55863000D02*
X143955000Y-54102000D01*
D23*
%TO.N,5V*%
X122548000Y-56986999D02*
X125482001Y-59921000D01*
X128768000Y-60519919D02*
X128768000Y-61722000D01*
X128169081Y-59921000D02*
X128768000Y-60519919D01*
X122548000Y-55880000D02*
X122548000Y-56986999D01*
X125482001Y-59921000D02*
X128169081Y-59921000D01*
D22*
%TO.N,LED4*%
X148610000Y-61443000D02*
X147365000Y-60198000D01*
X147365000Y-60012000D02*
X143216000Y-55863000D01*
X147365000Y-60198000D02*
X147365000Y-60012000D01*
%TO.N,Net-(D3-K)*%
X119380000Y-83312000D02*
X122461050Y-83312000D01*
X146558000Y-66127943D02*
X146558000Y-64770000D01*
X138428711Y-67344339D02*
X145341604Y-67344339D01*
X122461050Y-83312000D02*
X138428711Y-67344339D01*
X146558000Y-64770000D02*
X146558000Y-63448000D01*
X146558000Y-63448000D02*
X146304000Y-63194000D01*
X145341604Y-67344339D02*
X146558000Y-66127943D01*
%TO.N,Net-(D4-K)*%
X145034000Y-75946000D02*
X135636000Y-75946000D01*
X135636000Y-75946000D02*
X132080000Y-79502000D01*
%TO.N,Net-(D5-K)*%
X134729347Y-66743339D02*
X129286000Y-72186686D01*
X129286000Y-72186686D02*
X129286000Y-74930000D01*
X145092661Y-66743339D02*
X134729347Y-66743339D01*
%TO.N,Net-(D6-K)*%
X149086760Y-62594000D02*
X135272000Y-62594000D01*
X154276760Y-57404000D02*
X149086760Y-62594000D01*
X155194000Y-57404000D02*
X154276760Y-57404000D01*
X131318000Y-66548000D02*
X129540000Y-66548000D01*
X135272000Y-62594000D02*
X131318000Y-66548000D01*
D24*
%TO.N,Net-(D7-A)*%
X126492000Y-81788000D02*
X132901790Y-75378210D01*
X126746000Y-87122000D02*
X128270000Y-85598000D01*
D22*
X126492000Y-82804000D02*
X126492000Y-81788000D01*
D24*
X128270000Y-85598000D02*
X126492000Y-83820000D01*
D22*
X132901790Y-75378210D02*
X132901790Y-75124210D01*
D24*
X126492000Y-83820000D02*
X126492000Y-82804000D01*
X123190000Y-90678000D02*
X126746000Y-87122000D01*
X132901790Y-75124210D02*
X134112000Y-73914000D01*
D22*
%TO.N,SCL3*%
X125048000Y-55880000D02*
X125730000Y-55880000D01*
X131308000Y-61458000D02*
X131308000Y-61722000D01*
X125730000Y-55880000D02*
X131308000Y-61458000D01*
%TO.N,SDA3*%
X133390000Y-61722000D02*
X133848000Y-61722000D01*
X127548000Y-55880000D02*
X133390000Y-61722000D01*
%TD*%
%TA.AperFunction,Conductor*%
%TO.N,GND*%
G36*
X151265298Y-53352185D02*
G01*
X151311053Y-53404989D01*
X151320997Y-53474147D01*
X151291972Y-53537703D01*
X151236577Y-53574430D01*
X151119588Y-53612443D01*
X151119585Y-53612444D01*
X150930179Y-53708951D01*
X150758213Y-53833890D01*
X150607890Y-53984213D01*
X150482951Y-54156179D01*
X150386444Y-54345585D01*
X150320753Y-54547760D01*
X150289303Y-54746330D01*
X150287500Y-54757713D01*
X150287500Y-54970287D01*
X150297534Y-55033644D01*
X150318902Y-55168555D01*
X150320754Y-55180243D01*
X150377332Y-55354372D01*
X150386444Y-55382414D01*
X150482951Y-55571820D01*
X150607890Y-55743786D01*
X150721430Y-55857326D01*
X150754915Y-55918649D01*
X150749931Y-55988341D01*
X150708059Y-56044274D01*
X150677083Y-56061189D01*
X150545669Y-56110203D01*
X150545664Y-56110206D01*
X150430455Y-56196452D01*
X150430452Y-56196455D01*
X150344206Y-56311664D01*
X150344202Y-56311671D01*
X150293908Y-56446517D01*
X150290569Y-56477579D01*
X150287501Y-56506123D01*
X150287500Y-56506135D01*
X150287500Y-58301870D01*
X150287501Y-58301876D01*
X150293908Y-58361483D01*
X150344202Y-58496328D01*
X150344206Y-58496335D01*
X150430452Y-58611544D01*
X150430455Y-58611547D01*
X150545664Y-58697793D01*
X150545671Y-58697797D01*
X150680517Y-58748091D01*
X150680516Y-58748091D01*
X150687444Y-58748835D01*
X150740127Y-58754500D01*
X151777662Y-58754499D01*
X151844701Y-58774183D01*
X151890456Y-58826987D01*
X151900400Y-58896146D01*
X151871375Y-58959702D01*
X151865343Y-58966180D01*
X149997557Y-60833966D01*
X149936234Y-60867451D01*
X149866542Y-60862467D01*
X149810609Y-60820595D01*
X149799391Y-60802580D01*
X149796781Y-60797457D01*
X149765051Y-60735184D01*
X149757023Y-60724134D01*
X149640109Y-60563213D01*
X149489786Y-60412890D01*
X149317820Y-60287951D01*
X149128414Y-60191444D01*
X149128413Y-60191443D01*
X149128412Y-60191443D01*
X148926243Y-60125754D01*
X148926241Y-60125753D01*
X148926240Y-60125753D01*
X148764957Y-60100208D01*
X148716287Y-60092500D01*
X148503713Y-60092500D01*
X148475006Y-60097046D01*
X148293757Y-60125753D01*
X148251473Y-60139492D01*
X148236260Y-60139926D01*
X148222003Y-60145244D01*
X148202048Y-60140903D01*
X148181632Y-60141486D01*
X148167545Y-60133397D01*
X148153730Y-60130392D01*
X148125476Y-60109241D01*
X147994968Y-59978733D01*
X147962875Y-59923147D01*
X147924577Y-59780216D01*
X147924577Y-59780215D01*
X147881309Y-59705273D01*
X147845520Y-59643284D01*
X147733716Y-59531480D01*
X147729385Y-59527149D01*
X147729374Y-59527139D01*
X145601916Y-57399681D01*
X145568431Y-57338358D01*
X145573415Y-57268666D01*
X145615287Y-57212733D01*
X145680751Y-57188316D01*
X145689597Y-57188000D01*
X145820279Y-57188000D01*
X146026272Y-57155373D01*
X146224627Y-57090924D01*
X146410451Y-56996240D01*
X146459818Y-56960372D01*
X146459818Y-56960371D01*
X145886233Y-56386787D01*
X145928292Y-56375518D01*
X146053708Y-56303110D01*
X146156110Y-56200708D01*
X146228518Y-56075292D01*
X146239787Y-56033234D01*
X146813371Y-56606818D01*
X146813372Y-56606818D01*
X146849240Y-56557451D01*
X146943924Y-56371627D01*
X147008373Y-56173272D01*
X147041000Y-55967279D01*
X147041000Y-55758720D01*
X147008373Y-55552727D01*
X146943924Y-55354372D01*
X146849244Y-55168556D01*
X146849236Y-55168543D01*
X146813372Y-55119180D01*
X146813371Y-55119179D01*
X146239787Y-55692764D01*
X146228518Y-55650708D01*
X146156110Y-55525292D01*
X146053708Y-55422890D01*
X145928292Y-55350482D01*
X145886233Y-55339212D01*
X146459819Y-54765627D01*
X146410451Y-54729759D01*
X146224627Y-54635075D01*
X146026272Y-54570626D01*
X145820279Y-54538000D01*
X145611721Y-54538000D01*
X145405727Y-54570626D01*
X145207372Y-54635075D01*
X145021552Y-54729757D01*
X144972180Y-54765627D01*
X145545766Y-55339212D01*
X145503708Y-55350482D01*
X145378292Y-55422890D01*
X145275890Y-55525292D01*
X145203482Y-55650708D01*
X145192212Y-55692766D01*
X144618627Y-55119180D01*
X144582755Y-55168555D01*
X144582754Y-55168556D01*
X144576764Y-55180313D01*
X144528788Y-55231108D01*
X144460967Y-55247901D01*
X144394832Y-55225361D01*
X144355795Y-55180308D01*
X144355760Y-55180239D01*
X144349670Y-55168286D01*
X144227035Y-54999495D01*
X144079505Y-54851965D01*
X143910714Y-54729330D01*
X143724820Y-54634612D01*
X143526389Y-54570137D01*
X143320324Y-54537500D01*
X143320319Y-54537500D01*
X143111681Y-54537500D01*
X143111676Y-54537500D01*
X142905610Y-54570137D01*
X142707179Y-54634612D01*
X142521285Y-54729330D01*
X142352493Y-54851966D01*
X142204966Y-54999493D01*
X142082330Y-55168286D01*
X142076484Y-55179759D01*
X142028508Y-55230554D01*
X141960687Y-55247348D01*
X141894553Y-55224809D01*
X141855516Y-55179759D01*
X141854303Y-55177380D01*
X141849670Y-55168286D01*
X141727035Y-54999495D01*
X141579505Y-54851965D01*
X141410714Y-54729330D01*
X141224820Y-54634612D01*
X141026389Y-54570137D01*
X140820324Y-54537500D01*
X140820319Y-54537500D01*
X140611681Y-54537500D01*
X140611676Y-54537500D01*
X140405610Y-54570137D01*
X140207179Y-54634612D01*
X140021285Y-54729330D01*
X139852493Y-54851966D01*
X139704966Y-54999493D01*
X139582330Y-55168286D01*
X139576484Y-55179759D01*
X139528508Y-55230554D01*
X139460687Y-55247348D01*
X139394553Y-55224809D01*
X139355516Y-55179759D01*
X139354303Y-55177380D01*
X139349670Y-55168286D01*
X139227035Y-54999495D01*
X139079505Y-54851965D01*
X138910714Y-54729330D01*
X138724820Y-54634612D01*
X138526389Y-54570137D01*
X138320324Y-54537500D01*
X138320319Y-54537500D01*
X138111681Y-54537500D01*
X138111676Y-54537500D01*
X137905610Y-54570137D01*
X137707179Y-54634612D01*
X137521285Y-54729330D01*
X137352496Y-54851964D01*
X137236411Y-54968049D01*
X137175088Y-55001533D01*
X137105396Y-54996549D01*
X137049463Y-54954677D01*
X137032548Y-54923699D01*
X136984798Y-54795673D01*
X136984793Y-54795664D01*
X136898547Y-54680455D01*
X136898544Y-54680452D01*
X136783335Y-54594206D01*
X136783328Y-54594202D01*
X136648482Y-54543908D01*
X136648483Y-54543908D01*
X136588883Y-54537501D01*
X136588881Y-54537500D01*
X136588873Y-54537500D01*
X136588864Y-54537500D01*
X134843129Y-54537500D01*
X134843123Y-54537501D01*
X134783516Y-54543908D01*
X134648671Y-54594202D01*
X134648664Y-54594206D01*
X134533455Y-54680452D01*
X134533452Y-54680455D01*
X134447206Y-54795664D01*
X134447202Y-54795671D01*
X134396908Y-54930517D01*
X134390501Y-54990116D01*
X134390500Y-54990135D01*
X134390500Y-56735870D01*
X134390501Y-56735876D01*
X134396908Y-56795483D01*
X134447202Y-56930328D01*
X134447206Y-56930335D01*
X134533452Y-57045544D01*
X134533455Y-57045547D01*
X134648664Y-57131793D01*
X134648671Y-57131797D01*
X134783517Y-57182091D01*
X134783516Y-57182091D01*
X134790444Y-57182835D01*
X134843127Y-57188500D01*
X136588872Y-57188499D01*
X136648483Y-57182091D01*
X136783331Y-57131796D01*
X136898546Y-57045546D01*
X136984796Y-56930331D01*
X137032548Y-56802298D01*
X137074418Y-56746366D01*
X137139882Y-56721948D01*
X137208156Y-56736799D01*
X137236411Y-56757951D01*
X137352495Y-56874035D01*
X137521286Y-56996670D01*
X137553807Y-57013240D01*
X137707179Y-57091387D01*
X137707181Y-57091387D01*
X137707184Y-57091389D01*
X137792088Y-57118976D01*
X137905610Y-57155862D01*
X138111676Y-57188500D01*
X138111681Y-57188500D01*
X138320324Y-57188500D01*
X138526389Y-57155862D01*
X138564761Y-57143394D01*
X138724816Y-57091389D01*
X138910714Y-56996670D01*
X139079505Y-56874035D01*
X139227035Y-56726505D01*
X139349670Y-56557714D01*
X139355515Y-56546243D01*
X139403489Y-56495447D01*
X139471310Y-56478651D01*
X139537445Y-56501188D01*
X139576485Y-56546243D01*
X139582328Y-56557712D01*
X139594490Y-56574451D01*
X139704965Y-56726505D01*
X139852495Y-56874035D01*
X140021286Y-56996670D01*
X140053807Y-57013240D01*
X140207179Y-57091387D01*
X140207181Y-57091387D01*
X140207184Y-57091389D01*
X140292088Y-57118976D01*
X140405610Y-57155862D01*
X140611676Y-57188500D01*
X140611681Y-57188500D01*
X140820324Y-57188500D01*
X141026389Y-57155862D01*
X141064761Y-57143394D01*
X141224816Y-57091389D01*
X141410714Y-56996670D01*
X141579505Y-56874035D01*
X141727035Y-56726505D01*
X141849670Y-56557714D01*
X141855515Y-56546243D01*
X141903489Y-56495447D01*
X141971310Y-56478651D01*
X142037445Y-56501188D01*
X142076485Y-56546243D01*
X142082328Y-56557712D01*
X142094490Y-56574451D01*
X142204965Y-56726505D01*
X142352495Y-56874035D01*
X142521286Y-56996670D01*
X142553807Y-57013240D01*
X142707179Y-57091387D01*
X142707181Y-57091387D01*
X142707184Y-57091389D01*
X142792088Y-57118976D01*
X142905610Y-57155862D01*
X143111676Y-57188500D01*
X143111681Y-57188500D01*
X143320324Y-57188500D01*
X143422142Y-57172373D01*
X143526389Y-57155862D01*
X143554682Y-57146668D01*
X143624522Y-57144672D01*
X143680683Y-57176918D01*
X146384584Y-59880819D01*
X146418069Y-59942142D01*
X146413085Y-60011834D01*
X146371213Y-60067767D01*
X146305749Y-60092184D01*
X146296903Y-60092500D01*
X145172129Y-60092500D01*
X145172123Y-60092501D01*
X145112516Y-60098908D01*
X144977671Y-60149202D01*
X144977664Y-60149206D01*
X144862455Y-60235452D01*
X144862452Y-60235455D01*
X144776206Y-60350664D01*
X144776202Y-60350671D01*
X144725908Y-60485517D01*
X144719501Y-60545116D01*
X144719500Y-60545127D01*
X144719500Y-61260349D01*
X144719501Y-61869500D01*
X144699816Y-61936539D01*
X144647013Y-61982294D01*
X144595501Y-61993500D01*
X135322500Y-61993500D01*
X135255461Y-61973815D01*
X135209706Y-61921011D01*
X135198500Y-61869500D01*
X135198499Y-60824129D01*
X135198498Y-60824123D01*
X135196182Y-60802580D01*
X135192091Y-60764517D01*
X135141796Y-60629669D01*
X135141795Y-60629668D01*
X135141793Y-60629664D01*
X135055547Y-60514455D01*
X135055544Y-60514452D01*
X134940335Y-60428206D01*
X134940328Y-60428202D01*
X134805482Y-60377908D01*
X134805483Y-60377908D01*
X134745883Y-60371501D01*
X134745881Y-60371500D01*
X134745873Y-60371500D01*
X134745864Y-60371500D01*
X132950121Y-60371500D01*
X132947049Y-60371665D01*
X132879056Y-60355582D01*
X132852758Y-60335522D01*
X129933917Y-57416681D01*
X129900432Y-57355358D01*
X129905416Y-57285666D01*
X129947288Y-57229733D01*
X130012752Y-57205316D01*
X130021598Y-57205000D01*
X130152279Y-57205000D01*
X130358272Y-57172373D01*
X130556627Y-57107924D01*
X130742451Y-57013240D01*
X130791818Y-56977372D01*
X130791818Y-56977371D01*
X130218233Y-56403787D01*
X130260292Y-56392518D01*
X130385708Y-56320110D01*
X130488110Y-56217708D01*
X130560518Y-56092292D01*
X130571787Y-56050234D01*
X131145371Y-56623818D01*
X131145372Y-56623818D01*
X131181240Y-56574451D01*
X131275924Y-56388627D01*
X131340373Y-56190272D01*
X131373000Y-55984279D01*
X131373000Y-55775720D01*
X131340373Y-55569727D01*
X131275924Y-55371372D01*
X131181244Y-55185556D01*
X131181236Y-55185543D01*
X131145372Y-55136180D01*
X131145371Y-55136179D01*
X130571787Y-55709764D01*
X130560518Y-55667708D01*
X130488110Y-55542292D01*
X130385708Y-55439890D01*
X130260292Y-55367482D01*
X130218233Y-55356212D01*
X130791819Y-54782627D01*
X130742451Y-54746759D01*
X130556627Y-54652075D01*
X130358272Y-54587626D01*
X130152279Y-54555000D01*
X129943721Y-54555000D01*
X129737727Y-54587626D01*
X129539372Y-54652075D01*
X129353552Y-54746757D01*
X129304180Y-54782627D01*
X129877766Y-55356212D01*
X129835708Y-55367482D01*
X129710292Y-55439890D01*
X129607890Y-55542292D01*
X129535482Y-55667708D01*
X129524212Y-55709766D01*
X128950627Y-55136180D01*
X128914755Y-55185555D01*
X128914754Y-55185556D01*
X128908764Y-55197313D01*
X128860788Y-55248108D01*
X128792967Y-55264901D01*
X128726832Y-55242361D01*
X128687795Y-55197308D01*
X128681670Y-55185286D01*
X128559035Y-55016495D01*
X128411505Y-54868965D01*
X128242714Y-54746330D01*
X128056820Y-54651612D01*
X127858389Y-54587137D01*
X127652324Y-54554500D01*
X127652319Y-54554500D01*
X127443681Y-54554500D01*
X127443676Y-54554500D01*
X127237610Y-54587137D01*
X127039179Y-54651612D01*
X126853285Y-54746330D01*
X126684493Y-54868966D01*
X126536966Y-55016493D01*
X126414330Y-55185286D01*
X126408484Y-55196759D01*
X126360508Y-55247554D01*
X126292687Y-55264348D01*
X126226553Y-55241809D01*
X126187516Y-55196759D01*
X126186303Y-55194380D01*
X126181670Y-55185286D01*
X126059035Y-55016495D01*
X125911505Y-54868965D01*
X125742714Y-54746330D01*
X125556820Y-54651612D01*
X125358389Y-54587137D01*
X125152324Y-54554500D01*
X125152319Y-54554500D01*
X124943681Y-54554500D01*
X124943676Y-54554500D01*
X124737610Y-54587137D01*
X124539179Y-54651612D01*
X124353285Y-54746330D01*
X124184493Y-54868966D01*
X124036966Y-55016493D01*
X123914330Y-55185286D01*
X123908484Y-55196759D01*
X123860508Y-55247554D01*
X123792687Y-55264348D01*
X123726553Y-55241809D01*
X123687516Y-55196759D01*
X123686303Y-55194380D01*
X123681670Y-55185286D01*
X123559035Y-55016495D01*
X123411505Y-54868965D01*
X123242714Y-54746330D01*
X123056820Y-54651612D01*
X122858389Y-54587137D01*
X122652324Y-54554500D01*
X122652319Y-54554500D01*
X122443681Y-54554500D01*
X122443676Y-54554500D01*
X122237610Y-54587137D01*
X122039179Y-54651612D01*
X121853285Y-54746330D01*
X121684496Y-54868964D01*
X121568411Y-54985049D01*
X121507088Y-55018533D01*
X121437396Y-55013549D01*
X121381463Y-54971677D01*
X121364548Y-54940699D01*
X121316798Y-54812673D01*
X121316793Y-54812664D01*
X121230547Y-54697455D01*
X121230544Y-54697452D01*
X121115335Y-54611206D01*
X121115328Y-54611202D01*
X120980482Y-54560908D01*
X120980483Y-54560908D01*
X120920883Y-54554501D01*
X120920881Y-54554500D01*
X120920873Y-54554500D01*
X120920864Y-54554500D01*
X119175129Y-54554500D01*
X119175123Y-54554501D01*
X119115516Y-54560908D01*
X118980671Y-54611202D01*
X118980664Y-54611206D01*
X118865455Y-54697452D01*
X118865452Y-54697455D01*
X118779206Y-54812664D01*
X118779202Y-54812671D01*
X118728908Y-54947517D01*
X118722501Y-55007116D01*
X118722500Y-55007135D01*
X118722500Y-56752870D01*
X118722501Y-56752876D01*
X118728908Y-56812483D01*
X118779202Y-56947328D01*
X118779206Y-56947335D01*
X118865452Y-57062544D01*
X118865455Y-57062547D01*
X118980664Y-57148793D01*
X118980671Y-57148797D01*
X119115517Y-57199091D01*
X119115516Y-57199091D01*
X119122444Y-57199835D01*
X119175127Y-57205500D01*
X120920872Y-57205499D01*
X120980483Y-57199091D01*
X121115331Y-57148796D01*
X121122547Y-57143393D01*
X121188011Y-57118976D01*
X121256284Y-57133827D01*
X121305690Y-57183231D01*
X121319332Y-57223262D01*
X121328290Y-57279825D01*
X121389117Y-57467029D01*
X121432672Y-57552509D01*
X121478476Y-57642404D01*
X121594172Y-57801645D01*
X124667355Y-60874828D01*
X124826596Y-60990524D01*
X124921705Y-61038984D01*
X124972501Y-61086958D01*
X124989296Y-61154779D01*
X124977717Y-61198846D01*
X124978769Y-61199282D01*
X124976905Y-61203781D01*
X124911242Y-61405869D01*
X124911242Y-61405872D01*
X124878000Y-61615753D01*
X124878000Y-61828246D01*
X124911242Y-62038127D01*
X124911242Y-62038130D01*
X124976904Y-62240217D01*
X125073375Y-62429550D01*
X125112728Y-62483716D01*
X125745036Y-61851407D01*
X125762075Y-61914993D01*
X125827901Y-62029007D01*
X125920993Y-62122099D01*
X126035007Y-62187925D01*
X126098590Y-62204962D01*
X125466282Y-62837269D01*
X125466282Y-62837270D01*
X125520449Y-62876624D01*
X125709782Y-62973095D01*
X125911870Y-63038757D01*
X126121754Y-63072000D01*
X126334246Y-63072000D01*
X126544127Y-63038757D01*
X126544130Y-63038757D01*
X126746217Y-62973095D01*
X126935554Y-62876622D01*
X126989716Y-62837270D01*
X126989717Y-62837270D01*
X126357408Y-62204962D01*
X126420993Y-62187925D01*
X126535007Y-62122099D01*
X126628099Y-62029007D01*
X126693925Y-61914993D01*
X126710962Y-61851409D01*
X127343270Y-62483717D01*
X127343270Y-62483716D01*
X127382622Y-62429555D01*
X127387232Y-62420507D01*
X127435205Y-62369709D01*
X127503025Y-62352912D01*
X127569161Y-62375447D01*
X127608204Y-62420504D01*
X127612949Y-62429817D01*
X127737890Y-62601786D01*
X127888213Y-62752109D01*
X128060179Y-62877048D01*
X128060181Y-62877049D01*
X128060184Y-62877051D01*
X128249588Y-62973557D01*
X128451757Y-63039246D01*
X128661713Y-63072500D01*
X128661714Y-63072500D01*
X128874286Y-63072500D01*
X128874287Y-63072500D01*
X129084243Y-63039246D01*
X129286412Y-62973557D01*
X129475816Y-62877051D01*
X129556405Y-62818500D01*
X129647786Y-62752109D01*
X129647788Y-62752106D01*
X129647792Y-62752104D01*
X129798104Y-62601792D01*
X129798106Y-62601788D01*
X129798109Y-62601786D01*
X129923048Y-62429820D01*
X129923050Y-62429817D01*
X129923051Y-62429816D01*
X129927514Y-62421054D01*
X129975488Y-62370259D01*
X130043308Y-62353463D01*
X130109444Y-62375999D01*
X130148486Y-62421056D01*
X130152951Y-62429820D01*
X130277890Y-62601786D01*
X130428213Y-62752109D01*
X130600179Y-62877048D01*
X130600181Y-62877049D01*
X130600184Y-62877051D01*
X130789588Y-62973557D01*
X130991757Y-63039246D01*
X131201713Y-63072500D01*
X131201714Y-63072500D01*
X131414286Y-63072500D01*
X131414287Y-63072500D01*
X131624243Y-63039246D01*
X131826412Y-62973557D01*
X132015816Y-62877051D01*
X132096405Y-62818500D01*
X132187784Y-62752110D01*
X132187784Y-62752109D01*
X132187792Y-62752104D01*
X132301329Y-62638566D01*
X132362648Y-62605084D01*
X132432340Y-62610068D01*
X132488274Y-62651939D01*
X132505189Y-62682917D01*
X132554202Y-62814328D01*
X132554206Y-62814335D01*
X132640452Y-62929544D01*
X132640455Y-62929547D01*
X132755664Y-63015793D01*
X132755671Y-63015797D01*
X132890517Y-63066091D01*
X132890516Y-63066091D01*
X132897444Y-63066835D01*
X132950127Y-63072500D01*
X133644903Y-63072499D01*
X133711941Y-63092183D01*
X133757696Y-63144987D01*
X133767640Y-63214146D01*
X133738615Y-63277702D01*
X133732583Y-63284180D01*
X131105584Y-65911181D01*
X131078656Y-65925884D01*
X131052838Y-65942477D01*
X131046637Y-65943368D01*
X131044261Y-65944666D01*
X131017903Y-65947500D01*
X130769602Y-65947500D01*
X130702563Y-65927815D01*
X130659117Y-65879795D01*
X130652287Y-65866390D01*
X130652285Y-65866387D01*
X130652284Y-65866385D01*
X130531971Y-65700786D01*
X130387213Y-65556028D01*
X130221613Y-65435715D01*
X130221612Y-65435714D01*
X130221610Y-65435713D01*
X130164653Y-65406691D01*
X130039223Y-65342781D01*
X129844534Y-65279522D01*
X129669995Y-65251878D01*
X129642352Y-65247500D01*
X129437648Y-65247500D01*
X129413329Y-65251351D01*
X129235465Y-65279522D01*
X129040776Y-65342781D01*
X128858386Y-65435715D01*
X128692786Y-65556028D01*
X128548028Y-65700786D01*
X128427715Y-65866386D01*
X128334781Y-66048776D01*
X128271522Y-66243465D01*
X128239500Y-66445648D01*
X128239500Y-66650351D01*
X128271522Y-66852534D01*
X128334781Y-67047223D01*
X128386385Y-67148500D01*
X128427585Y-67229359D01*
X128427715Y-67229613D01*
X128548028Y-67395213D01*
X128692786Y-67539971D01*
X128813226Y-67627474D01*
X128858390Y-67660287D01*
X128941905Y-67702840D01*
X129040776Y-67753218D01*
X129040778Y-67753218D01*
X129040781Y-67753220D01*
X129145137Y-67787127D01*
X129235465Y-67816477D01*
X129288387Y-67824859D01*
X129437648Y-67848500D01*
X129437649Y-67848500D01*
X129642351Y-67848500D01*
X129642352Y-67848500D01*
X129844534Y-67816477D01*
X130039219Y-67753220D01*
X130221610Y-67660287D01*
X130365811Y-67555520D01*
X130387213Y-67539971D01*
X130387215Y-67539968D01*
X130387219Y-67539966D01*
X130531966Y-67395219D01*
X130531968Y-67395215D01*
X130531971Y-67395213D01*
X130652284Y-67229614D01*
X130652285Y-67229613D01*
X130652287Y-67229610D01*
X130659117Y-67216204D01*
X130707091Y-67165409D01*
X130769602Y-67148500D01*
X131231331Y-67148500D01*
X131231347Y-67148501D01*
X131238943Y-67148501D01*
X131397054Y-67148501D01*
X131397057Y-67148501D01*
X131549785Y-67107577D01*
X131604185Y-67076169D01*
X131686716Y-67028520D01*
X131798520Y-66916716D01*
X131798520Y-66916714D01*
X131808724Y-66906511D01*
X131808727Y-66906506D01*
X135484416Y-63230819D01*
X135545739Y-63197334D01*
X135572097Y-63194500D01*
X145386152Y-63194500D01*
X145453191Y-63214185D01*
X145498946Y-63266989D01*
X145507769Y-63294308D01*
X145534261Y-63427491D01*
X145534264Y-63427501D01*
X145594602Y-63573172D01*
X145594609Y-63573185D01*
X145682210Y-63704288D01*
X145682213Y-63704292D01*
X145793708Y-63815787D01*
X145793711Y-63815789D01*
X145902392Y-63888407D01*
X145947196Y-63942017D01*
X145957500Y-63991508D01*
X145957500Y-65827844D01*
X145937815Y-65894883D01*
X145921181Y-65915525D01*
X145742171Y-66094535D01*
X145680848Y-66128020D01*
X145611156Y-66123036D01*
X145585599Y-66109956D01*
X145471846Y-66033948D01*
X145471833Y-66033941D01*
X145326162Y-65973603D01*
X145326150Y-65973600D01*
X145171506Y-65942839D01*
X145171503Y-65942839D01*
X145013819Y-65942839D01*
X145013816Y-65942839D01*
X144859171Y-65973600D01*
X144859159Y-65973603D01*
X144713488Y-66033941D01*
X144713475Y-66033948D01*
X144581786Y-66121941D01*
X144515108Y-66142819D01*
X144512895Y-66142839D01*
X134808404Y-66142839D01*
X134650290Y-66142839D01*
X134497562Y-66183762D01*
X134497561Y-66183762D01*
X134497559Y-66183763D01*
X134497556Y-66183764D01*
X134457314Y-66206999D01*
X134457312Y-66207000D01*
X134360637Y-66262814D01*
X134360629Y-66262820D01*
X128805481Y-71817968D01*
X128805479Y-71817971D01*
X128755361Y-71904780D01*
X128755359Y-71904782D01*
X128726425Y-71954895D01*
X128726424Y-71954896D01*
X128726423Y-71954901D01*
X128685499Y-72107629D01*
X128685499Y-72107631D01*
X128685499Y-72275732D01*
X128685500Y-72275745D01*
X128685500Y-73700397D01*
X128665815Y-73767436D01*
X128617800Y-73810879D01*
X128604389Y-73817712D01*
X128438786Y-73938028D01*
X128294028Y-74082786D01*
X128173715Y-74248386D01*
X128080781Y-74430776D01*
X128017522Y-74625465D01*
X127985500Y-74827648D01*
X127985500Y-75032351D01*
X128017522Y-75234534D01*
X128080781Y-75429223D01*
X128099256Y-75465481D01*
X128173585Y-75611359D01*
X128173715Y-75611613D01*
X128294028Y-75777213D01*
X128438786Y-75921971D01*
X128604385Y-76042284D01*
X128604387Y-76042285D01*
X128604390Y-76042287D01*
X128635912Y-76058348D01*
X128686708Y-76106322D01*
X128703503Y-76174143D01*
X128680966Y-76240278D01*
X128667298Y-76256514D01*
X122248634Y-82675181D01*
X122187311Y-82708666D01*
X122160953Y-82711500D01*
X120609602Y-82711500D01*
X120542563Y-82691815D01*
X120499117Y-82643795D01*
X120492284Y-82630385D01*
X120371971Y-82464786D01*
X120227213Y-82320028D01*
X120061613Y-82199715D01*
X120061612Y-82199714D01*
X120061610Y-82199713D01*
X120004653Y-82170691D01*
X119879223Y-82106781D01*
X119684534Y-82043522D01*
X119509995Y-82015878D01*
X119482352Y-82011500D01*
X119277648Y-82011500D01*
X119253329Y-82015351D01*
X119075465Y-82043522D01*
X118880776Y-82106781D01*
X118698386Y-82199715D01*
X118532786Y-82320028D01*
X118388028Y-82464786D01*
X118267715Y-82630386D01*
X118174781Y-82812776D01*
X118111522Y-83007465D01*
X118079500Y-83209648D01*
X118079500Y-83414351D01*
X118111522Y-83616534D01*
X118174781Y-83811223D01*
X118267715Y-83993613D01*
X118388028Y-84159213D01*
X118532786Y-84303971D01*
X118653226Y-84391474D01*
X118698390Y-84424287D01*
X118814607Y-84483503D01*
X118880776Y-84517218D01*
X118880778Y-84517218D01*
X118880781Y-84517220D01*
X118985137Y-84551127D01*
X119075465Y-84580477D01*
X119176557Y-84596488D01*
X119277648Y-84612500D01*
X119277649Y-84612500D01*
X119482351Y-84612500D01*
X119482352Y-84612500D01*
X119684534Y-84580477D01*
X119879219Y-84517220D01*
X120061610Y-84424287D01*
X120154590Y-84356732D01*
X120227213Y-84303971D01*
X120227215Y-84303968D01*
X120227219Y-84303966D01*
X120371966Y-84159219D01*
X120371968Y-84159215D01*
X120371971Y-84159213D01*
X120492284Y-83993614D01*
X120492285Y-83993613D01*
X120492287Y-83993610D01*
X120499117Y-83980204D01*
X120547091Y-83929409D01*
X120609602Y-83912500D01*
X122374381Y-83912500D01*
X122374397Y-83912501D01*
X122381993Y-83912501D01*
X122540104Y-83912501D01*
X122540107Y-83912501D01*
X122692835Y-83871577D01*
X122742954Y-83842639D01*
X122829766Y-83792520D01*
X122941570Y-83680716D01*
X122941570Y-83680714D01*
X122951778Y-83670507D01*
X122951780Y-83670504D01*
X124781775Y-81840508D01*
X124843096Y-81807025D01*
X124912788Y-81812009D01*
X124968721Y-81853881D01*
X124991927Y-81908793D01*
X125028447Y-82139371D01*
X125066888Y-82257683D01*
X125068883Y-82327524D01*
X125066888Y-82334317D01*
X125028447Y-82452628D01*
X124991500Y-82685902D01*
X124991500Y-83938097D01*
X125028446Y-84171368D01*
X125101433Y-84395996D01*
X125208657Y-84606434D01*
X125347484Y-84797511D01*
X125347485Y-84797512D01*
X126060291Y-85510319D01*
X126093776Y-85571642D01*
X126088792Y-85641334D01*
X126060291Y-85685681D01*
X125768490Y-85977483D01*
X122137020Y-89608952D01*
X122075697Y-89642437D01*
X122006005Y-89637453D01*
X121950072Y-89595581D01*
X121946910Y-89590661D01*
X121857190Y-89470812D01*
X121857187Y-89470809D01*
X121742093Y-89384649D01*
X121742086Y-89384645D01*
X121607379Y-89334403D01*
X121607372Y-89334401D01*
X121547844Y-89328000D01*
X120900000Y-89328000D01*
X120900000Y-90244988D01*
X120842993Y-90212075D01*
X120715826Y-90178000D01*
X120584174Y-90178000D01*
X120457007Y-90212075D01*
X120400000Y-90244988D01*
X120400000Y-89328000D01*
X119752155Y-89328000D01*
X119692627Y-89334401D01*
X119692620Y-89334403D01*
X119557913Y-89384645D01*
X119557906Y-89384649D01*
X119442812Y-89470809D01*
X119442809Y-89470812D01*
X119356649Y-89585906D01*
X119356645Y-89585913D01*
X119306403Y-89720620D01*
X119306401Y-89720627D01*
X119300000Y-89780155D01*
X119300000Y-90428000D01*
X120216988Y-90428000D01*
X120184075Y-90485007D01*
X120150000Y-90612174D01*
X120150000Y-90743826D01*
X120184075Y-90870993D01*
X120216988Y-90928000D01*
X119300000Y-90928000D01*
X119300000Y-91575844D01*
X119306401Y-91635372D01*
X119306403Y-91635379D01*
X119356645Y-91770086D01*
X119356649Y-91770093D01*
X119442809Y-91885187D01*
X119442812Y-91885190D01*
X119557906Y-91971350D01*
X119557913Y-91971354D01*
X119692620Y-92021596D01*
X119692627Y-92021598D01*
X119752155Y-92027999D01*
X119752172Y-92028000D01*
X120400000Y-92028000D01*
X120400000Y-91111012D01*
X120457007Y-91143925D01*
X120584174Y-91178000D01*
X120715826Y-91178000D01*
X120842993Y-91143925D01*
X120900000Y-91111012D01*
X120900000Y-92028000D01*
X121547828Y-92028000D01*
X121547844Y-92027999D01*
X121607372Y-92021598D01*
X121607379Y-92021596D01*
X121742086Y-91971354D01*
X121742093Y-91971350D01*
X121857187Y-91885190D01*
X121857190Y-91885187D01*
X121948669Y-91762989D01*
X121951044Y-91764767D01*
X121989898Y-91725903D01*
X122058170Y-91711043D01*
X122123637Y-91735452D01*
X122137020Y-91747047D01*
X122212490Y-91822517D01*
X122403566Y-91961343D01*
X122487454Y-92004086D01*
X122614003Y-92068566D01*
X122614005Y-92068566D01*
X122614008Y-92068568D01*
X122678643Y-92089569D01*
X122736318Y-92129007D01*
X122763516Y-92193366D01*
X122751601Y-92262212D01*
X122704357Y-92313688D01*
X122640324Y-92331500D01*
X117718500Y-92331500D01*
X117651461Y-92311815D01*
X117605706Y-92259011D01*
X117594500Y-92207500D01*
X117594500Y-75146249D01*
X117614185Y-75079210D01*
X117666989Y-75033455D01*
X117736147Y-75023511D01*
X117799703Y-75052536D01*
X117837477Y-75111314D01*
X117840973Y-75126851D01*
X117858009Y-75234417D01*
X117921244Y-75429031D01*
X118014141Y-75611350D01*
X118014147Y-75611359D01*
X118046523Y-75655921D01*
X118046524Y-75655922D01*
X118726000Y-74976446D01*
X118726000Y-74982661D01*
X118753259Y-75084394D01*
X118805920Y-75175606D01*
X118880394Y-75250080D01*
X118971606Y-75302741D01*
X119073339Y-75330000D01*
X119079553Y-75330000D01*
X118400076Y-76009474D01*
X118444650Y-76041859D01*
X118626968Y-76134755D01*
X118821582Y-76197990D01*
X119023683Y-76230000D01*
X119228317Y-76230000D01*
X119430417Y-76197990D01*
X119625031Y-76134755D01*
X119807349Y-76041859D01*
X119851921Y-76009474D01*
X119172447Y-75330000D01*
X119178661Y-75330000D01*
X119280394Y-75302741D01*
X119371606Y-75250080D01*
X119446080Y-75175606D01*
X119498741Y-75084394D01*
X119526000Y-74982661D01*
X119526000Y-74976447D01*
X120205474Y-75655921D01*
X120237859Y-75611349D01*
X120330755Y-75429031D01*
X120393990Y-75234417D01*
X120426000Y-75032317D01*
X120426000Y-74827682D01*
X120393990Y-74625582D01*
X120330755Y-74430968D01*
X120237859Y-74248650D01*
X120205474Y-74204077D01*
X120205474Y-74204076D01*
X119526000Y-74883551D01*
X119526000Y-74877339D01*
X119498741Y-74775606D01*
X119446080Y-74684394D01*
X119371606Y-74609920D01*
X119280394Y-74557259D01*
X119178661Y-74530000D01*
X119172446Y-74530000D01*
X119851922Y-73850524D01*
X119851921Y-73850523D01*
X119807359Y-73818147D01*
X119807350Y-73818141D01*
X119625031Y-73725244D01*
X119430417Y-73662009D01*
X119228317Y-73630000D01*
X119023683Y-73630000D01*
X118821582Y-73662009D01*
X118626968Y-73725244D01*
X118444644Y-73818143D01*
X118400077Y-73850523D01*
X118400077Y-73850524D01*
X119079554Y-74530000D01*
X119073339Y-74530000D01*
X118971606Y-74557259D01*
X118880394Y-74609920D01*
X118805920Y-74684394D01*
X118753259Y-74775606D01*
X118726000Y-74877339D01*
X118726000Y-74883553D01*
X118046524Y-74204077D01*
X118046523Y-74204077D01*
X118014143Y-74248644D01*
X117921244Y-74430968D01*
X117858009Y-74625582D01*
X117840973Y-74733148D01*
X117811044Y-74796283D01*
X117751732Y-74833214D01*
X117681870Y-74832216D01*
X117623637Y-74793606D01*
X117595523Y-74729642D01*
X117594500Y-74713750D01*
X117594500Y-66445682D01*
X118080000Y-66445682D01*
X118080000Y-66650317D01*
X118112009Y-66852417D01*
X118175244Y-67047031D01*
X118268141Y-67229350D01*
X118268147Y-67229359D01*
X118300523Y-67273921D01*
X118300524Y-67273922D01*
X118980000Y-66594446D01*
X118980000Y-66600661D01*
X119007259Y-66702394D01*
X119059920Y-66793606D01*
X119134394Y-66868080D01*
X119225606Y-66920741D01*
X119327339Y-66948000D01*
X119333553Y-66948000D01*
X118654076Y-67627474D01*
X118698650Y-67659859D01*
X118880968Y-67752755D01*
X119075582Y-67815990D01*
X119277683Y-67848000D01*
X119482317Y-67848000D01*
X119684417Y-67815990D01*
X119879031Y-67752755D01*
X120061349Y-67659859D01*
X120105921Y-67627474D01*
X119426447Y-66948000D01*
X119432661Y-66948000D01*
X119534394Y-66920741D01*
X119625606Y-66868080D01*
X119700080Y-66793606D01*
X119752741Y-66702394D01*
X119780000Y-66600661D01*
X119780000Y-66594448D01*
X120459474Y-67273922D01*
X120459474Y-67273921D01*
X120491859Y-67229349D01*
X120584755Y-67047031D01*
X120647990Y-66852417D01*
X120680000Y-66650317D01*
X120680000Y-66445682D01*
X120647990Y-66243582D01*
X120584755Y-66048968D01*
X120491859Y-65866650D01*
X120459474Y-65822077D01*
X120459474Y-65822076D01*
X119780000Y-66501551D01*
X119780000Y-66495339D01*
X119752741Y-66393606D01*
X119700080Y-66302394D01*
X119625606Y-66227920D01*
X119534394Y-66175259D01*
X119432661Y-66148000D01*
X119426446Y-66148000D01*
X120105922Y-65468524D01*
X120105921Y-65468523D01*
X120061359Y-65436147D01*
X120061350Y-65436141D01*
X119879031Y-65343244D01*
X119684417Y-65280009D01*
X119482317Y-65248000D01*
X119277683Y-65248000D01*
X119075582Y-65280009D01*
X118880968Y-65343244D01*
X118698644Y-65436143D01*
X118654077Y-65468523D01*
X118654077Y-65468524D01*
X119333554Y-66148000D01*
X119327339Y-66148000D01*
X119225606Y-66175259D01*
X119134394Y-66227920D01*
X119059920Y-66302394D01*
X119007259Y-66393606D01*
X118980000Y-66495339D01*
X118980000Y-66501553D01*
X118300524Y-65822077D01*
X118300523Y-65822077D01*
X118268143Y-65866644D01*
X118175244Y-66048968D01*
X118112009Y-66243582D01*
X118080000Y-66445682D01*
X117594500Y-66445682D01*
X117594500Y-53456500D01*
X117614185Y-53389461D01*
X117666989Y-53343706D01*
X117718500Y-53332500D01*
X151198259Y-53332500D01*
X151265298Y-53352185D01*
G37*
%TD.AperFunction*%
%TA.AperFunction,Conductor*%
G36*
X156528926Y-58606738D02*
G01*
X156578332Y-58656143D01*
X156593500Y-58715571D01*
X156593500Y-92207500D01*
X156573815Y-92274539D01*
X156521011Y-92320294D01*
X156469500Y-92331500D01*
X142747240Y-92331500D01*
X142680201Y-92311815D01*
X142634446Y-92259011D01*
X142624502Y-92189853D01*
X142653527Y-92126297D01*
X142659559Y-92119819D01*
X142660190Y-92119187D01*
X142746350Y-92004093D01*
X142746354Y-92004086D01*
X142796596Y-91869379D01*
X142796598Y-91869372D01*
X142802999Y-91809844D01*
X142803000Y-91809827D01*
X142803000Y-91162000D01*
X141886012Y-91162000D01*
X141918925Y-91104993D01*
X141953000Y-90977826D01*
X141953000Y-90846174D01*
X141918925Y-90719007D01*
X141886012Y-90662000D01*
X142803000Y-90662000D01*
X142803000Y-90014172D01*
X142802999Y-90014155D01*
X142796598Y-89954627D01*
X142796596Y-89954620D01*
X142746354Y-89819913D01*
X142746350Y-89819906D01*
X142660190Y-89704812D01*
X142660187Y-89704809D01*
X142545093Y-89618649D01*
X142545088Y-89618646D01*
X142413528Y-89569577D01*
X142357595Y-89527705D01*
X142333178Y-89462241D01*
X142348030Y-89393968D01*
X142369175Y-89365720D01*
X142483104Y-89251792D01*
X142528503Y-89189306D01*
X142549160Y-89160872D01*
X142608051Y-89079816D01*
X142704557Y-88890412D01*
X142770246Y-88688243D01*
X142803500Y-88478287D01*
X142803500Y-88265713D01*
X142770246Y-88055757D01*
X142704557Y-87853588D01*
X142608051Y-87664184D01*
X142608049Y-87664181D01*
X142608048Y-87664179D01*
X142483109Y-87492213D01*
X142332786Y-87341890D01*
X142160820Y-87216951D01*
X141971414Y-87120444D01*
X141971413Y-87120443D01*
X141971412Y-87120443D01*
X141769243Y-87054754D01*
X141769241Y-87054753D01*
X141769240Y-87054753D01*
X141607957Y-87029208D01*
X141559287Y-87021500D01*
X141346713Y-87021500D01*
X141298042Y-87029208D01*
X141136760Y-87054753D01*
X140934585Y-87120444D01*
X140745179Y-87216951D01*
X140573213Y-87341890D01*
X140422890Y-87492213D01*
X140297951Y-87664179D01*
X140201444Y-87853585D01*
X140135753Y-88055760D01*
X140102500Y-88265713D01*
X140102500Y-88478286D01*
X140135753Y-88688239D01*
X140201444Y-88890414D01*
X140297951Y-89079820D01*
X140422890Y-89251786D01*
X140536818Y-89365714D01*
X140570303Y-89427037D01*
X140565319Y-89496729D01*
X140523447Y-89552662D01*
X140492471Y-89569577D01*
X140360912Y-89618646D01*
X140360906Y-89618649D01*
X140245812Y-89704809D01*
X140245809Y-89704812D01*
X140159649Y-89819906D01*
X140159645Y-89819913D01*
X140109403Y-89954620D01*
X140109401Y-89954627D01*
X140103000Y-90014155D01*
X140103000Y-90662000D01*
X141019988Y-90662000D01*
X140987075Y-90719007D01*
X140953000Y-90846174D01*
X140953000Y-90977826D01*
X140987075Y-91104993D01*
X141019988Y-91162000D01*
X140103000Y-91162000D01*
X140103000Y-91809844D01*
X140109401Y-91869372D01*
X140109403Y-91869379D01*
X140159645Y-92004086D01*
X140159649Y-92004093D01*
X140245809Y-92119187D01*
X140246441Y-92119819D01*
X140246868Y-92120602D01*
X140251125Y-92126288D01*
X140250307Y-92126899D01*
X140279926Y-92181142D01*
X140274942Y-92250834D01*
X140233070Y-92306767D01*
X140167606Y-92331184D01*
X140158760Y-92331500D01*
X123739676Y-92331500D01*
X123672637Y-92311815D01*
X123626882Y-92259011D01*
X123616938Y-92189853D01*
X123645963Y-92126297D01*
X123701356Y-92089569D01*
X123765992Y-92068568D01*
X123976434Y-91961343D01*
X124167510Y-91822517D01*
X127890517Y-88099510D01*
X129240441Y-86749584D01*
X129240448Y-86749579D01*
X129247508Y-86742519D01*
X129247510Y-86742518D01*
X129414518Y-86575510D01*
X129553343Y-86384434D01*
X129618227Y-86257092D01*
X129660568Y-86173993D01*
X129679693Y-86115135D01*
X147317500Y-86115135D01*
X147317500Y-87610870D01*
X147317501Y-87610876D01*
X147323908Y-87670483D01*
X147374202Y-87805328D01*
X147374206Y-87805335D01*
X147460452Y-87920544D01*
X147460455Y-87920547D01*
X147575664Y-88006793D01*
X147575671Y-88006797D01*
X147710517Y-88057091D01*
X147710516Y-88057091D01*
X147717444Y-88057835D01*
X147770127Y-88063500D01*
X147908690Y-88063499D01*
X147975727Y-88083183D01*
X148021482Y-88135987D01*
X148031426Y-88205145D01*
X148002402Y-88268701D01*
X147964984Y-88297983D01*
X147889063Y-88336667D01*
X147863670Y-88355116D01*
X147863669Y-88355116D01*
X148429415Y-88920861D01*
X148344306Y-88943667D01*
X148241694Y-89002910D01*
X148157910Y-89086694D01*
X148098667Y-89189306D01*
X148075861Y-89274414D01*
X147510116Y-88708669D01*
X147510116Y-88708670D01*
X147491669Y-88734060D01*
X147405914Y-88902362D01*
X147347548Y-89081997D01*
X147318000Y-89268552D01*
X147318000Y-89457447D01*
X147347548Y-89644002D01*
X147405914Y-89823637D01*
X147491666Y-89991933D01*
X147510116Y-90017328D01*
X148075861Y-89451584D01*
X148098667Y-89536694D01*
X148157910Y-89639306D01*
X148241694Y-89723090D01*
X148344306Y-89782333D01*
X148429415Y-89805138D01*
X147863669Y-90370882D01*
X147863670Y-90370883D01*
X147889059Y-90389329D01*
X148057362Y-90475085D01*
X148236997Y-90533451D01*
X148423553Y-90563000D01*
X148612447Y-90563000D01*
X148799002Y-90533451D01*
X148978637Y-90475085D01*
X149146937Y-90389331D01*
X149172328Y-90370883D01*
X149172328Y-90370882D01*
X148606584Y-89805138D01*
X148691694Y-89782333D01*
X148794306Y-89723090D01*
X148878090Y-89639306D01*
X148937333Y-89536694D01*
X148960138Y-89451584D01*
X149525882Y-90017328D01*
X149525883Y-90017328D01*
X149544331Y-89991937D01*
X149630085Y-89823637D01*
X149688451Y-89644002D01*
X149718000Y-89457447D01*
X149718000Y-89268552D01*
X149688451Y-89081997D01*
X149630085Y-88902362D01*
X149544329Y-88734059D01*
X149525883Y-88708670D01*
X149525882Y-88708669D01*
X148960137Y-89274414D01*
X148937333Y-89189306D01*
X148878090Y-89086694D01*
X148794306Y-89002910D01*
X148691694Y-88943667D01*
X148606584Y-88920861D01*
X149172328Y-88355116D01*
X149146933Y-88336666D01*
X149071015Y-88297984D01*
X149020219Y-88250010D01*
X149003424Y-88182189D01*
X149025961Y-88116054D01*
X149080676Y-88072602D01*
X149127309Y-88063499D01*
X149265872Y-88063499D01*
X149325483Y-88057091D01*
X149460331Y-88006796D01*
X149575546Y-87920546D01*
X149661796Y-87805331D01*
X149712091Y-87670483D01*
X149718500Y-87610873D01*
X149718499Y-86115128D01*
X149712091Y-86055517D01*
X149682986Y-85977483D01*
X149661797Y-85920671D01*
X149661793Y-85920664D01*
X149575547Y-85805455D01*
X149575544Y-85805452D01*
X149460335Y-85719206D01*
X149460328Y-85719202D01*
X149325482Y-85668908D01*
X149325483Y-85668908D01*
X149265883Y-85662501D01*
X149265881Y-85662500D01*
X149265873Y-85662500D01*
X149265864Y-85662500D01*
X147770129Y-85662500D01*
X147770123Y-85662501D01*
X147710516Y-85668908D01*
X147575671Y-85719202D01*
X147575664Y-85719206D01*
X147460455Y-85805452D01*
X147460452Y-85805455D01*
X147374206Y-85920664D01*
X147374202Y-85920671D01*
X147323908Y-86055517D01*
X147317501Y-86115116D01*
X147317501Y-86115123D01*
X147317500Y-86115135D01*
X129679693Y-86115135D01*
X129679695Y-86115128D01*
X129693224Y-86073489D01*
X129693224Y-86073487D01*
X129710383Y-86020678D01*
X129733553Y-85949369D01*
X129749973Y-85845690D01*
X129770500Y-85716097D01*
X129770500Y-85479902D01*
X129733553Y-85246631D01*
X129660566Y-85022003D01*
X129553341Y-84811564D01*
X129551152Y-84808551D01*
X129527670Y-84742745D01*
X129543494Y-84674691D01*
X129593599Y-84625995D01*
X129637577Y-84613253D01*
X129637500Y-84612763D01*
X129641401Y-84612144D01*
X129641747Y-84612045D01*
X129642315Y-84612000D01*
X129844417Y-84579990D01*
X130039031Y-84516755D01*
X130221349Y-84423859D01*
X130265921Y-84391474D01*
X129586446Y-83712000D01*
X129592661Y-83712000D01*
X129694394Y-83684741D01*
X129785606Y-83632080D01*
X129860080Y-83557606D01*
X129912741Y-83466394D01*
X129940000Y-83364661D01*
X129940000Y-83358447D01*
X130619474Y-84037921D01*
X130651859Y-83993349D01*
X130744755Y-83811031D01*
X130807990Y-83616417D01*
X130840000Y-83414317D01*
X130840000Y-83209682D01*
X130807990Y-83007582D01*
X130744755Y-82812968D01*
X130651859Y-82630650D01*
X130619474Y-82586077D01*
X130619474Y-82586076D01*
X129940000Y-83265551D01*
X129940000Y-83259339D01*
X129912741Y-83157606D01*
X129860080Y-83066394D01*
X129785606Y-82991920D01*
X129694394Y-82939259D01*
X129592661Y-82912000D01*
X129586446Y-82912000D01*
X130265922Y-82232524D01*
X130265921Y-82232523D01*
X130221359Y-82200147D01*
X130221350Y-82200141D01*
X130039031Y-82107244D01*
X129844417Y-82044009D01*
X129642317Y-82012000D01*
X129437683Y-82012000D01*
X129235582Y-82044009D01*
X129040968Y-82107244D01*
X128858644Y-82200143D01*
X128814077Y-82232523D01*
X128814077Y-82232524D01*
X129493554Y-82912000D01*
X129487339Y-82912000D01*
X129385606Y-82939259D01*
X129294394Y-82991920D01*
X129219920Y-83066394D01*
X129167259Y-83157606D01*
X129140000Y-83259339D01*
X129140000Y-83265553D01*
X128460524Y-82586077D01*
X128460523Y-82586077D01*
X128428143Y-82630644D01*
X128335244Y-82812968D01*
X128272010Y-83007581D01*
X128245762Y-83173298D01*
X128240369Y-83184673D01*
X128239471Y-83197233D01*
X128225684Y-83215648D01*
X128215832Y-83236432D01*
X128205144Y-83243086D01*
X128197599Y-83253166D01*
X128176046Y-83261204D01*
X128156520Y-83273363D01*
X128143931Y-83273183D01*
X128132135Y-83277583D01*
X128109658Y-83272693D01*
X128086658Y-83272365D01*
X128074530Y-83265051D01*
X128063862Y-83262731D01*
X128035608Y-83241580D01*
X128028819Y-83234791D01*
X127995334Y-83173468D01*
X127992500Y-83147110D01*
X127992500Y-82685902D01*
X127964595Y-82509717D01*
X127973550Y-82440423D01*
X127999384Y-82402641D01*
X130615463Y-79786562D01*
X130676784Y-79753079D01*
X130746476Y-79758063D01*
X130802409Y-79799935D01*
X130821073Y-79835926D01*
X130874781Y-80001223D01*
X130938691Y-80126653D01*
X130967585Y-80183359D01*
X130967715Y-80183613D01*
X131088028Y-80349213D01*
X131232786Y-80493971D01*
X131353226Y-80581474D01*
X131398390Y-80614287D01*
X131514607Y-80673503D01*
X131580776Y-80707218D01*
X131580778Y-80707218D01*
X131580781Y-80707220D01*
X131685137Y-80741127D01*
X131775465Y-80770477D01*
X131876557Y-80786488D01*
X131977648Y-80802500D01*
X131977649Y-80802500D01*
X132182351Y-80802500D01*
X132182352Y-80802500D01*
X132384534Y-80770477D01*
X132579219Y-80707220D01*
X132761610Y-80614287D01*
X132854590Y-80546732D01*
X132927213Y-80493971D01*
X132927215Y-80493968D01*
X132927219Y-80493966D01*
X133071966Y-80349219D01*
X133071968Y-80349215D01*
X133071971Y-80349213D01*
X133124732Y-80276590D01*
X133192287Y-80183610D01*
X133285220Y-80001219D01*
X133348477Y-79806534D01*
X133380500Y-79604352D01*
X133380500Y-79399682D01*
X140940000Y-79399682D01*
X140940000Y-79604317D01*
X140972009Y-79806417D01*
X141035244Y-80001031D01*
X141128141Y-80183350D01*
X141128147Y-80183359D01*
X141160523Y-80227921D01*
X141160524Y-80227922D01*
X141840000Y-79548446D01*
X141840000Y-79554661D01*
X141867259Y-79656394D01*
X141919920Y-79747606D01*
X141994394Y-79822080D01*
X142085606Y-79874741D01*
X142187339Y-79902000D01*
X142193553Y-79902000D01*
X141514076Y-80581474D01*
X141558650Y-80613859D01*
X141740968Y-80706755D01*
X141935582Y-80769990D01*
X142137683Y-80802000D01*
X142342317Y-80802000D01*
X142544417Y-80769990D01*
X142739031Y-80706755D01*
X142921349Y-80613859D01*
X142965921Y-80581474D01*
X142286447Y-79902000D01*
X142292661Y-79902000D01*
X142394394Y-79874741D01*
X142485606Y-79822080D01*
X142560080Y-79747606D01*
X142612741Y-79656394D01*
X142640000Y-79554661D01*
X142640000Y-79548448D01*
X143319474Y-80227922D01*
X143319474Y-80227921D01*
X143351859Y-80183349D01*
X143444755Y-80001031D01*
X143507990Y-79806417D01*
X143540000Y-79604317D01*
X143540000Y-79399682D01*
X143507990Y-79197582D01*
X143444755Y-79002968D01*
X143351859Y-78820650D01*
X143319474Y-78776077D01*
X143319474Y-78776076D01*
X142640000Y-79455551D01*
X142640000Y-79449339D01*
X142612741Y-79347606D01*
X142560080Y-79256394D01*
X142485606Y-79181920D01*
X142394394Y-79129259D01*
X142292661Y-79102000D01*
X142286446Y-79102000D01*
X142965922Y-78422524D01*
X142965921Y-78422523D01*
X142921359Y-78390147D01*
X142921350Y-78390141D01*
X142739031Y-78297244D01*
X142544417Y-78234009D01*
X142342317Y-78202000D01*
X142137683Y-78202000D01*
X141935582Y-78234009D01*
X141740968Y-78297244D01*
X141558644Y-78390143D01*
X141514077Y-78422523D01*
X141514077Y-78422524D01*
X142193554Y-79102000D01*
X142187339Y-79102000D01*
X142085606Y-79129259D01*
X141994394Y-79181920D01*
X141919920Y-79256394D01*
X141867259Y-79347606D01*
X141840000Y-79449339D01*
X141840000Y-79455553D01*
X141160524Y-78776077D01*
X141160523Y-78776077D01*
X141128143Y-78820644D01*
X141035244Y-79002968D01*
X140972009Y-79197582D01*
X140940000Y-79399682D01*
X133380500Y-79399682D01*
X133380500Y-79399648D01*
X133348477Y-79197466D01*
X133343825Y-79183151D01*
X133341832Y-79113312D01*
X133374075Y-79057158D01*
X134448974Y-77982260D01*
X148480000Y-77982260D01*
X148480000Y-78229739D01*
X148480001Y-78229756D01*
X148512303Y-78475117D01*
X148576361Y-78714184D01*
X148671069Y-78942829D01*
X148671074Y-78942840D01*
X148794812Y-79157159D01*
X148794823Y-79157175D01*
X148945479Y-79353514D01*
X148945485Y-79353521D01*
X149120478Y-79528514D01*
X149120484Y-79528519D01*
X149316833Y-79679183D01*
X149316840Y-79679187D01*
X149531159Y-79802925D01*
X149531164Y-79802927D01*
X149531167Y-79802929D01*
X149759820Y-79897640D01*
X149998879Y-79961696D01*
X150244254Y-79994000D01*
X150244261Y-79994000D01*
X150491739Y-79994000D01*
X150491746Y-79994000D01*
X150737121Y-79961696D01*
X150976180Y-79897640D01*
X151204833Y-79802929D01*
X151419167Y-79679183D01*
X151615516Y-79528519D01*
X151790519Y-79353516D01*
X151941183Y-79157167D01*
X152064929Y-78942833D01*
X152159640Y-78714180D01*
X152223696Y-78475121D01*
X152256000Y-78229746D01*
X152256000Y-77982254D01*
X152223696Y-77736879D01*
X152159640Y-77497820D01*
X152064929Y-77269167D01*
X152064927Y-77269164D01*
X152064925Y-77269159D01*
X151941187Y-77054840D01*
X151941183Y-77054833D01*
X151790519Y-76858484D01*
X151790514Y-76858478D01*
X151615521Y-76683485D01*
X151615514Y-76683479D01*
X151419175Y-76532823D01*
X151419173Y-76532821D01*
X151419167Y-76532817D01*
X151419162Y-76532814D01*
X151419159Y-76532812D01*
X151204840Y-76409074D01*
X151204829Y-76409069D01*
X150976184Y-76314361D01*
X150737117Y-76250303D01*
X150491756Y-76218001D01*
X150491751Y-76218000D01*
X150491746Y-76218000D01*
X150244254Y-76218000D01*
X150244248Y-76218000D01*
X150244243Y-76218001D01*
X149998882Y-76250303D01*
X149759815Y-76314361D01*
X149531170Y-76409069D01*
X149531159Y-76409074D01*
X149316840Y-76532812D01*
X149316824Y-76532823D01*
X149120485Y-76683479D01*
X149120478Y-76683485D01*
X148945485Y-76858478D01*
X148945479Y-76858485D01*
X148794823Y-77054824D01*
X148794812Y-77054840D01*
X148671074Y-77269159D01*
X148671069Y-77269170D01*
X148576361Y-77497815D01*
X148512303Y-77736882D01*
X148480001Y-77982243D01*
X148480000Y-77982260D01*
X134448974Y-77982260D01*
X135848416Y-76582819D01*
X135909739Y-76549334D01*
X135936097Y-76546500D01*
X144454234Y-76546500D01*
X144521273Y-76566185D01*
X144523125Y-76567398D01*
X144654814Y-76655390D01*
X144654827Y-76655397D01*
X144800498Y-76715735D01*
X144800503Y-76715737D01*
X144955153Y-76746499D01*
X144955156Y-76746500D01*
X144955158Y-76746500D01*
X145112844Y-76746500D01*
X145112845Y-76746499D01*
X145267497Y-76715737D01*
X145413179Y-76655394D01*
X145544289Y-76567789D01*
X145655789Y-76456289D01*
X145743394Y-76325179D01*
X145803737Y-76179497D01*
X145834500Y-76024842D01*
X145834500Y-75867158D01*
X145834500Y-75867155D01*
X145834499Y-75867153D01*
X145822781Y-75808244D01*
X145803737Y-75712503D01*
X145780300Y-75655921D01*
X145743397Y-75566827D01*
X145743390Y-75566814D01*
X145655789Y-75435711D01*
X145655786Y-75435707D01*
X145544292Y-75324213D01*
X145544288Y-75324210D01*
X145413185Y-75236609D01*
X145413172Y-75236602D01*
X145267501Y-75176264D01*
X145267489Y-75176261D01*
X145112845Y-75145500D01*
X145112842Y-75145500D01*
X144955158Y-75145500D01*
X144955155Y-75145500D01*
X144800510Y-75176261D01*
X144800498Y-75176264D01*
X144654827Y-75236602D01*
X144654814Y-75236609D01*
X144523125Y-75324602D01*
X144456447Y-75345480D01*
X144454234Y-75345500D01*
X135556940Y-75345500D01*
X135516019Y-75356464D01*
X135516019Y-75356465D01*
X135478751Y-75366451D01*
X135404214Y-75386423D01*
X135404209Y-75386426D01*
X135267290Y-75465475D01*
X135267282Y-75465481D01*
X135155478Y-75577286D01*
X134281675Y-76451088D01*
X134220352Y-76484573D01*
X134150660Y-76479589D01*
X134094727Y-76437717D01*
X134070310Y-76372253D01*
X134085162Y-76303980D01*
X134093677Y-76290521D01*
X134122898Y-76250303D01*
X134185133Y-76164644D01*
X134292358Y-75954202D01*
X134330583Y-75836556D01*
X134360831Y-75787194D01*
X135256517Y-74891510D01*
X135395343Y-74700434D01*
X135502568Y-74489992D01*
X135575552Y-74265369D01*
X135604471Y-74082781D01*
X135612499Y-74032097D01*
X135612499Y-73795902D01*
X135586222Y-73630000D01*
X135575552Y-73562632D01*
X135502568Y-73338008D01*
X135501737Y-73336377D01*
X135500774Y-73334486D01*
X135474163Y-73282260D01*
X148480000Y-73282260D01*
X148480000Y-73529739D01*
X148480001Y-73529756D01*
X148512303Y-73775117D01*
X148576361Y-74014184D01*
X148671069Y-74242829D01*
X148671074Y-74242840D01*
X148794812Y-74457159D01*
X148794823Y-74457175D01*
X148945479Y-74653514D01*
X148945485Y-74653521D01*
X149120478Y-74828514D01*
X149120485Y-74828520D01*
X149252738Y-74930001D01*
X149316833Y-74979183D01*
X149316840Y-74979187D01*
X149531159Y-75102925D01*
X149531164Y-75102927D01*
X149531167Y-75102929D01*
X149759820Y-75197640D01*
X149998879Y-75261696D01*
X150244254Y-75294000D01*
X150244261Y-75294000D01*
X150491739Y-75294000D01*
X150491746Y-75294000D01*
X150737121Y-75261696D01*
X150976180Y-75197640D01*
X151204833Y-75102929D01*
X151419167Y-74979183D01*
X151615516Y-74828519D01*
X151790519Y-74653516D01*
X151941183Y-74457167D01*
X152064929Y-74242833D01*
X152159640Y-74014180D01*
X152223696Y-73775121D01*
X152256000Y-73529746D01*
X152256000Y-73282254D01*
X152223696Y-73036879D01*
X152159640Y-72797820D01*
X152064929Y-72569167D01*
X152064927Y-72569164D01*
X152064925Y-72569159D01*
X151941187Y-72354840D01*
X151941183Y-72354833D01*
X151790519Y-72158484D01*
X151790514Y-72158478D01*
X151615521Y-71983485D01*
X151615514Y-71983479D01*
X151419175Y-71832823D01*
X151419173Y-71832821D01*
X151419167Y-71832817D01*
X151419162Y-71832814D01*
X151419159Y-71832812D01*
X151204840Y-71709074D01*
X151204829Y-71709069D01*
X150976184Y-71614361D01*
X150737117Y-71550303D01*
X150491756Y-71518001D01*
X150491751Y-71518000D01*
X150491746Y-71518000D01*
X150244254Y-71518000D01*
X150244248Y-71518000D01*
X150244243Y-71518001D01*
X149998882Y-71550303D01*
X149759815Y-71614361D01*
X149531170Y-71709069D01*
X149531159Y-71709074D01*
X149316840Y-71832812D01*
X149316824Y-71832823D01*
X149120485Y-71983479D01*
X149120478Y-71983485D01*
X148945485Y-72158478D01*
X148945479Y-72158485D01*
X148794823Y-72354824D01*
X148794812Y-72354840D01*
X148671074Y-72569159D01*
X148671069Y-72569170D01*
X148576361Y-72797815D01*
X148512303Y-73036882D01*
X148480001Y-73282243D01*
X148480000Y-73282260D01*
X135474163Y-73282260D01*
X135395342Y-73127566D01*
X135256517Y-72936490D01*
X135089510Y-72769483D01*
X134898433Y-72630657D01*
X134687992Y-72523431D01*
X134687989Y-72523430D01*
X134463372Y-72450449D01*
X134463370Y-72450448D01*
X134463368Y-72450448D01*
X134452060Y-72448657D01*
X134388927Y-72418725D01*
X134351998Y-72359412D01*
X134352998Y-72289549D01*
X134383780Y-72238505D01*
X137418304Y-69203982D01*
X139369500Y-69203982D01*
X139369500Y-71004017D01*
X139380000Y-71106796D01*
X139435185Y-71273332D01*
X139435186Y-71273335D01*
X139527288Y-71422656D01*
X139651344Y-71546712D01*
X139800665Y-71638814D01*
X139967202Y-71693999D01*
X140069990Y-71704500D01*
X140069995Y-71704500D01*
X141870005Y-71704500D01*
X141870010Y-71704500D01*
X141972798Y-71693999D01*
X142139335Y-71638814D01*
X142288656Y-71546712D01*
X142412712Y-71422656D01*
X142504814Y-71273335D01*
X142559999Y-71106798D01*
X142570500Y-71004010D01*
X142570500Y-69203990D01*
X142559999Y-69101202D01*
X142504814Y-68934665D01*
X142412712Y-68785344D01*
X142288656Y-68661288D01*
X142139335Y-68569186D01*
X141972798Y-68514001D01*
X141972796Y-68514000D01*
X141870017Y-68503500D01*
X141870010Y-68503500D01*
X140069990Y-68503500D01*
X140069982Y-68503500D01*
X139967203Y-68514000D01*
X139967202Y-68514001D01*
X139884669Y-68541349D01*
X139800667Y-68569185D01*
X139800662Y-68569187D01*
X139651342Y-68661289D01*
X139527289Y-68785342D01*
X139435187Y-68934662D01*
X139435186Y-68934665D01*
X139380001Y-69101202D01*
X139380001Y-69101203D01*
X139380000Y-69101203D01*
X139369500Y-69203982D01*
X137418304Y-69203982D01*
X138641128Y-67981158D01*
X138702451Y-67947673D01*
X138728809Y-67944839D01*
X145254935Y-67944839D01*
X145254951Y-67944840D01*
X145262547Y-67944840D01*
X145420658Y-67944840D01*
X145420661Y-67944840D01*
X145573389Y-67903916D01*
X145623508Y-67874978D01*
X145710320Y-67824859D01*
X145822124Y-67713055D01*
X145822124Y-67713053D01*
X145832332Y-67702846D01*
X145832333Y-67702843D01*
X146264542Y-67270635D01*
X148480000Y-67270635D01*
X148480000Y-70141370D01*
X148480001Y-70141376D01*
X148486408Y-70200983D01*
X148536702Y-70335828D01*
X148536706Y-70335835D01*
X148622952Y-70451044D01*
X148622955Y-70451047D01*
X148738164Y-70537293D01*
X148738171Y-70537297D01*
X148873017Y-70587591D01*
X148873016Y-70587591D01*
X148879944Y-70588335D01*
X148932627Y-70594000D01*
X151803372Y-70593999D01*
X151862983Y-70587591D01*
X151997831Y-70537296D01*
X152113046Y-70451046D01*
X152199296Y-70335831D01*
X152249591Y-70200983D01*
X152256000Y-70141373D01*
X152255999Y-67270628D01*
X152249591Y-67211017D01*
X152232580Y-67165409D01*
X152199296Y-67076169D01*
X152199293Y-67076164D01*
X152113047Y-66960955D01*
X152113044Y-66960952D01*
X151997835Y-66874706D01*
X151997828Y-66874702D01*
X151862982Y-66824408D01*
X151862983Y-66824408D01*
X151803383Y-66818001D01*
X151803381Y-66818000D01*
X151803373Y-66818000D01*
X151803364Y-66818000D01*
X148932629Y-66818000D01*
X148932623Y-66818001D01*
X148873016Y-66824408D01*
X148738171Y-66874702D01*
X148738164Y-66874706D01*
X148622955Y-66960952D01*
X148622952Y-66960955D01*
X148536706Y-67076164D01*
X148536704Y-67076169D01*
X148486408Y-67211017D01*
X148480001Y-67270616D01*
X148480001Y-67270623D01*
X148480000Y-67270635D01*
X146264542Y-67270635D01*
X147038520Y-66496659D01*
X147117577Y-66359727D01*
X147158501Y-66207000D01*
X147158501Y-66048885D01*
X147158501Y-66041290D01*
X147158500Y-66041272D01*
X147158500Y-63368945D01*
X147158499Y-63368941D01*
X147153583Y-63350592D01*
X147155246Y-63280743D01*
X147194409Y-63222880D01*
X147258638Y-63195377D01*
X147273358Y-63194500D01*
X149000091Y-63194500D01*
X149000107Y-63194501D01*
X149007703Y-63194501D01*
X149165814Y-63194501D01*
X149165817Y-63194501D01*
X149318545Y-63153577D01*
X149385088Y-63115158D01*
X149455476Y-63074520D01*
X149567280Y-62962716D01*
X149567280Y-62962714D01*
X149577484Y-62952511D01*
X149577487Y-62952506D01*
X150864593Y-61665400D01*
X150925915Y-61631917D01*
X150995607Y-61636901D01*
X151051540Y-61678773D01*
X151074746Y-61733685D01*
X151082754Y-61784243D01*
X151132238Y-61936539D01*
X151148444Y-61986414D01*
X151244951Y-62175820D01*
X151369890Y-62347786D01*
X151520213Y-62498109D01*
X151692179Y-62623048D01*
X151692181Y-62623049D01*
X151692184Y-62623051D01*
X151881588Y-62719557D01*
X152083757Y-62785246D01*
X152293713Y-62818500D01*
X152293714Y-62818500D01*
X152506286Y-62818500D01*
X152506287Y-62818500D01*
X152716243Y-62785246D01*
X152918412Y-62719557D01*
X153107816Y-62623051D01*
X153279792Y-62498104D01*
X153393329Y-62384566D01*
X153454648Y-62351084D01*
X153524340Y-62356068D01*
X153580274Y-62397939D01*
X153597189Y-62428917D01*
X153646202Y-62560328D01*
X153646206Y-62560335D01*
X153732452Y-62675544D01*
X153732455Y-62675547D01*
X153847664Y-62761793D01*
X153847671Y-62761797D01*
X153982517Y-62812091D01*
X153982516Y-62812091D01*
X153989444Y-62812835D01*
X154042127Y-62818500D01*
X155837872Y-62818499D01*
X155897483Y-62812091D01*
X156032331Y-62761796D01*
X156147546Y-62675546D01*
X156233796Y-62560331D01*
X156284091Y-62425483D01*
X156290500Y-62365873D01*
X156290499Y-60570128D01*
X156284091Y-60510517D01*
X156282810Y-60507083D01*
X156233797Y-60375671D01*
X156233793Y-60375664D01*
X156147547Y-60260455D01*
X156147544Y-60260452D01*
X156032335Y-60174206D01*
X156032328Y-60174202D01*
X155897482Y-60123908D01*
X155897483Y-60123908D01*
X155837883Y-60117501D01*
X155837881Y-60117500D01*
X155837873Y-60117500D01*
X155837864Y-60117500D01*
X154042129Y-60117500D01*
X154042123Y-60117501D01*
X153982516Y-60123908D01*
X153847671Y-60174202D01*
X153847664Y-60174206D01*
X153732455Y-60260452D01*
X153732452Y-60260455D01*
X153646206Y-60375664D01*
X153646203Y-60375669D01*
X153597189Y-60507083D01*
X153555317Y-60563016D01*
X153489853Y-60587433D01*
X153421580Y-60572581D01*
X153393326Y-60551430D01*
X153279786Y-60437890D01*
X153107820Y-60312951D01*
X152918414Y-60216444D01*
X152918413Y-60216443D01*
X152918412Y-60216443D01*
X152716243Y-60150754D01*
X152716241Y-60150753D01*
X152716239Y-60150753D01*
X152665685Y-60142746D01*
X152602550Y-60112816D01*
X152565619Y-60053505D01*
X152566617Y-59983642D01*
X152597400Y-59932594D01*
X153871587Y-58658406D01*
X153932908Y-58624923D01*
X154002600Y-58629907D01*
X154033577Y-58646823D01*
X154101664Y-58697793D01*
X154101671Y-58697797D01*
X154236517Y-58748091D01*
X154236516Y-58748091D01*
X154243444Y-58748835D01*
X154296127Y-58754500D01*
X156091872Y-58754499D01*
X156151483Y-58748091D01*
X156286331Y-58697796D01*
X156341972Y-58656143D01*
X156395189Y-58616305D01*
X156460653Y-58591887D01*
X156528926Y-58606738D01*
G37*
%TD.AperFunction*%
%TD*%
M02*
