M48
; DRILL file {KiCad 9.0.2} date 2025-11-02T21:25:30+0900
; FORMAT={-:-/ absolute / inch / decimal}
; #@! TF.CreationDate,2025-11-02T21:25:30+09:00
; #@! TF.GenerationSoftware,Kicad,Pcbnew,9.0.2
; #@! TF.FileFunction,Plated,1,2,PTH
FMAT,2
INCH
; #@! TA.AperFunction,Plated,PTH,ViaDrill
T1C0.0118
; #@! TA.AperFunction,Plated,PTH,ComponentDrill
T2C0.0315
; #@! TA.AperFunction,Plated,PTH,ComponentDrill
T3C0.0335
; #@! TA.AperFunction,Plated,PTH,ComponentDrill
T4C0.0394
; #@! TA.AperFunction,Plated,PTH,ComponentDrill
T5C0.0433
; #@! TA.AperFunction,Plated,PTH,ComponentDrill
T6C0.0591
; #@! TA.AperFunction,Plated,PTH,ComponentDrill
T7C0.0669
%
G90
G05
T1
X4.327Y-4.39
X4.36Y-3.77
X4.3677Y-4.8877
X4.37Y-4.57
X4.3833Y-5.0667
X4.39Y-4.23
X4.4Y-3.56
X4.42Y-4.3
X4.44Y-4.37
X4.4483Y-4.0829
X4.45Y-4.85
X4.4787Y-4.2787
X4.5Y-4.53
X4.51Y-4.25
X4.51Y-4.93
X4.5154Y-4.6354
X4.58Y-5.54
X4.62Y-3.81
X4.62Y-5.2
X4.6343Y-5.9557
X4.6388Y-5.4427
X4.64Y-4.76
X4.64Y-4.83
X4.6692Y-4.27
X4.6815Y-3.6715
X4.7127Y-4.47
X4.76Y-4.2066
X4.76Y-4.32
X4.76Y-4.59
X4.76Y-4.64
X4.7698Y-4.46
X4.7698Y-4.53
X4.77Y-4.75
X4.77Y-4.82
X4.7711Y-4.1772
X4.7864Y-4.72
X4.7864Y-4.98
X4.8032Y-4.1836
X4.8682Y-4.43
X4.87Y-3.8
X4.91Y-3.28
X4.914Y-3.778
X4.92Y-4.07
X4.9486Y-3.6842
X5.03Y-5.3
X5.0474Y-5.0828
X5.0583Y-5.2517
X5.08Y-3.75
X5.0947Y-4.4305
X5.1Y-3.34
X5.12Y-5.28
X5.1273Y-3.9915
X5.13Y-5.25
X5.1764Y-4.2855
X5.19Y-4.84
X5.2009Y-4.0285
X5.2098Y-3.3164
X5.2098Y-3.6276
X5.2098Y-4.5188
X5.2098Y-4.69
X5.2571Y-3.36
X5.2571Y-4.1585
X5.2571Y-4.19
X5.2588Y-4.6822
X5.26Y-3.58
X5.26Y-3.88
X5.26Y-4.38
X5.26Y-4.58
X5.2664Y-5.03
X5.27Y-4.8793
X5.27Y-5.2
X5.2728Y-4.33
X5.28Y-3.2812
X5.2926Y-4.9774
X5.337Y-5.1836
X5.37Y-5.13
X5.37Y-5.97
X5.39Y-4.88
X5.3914Y-5.32
X5.3914Y-5.3579
X5.3964Y-3.5417
X5.3993Y-5.5822
X5.4062Y-5.9546
X5.42Y-5.3
X5.4306Y-5.98
X5.4436Y-4.34
X5.4464Y-4.92
X5.4583Y-3.5817
X5.48Y-3.36
X5.4931Y-5.2747
X5.4964Y-3.51
X5.4964Y-4.34
X5.4964Y-4.9567
X5.5Y-5.16
X5.52Y-5.65
X5.55Y-3.34
X5.56Y-4.98
X5.57Y-5.61
X5.59Y-5.66
X5.6Y-5.31
X5.6Y-5.35
X5.61Y-5.02
X5.64Y-5.1364
X5.6504Y-5.2896
X5.6703Y-5.2137
X5.6806Y-5.598
X5.71Y-5.31
X5.71Y-5.63
X5.76Y-5.66
X5.77Y-5.598
X5.7733Y-5.2533
X5.79Y-5.7
X5.82Y-6.2
X5.84Y-4.78
X5.84Y-5.9
X5.8666Y-5.4334
X5.87Y-5.09
X5.87Y-5.2864
X5.88Y-4.33
X5.8837Y-5.4863
X5.89Y-4.83
X5.91Y-3.34
X5.9128Y-5.7672
X5.92Y-4.84
X5.9328Y-5.7028
X5.96Y-5.39
X5.97Y-5.74
X5.9828Y-5.6528
X6.0116Y-5.624
X6.02Y-5.34
X6.05Y-5.1
X6.1264Y-5.5511
X6.1264Y-6.247
T2
X4.3939Y-3.87
X4.4Y-4.1
X4.7939Y-3.87
X4.8Y-4.1
X4.84Y-3.28
X4.84Y-3.68
T3
X5.5816Y-5.83
X5.7784Y-5.83
T4
X4.2645Y-3.2356
X4.2645Y-3.3356
X4.2645Y-3.4356
X4.2645Y-3.5356
X4.2645Y-3.6356
X4.2645Y-3.7356
X4.2645Y-3.8356
X4.2645Y-3.9356
X4.2645Y-4.0356
X4.2645Y-4.1356
X4.2645Y-4.2356
X4.2645Y-4.3356
X4.2645Y-4.4356
X4.2645Y-4.5356
X4.2645Y-4.6356
X4.2645Y-4.7356
X4.2645Y-4.8356
X4.2645Y-4.9356
X4.2645Y-5.0356
X4.2645Y-5.1356
X4.8692Y-5.9152
X4.8696Y-6.251
X4.9645Y-3.2356
X4.9645Y-3.3356
X4.9645Y-3.4356
X4.9645Y-3.5356
X4.9645Y-3.6356
X4.9645Y-3.7356
X4.9645Y-3.8356
X4.9645Y-3.9356
X4.9645Y-4.0356
X4.9645Y-4.1356
X4.9645Y-4.2356
X4.9645Y-4.3356
X4.9645Y-4.4356
X4.9645Y-4.5356
X4.9645Y-4.6356
X4.9645Y-4.7356
X4.9645Y-4.8356
X4.9645Y-4.9356
X4.9645Y-5.0356
X4.9645Y-5.1356
X4.9692Y-5.9152
X4.9696Y-6.251
X5.0692Y-5.9152
X5.0696Y-6.251
X5.149Y-3.84
X5.149Y-3.94
X5.149Y-4.04
X5.149Y-4.14
X5.149Y-4.24
X5.149Y-4.34
X5.149Y-4.44
X5.15Y-3.09
X5.15Y-3.19
X5.15Y-3.29
X5.15Y-3.39
X5.15Y-3.49
X5.15Y-3.59
X5.15Y-3.69
X5.15Y-4.59
X5.15Y-4.69
X5.15Y-4.79
X5.15Y-4.89
X5.15Y-4.99
X5.15Y-5.09
X5.15Y-5.19
X5.1692Y-5.9152
X5.1696Y-6.251
X5.34Y-3.13
X5.34Y-3.23
X5.34Y-3.33
X5.34Y-3.43
X5.34Y-3.53
X5.34Y-3.63
X5.34Y-3.73
X5.34Y-3.83
X5.34Y-3.93
X5.34Y-4.03
X5.34Y-4.13
X5.34Y-4.23
X5.34Y-4.33
X5.34Y-4.43
X5.34Y-4.53
X5.34Y-4.63
X5.34Y-4.73
X5.34Y-4.83
X5.34Y-4.93
X5.34Y-5.03
X5.47Y-6.12
X5.47Y-6.27
X5.57Y-6.12
X5.57Y-6.27
X5.67Y-6.12
X5.67Y-6.27
X5.77Y-6.12
X5.77Y-6.27
X5.87Y-6.12
X5.87Y-6.27
X5.97Y-6.12
X5.97Y-6.27
X6.04Y-3.13
X6.04Y-3.23
X6.04Y-3.33
X6.04Y-3.43
X6.04Y-3.53
X6.04Y-3.63
X6.04Y-3.73
X6.04Y-3.83
X6.04Y-3.93
X6.04Y-4.03
X6.04Y-4.13
X6.04Y-4.23
X6.04Y-4.33
X6.04Y-4.43
X6.04Y-4.53
X6.04Y-4.63
X6.04Y-4.73
X6.04Y-4.83
X6.04Y-4.93
X6.04Y-5.03
X6.07Y-6.12
X6.07Y-6.27
X6.08Y-5.2
X6.08Y-5.3
X6.08Y-5.4
X6.08Y-5.5
X6.08Y-5.6
X6.08Y-5.7
X6.08Y-5.8
T5
X4.88Y-6.08
X5.18Y-6.08
X5.42Y-5.23
X5.42Y-5.53
X5.51Y-5.38
X5.52Y-5.23
X5.52Y-5.53
X5.62Y-5.23
X5.62Y-5.53
X5.72Y-5.23
X5.72Y-5.53
X5.81Y-5.38
X5.82Y-5.23
X5.82Y-5.53
X5.92Y-5.23
X5.92Y-5.53
T6
X4.32Y-6.19
T7
X4.22Y-6.09
X4.22Y-6.29
X4.42Y-6.09
X4.42Y-6.29
M30
