M48
; DRILL file {KiCad 9.0.2} date 2025-11-03T21:10:17+0900
; FORMAT={-:-/ absolute / inch / decimal}
; #@! TF.CreationDate,2025-11-03T21:10:17+09:00
; #@! TF.GenerationSoftware,Kicad,Pcbnew,9.0.2
; #@! TF.FileFunction,Plated,1,2,PTH
FMAT,2
INCH
; #@! TA.AperFunction,Plated,PTH,ViaDrill
T1C0.0118
; #@! TA.AperFunction,Plated,PTH,ComponentDrill
T2C0.0315
; #@! TA.AperFunction,Plated,PTH,ComponentDrill
T3C0.0394
%
G90
G05
T1
X4.4669Y-2.1008
X5.5055Y-3.0697
X5.5765Y-3.1702
X5.8539Y-2.9039
X6.2589Y-2.5486
T2
X3.8461Y-1.9398
X3.8461Y-2.0992
X3.8461Y-2.2587
X3.8461Y-2.4181
X3.8461Y-2.5776
X3.8461Y-2.737
X3.8461Y-2.8965
X3.8461Y-3.0559
X3.8461Y-3.2154
X3.8461Y-3.3748
X3.8461Y-3.5343
X3.8461Y-3.6937
X3.8461Y-3.8531
X3.8461Y-4.0126
X3.8461Y-4.172
X3.8461Y-4.3315
X3.8461Y-4.4909
X3.8461Y-4.6504
X3.8461Y-4.8098
X4.2461Y-1.9398
X4.2461Y-2.0992
X4.2461Y-2.2587
X4.2461Y-2.4181
X4.2461Y-2.5776
X4.2461Y-2.737
X4.2461Y-2.8965
X4.2461Y-3.0559
X4.2461Y-3.2154
X4.2461Y-3.3748
X4.2461Y-3.5343
X4.2461Y-3.6937
X4.2461Y-3.8531
X4.2461Y-4.0126
X4.2461Y-4.172
X4.2461Y-4.3315
X4.2461Y-4.4909
X4.2461Y-4.6504
X4.2461Y-4.8098
X4.5555Y-1.9366
X4.5555Y-2.0961
X4.5555Y-2.2555
X4.5555Y-2.415
X4.5555Y-2.5744
X4.5555Y-2.7339
X4.5555Y-2.8933
X4.5555Y-3.0528
X4.5555Y-3.2122
X4.5555Y-3.3717
X4.5555Y-3.5311
X4.5555Y-3.6906
X4.5555Y-3.85
X4.5555Y-4.0094
X4.5555Y-4.1689
X4.5555Y-4.3283
X4.5555Y-4.4878
X4.5555Y-4.6472
X4.5555Y-4.8067
X4.9555Y-1.9366
X4.9555Y-2.0961
X4.9555Y-2.2555
X4.9555Y-2.415
X4.9555Y-2.5744
X4.9555Y-2.7339
X4.9555Y-2.8933
X4.9555Y-3.0528
X4.9555Y-3.2122
X4.9555Y-3.3717
X4.9555Y-3.5311
X4.9555Y-3.6906
X4.9555Y-3.85
X4.9555Y-4.0094
X4.9555Y-4.1689
X4.9555Y-4.3283
X4.9555Y-4.4878
X4.9555Y-4.6472
X4.9555Y-4.8067
X5.3079Y-1.9394
X5.3079Y-2.0988
X5.3079Y-2.2583
X5.3079Y-2.4177
X5.3079Y-2.5772
X5.3079Y-2.7366
X5.3079Y-2.8961
X5.3079Y-3.0555
X5.3079Y-3.215
X5.3079Y-3.3744
X5.3079Y-3.5339
X5.3079Y-3.6933
X5.3079Y-3.8528
X5.3079Y-4.0122
X5.3079Y-4.1717
X5.3079Y-4.3311
X5.3079Y-4.4906
X5.3079Y-4.65
X5.3079Y-4.8094
X5.7079Y-1.9394
X5.7079Y-2.0988
X5.7079Y-2.2583
X5.7079Y-2.4177
X5.7079Y-2.5772
X5.7079Y-2.7366
X5.7079Y-2.8961
X5.7079Y-3.0555
X5.7079Y-3.215
X5.7079Y-3.3744
X5.7079Y-3.5339
X5.7079Y-3.6933
X5.7079Y-3.8528
X5.7079Y-4.0122
X5.7079Y-4.1717
X5.7079Y-4.3311
X5.7079Y-4.4906
X5.7079Y-4.65
X5.7079Y-4.8094
X6.0382Y-1.939
X6.0382Y-2.0984
X6.0382Y-2.2579
X6.0382Y-2.4173
X6.0382Y-2.5768
X6.0382Y-2.7362
X6.0382Y-2.8957
X6.0382Y-3.0551
X6.0382Y-3.2146
X6.0382Y-3.374
X6.0382Y-3.5335
X6.0382Y-3.6929
X6.0382Y-3.8524
X6.0382Y-4.0118
X6.0382Y-4.1713
X6.0382Y-4.3307
X6.0382Y-4.4902
X6.0382Y-4.6496
X6.0382Y-4.8091
X6.4382Y-1.939
X6.4382Y-2.0984
X6.4382Y-2.2579
X6.4382Y-2.4173
X6.4382Y-2.5768
X6.4382Y-2.7362
X6.4382Y-2.8957
X6.4382Y-3.0551
X6.4382Y-3.2146
X6.4382Y-3.374
X6.4382Y-3.5335
X6.4382Y-3.6929
X6.4382Y-3.8524
X6.4382Y-4.0118
X6.4382Y-4.1713
X6.4382Y-4.3307
X6.4382Y-4.4902
X6.4382Y-4.6496
X6.4382Y-4.8091
X6.7547Y-1.939
X6.7547Y-2.0984
X6.7547Y-2.2579
X6.7547Y-2.4173
X6.7547Y-2.5768
X6.7547Y-2.7362
X6.7547Y-2.8957
X6.7547Y-3.0551
X6.7547Y-3.2146
X6.7547Y-3.374
X6.7547Y-3.5335
X6.7547Y-3.6929
X6.7547Y-3.8524
X6.7547Y-4.0118
X7.1547Y-1.939
X7.1547Y-2.0984
X7.1547Y-2.2579
X7.1547Y-2.4173
X7.1547Y-2.5768
X7.1547Y-2.7362
X7.1547Y-2.8957
X7.1547Y-3.0551
X7.1547Y-3.2146
X7.1547Y-3.374
X7.1547Y-3.5335
X7.1547Y-3.6929
X7.1547Y-3.8524
X7.1547Y-4.0118
T3
X3.6041Y-1.6045
X3.6041Y-1.7045
M30
