%TF.GenerationSoftware,KiCad,Pcbnew,9.0.2*%
%TF.CreationDate,2025-11-03T21:10:14+09:00*%
%TF.ProjectId,handarensyuy,68616e64-6172-4656-9e73-7975792e6b69,rev?*%
%TF.SameCoordinates,Original*%
%TF.FileFunction,Copper,L2,Bot*%
%TF.FilePolarity,Positive*%
%FSLAX46Y46*%
G04 Gerber Fmt 4.6, Leading zero omitted, Abs format (unit mm)*
G04 Created by KiCad (PCBNEW 9.0.2) date 2025-11-03 21:10:14*
%MOMM*%
%LPD*%
G01*
G04 APERTURE LIST*
%TA.AperFunction,ComponentPad*%
%ADD10C,1.600000*%
%TD*%
%TA.AperFunction,ComponentPad*%
%ADD11R,1.700000X1.700000*%
%TD*%
%TA.AperFunction,ComponentPad*%
%ADD12C,1.700000*%
%TD*%
%TA.AperFunction,ViaPad*%
%ADD13C,0.600000*%
%TD*%
%TA.AperFunction,Conductor*%
%ADD14C,1.000000*%
%TD*%
G04 APERTURE END LIST*
D10*
%TO.P,R82,1*%
%TO.N,Net-(R81-Pad2)*%
X171570000Y-69500000D03*
%TO.P,R82,2*%
%TO.N,Net-(R82-Pad2)*%
X181730000Y-69500000D03*
%TD*%
%TO.P,R83,1*%
%TO.N,Net-(R83-Pad1)*%
X171570000Y-73550000D03*
%TO.P,R83,2*%
%TO.N,Net-(R82-Pad2)*%
X181730000Y-73550000D03*
%TD*%
%TO.P,R18,1*%
%TO.N,Net-(R18-Pad1)*%
X97690000Y-118120000D03*
%TO.P,R18,2*%
%TO.N,Net-(R17-Pad2)*%
X107850000Y-118120000D03*
%TD*%
%TO.P,R1,1*%
%TO.N,Net-(J1-Pin_1)*%
X97690000Y-49270000D03*
%TO.P,R1,2*%
%TO.N,Net-(R1-Pad2)*%
X107850000Y-49270000D03*
%TD*%
%TO.P,R59,1*%
%TO.N,Net-(R58-Pad1)*%
X153370000Y-53300000D03*
%TO.P,R59,2*%
%TO.N,Net-(R59-Pad2)*%
X163530000Y-53300000D03*
%TD*%
%TO.P,R15,1*%
%TO.N,Net-(R14-Pad2)*%
X97690000Y-105970000D03*
%TO.P,R15,2*%
%TO.N,Net-(R15-Pad2)*%
X107850000Y-105970000D03*
%TD*%
%TO.P,R25,1*%
%TO.N,Net-(R24-Pad2)*%
X115710000Y-69440000D03*
%TO.P,R25,2*%
%TO.N,Net-(R25-Pad2)*%
X125870000Y-69440000D03*
%TD*%
%TO.P,R39,1*%
%TO.N,Net-(R38-Pad1)*%
X134820000Y-49260000D03*
%TO.P,R39,2*%
%TO.N,Net-(R39-Pad2)*%
X144980000Y-49260000D03*
%TD*%
%TO.P,R53,1*%
%TO.N,Net-(R53-Pad1)*%
X134820000Y-105960000D03*
%TO.P,R53,2*%
%TO.N,Net-(R52-Pad2)*%
X144980000Y-105960000D03*
%TD*%
%TO.P,R29,1*%
%TO.N,Net-(R28-Pad1)*%
X115710000Y-85640000D03*
%TO.P,R29,2*%
%TO.N,Net-(R29-Pad2)*%
X125870000Y-85640000D03*
%TD*%
%TO.P,R27,1*%
%TO.N,Net-(R26-Pad2)*%
X115710000Y-77540000D03*
%TO.P,R27,2*%
%TO.N,Net-(R27-Pad2)*%
X125870000Y-77540000D03*
%TD*%
%TO.P,R81,1*%
%TO.N,Net-(R80-Pad2)*%
X171570000Y-65450000D03*
%TO.P,R81,2*%
%TO.N,Net-(R81-Pad2)*%
X181730000Y-65450000D03*
%TD*%
%TO.P,R64,1*%
%TO.N,Net-(R63-Pad1)*%
X153370000Y-73550000D03*
%TO.P,R64,2*%
%TO.N,Net-(R64-Pad2)*%
X163530000Y-73550000D03*
%TD*%
%TO.P,R14,1*%
%TO.N,Net-(R13-Pad1)*%
X97690000Y-101920000D03*
%TO.P,R14,2*%
%TO.N,Net-(R14-Pad2)*%
X107850000Y-101920000D03*
%TD*%
%TO.P,R58,1*%
%TO.N,Net-(R58-Pad1)*%
X153370000Y-49250000D03*
%TO.P,R58,2*%
%TO.N,Net-(R57-Pad2)*%
X163530000Y-49250000D03*
%TD*%
%TO.P,R55,1*%
%TO.N,Net-(R54-Pad2)*%
X134820000Y-114060000D03*
%TO.P,R55,2*%
%TO.N,Net-(R55-Pad2)*%
X144980000Y-114060000D03*
%TD*%
%TO.P,R23,1*%
%TO.N,Net-(R23-Pad1)*%
X115710000Y-61340000D03*
%TO.P,R23,2*%
%TO.N,Net-(R22-Pad2)*%
X125870000Y-61340000D03*
%TD*%
%TO.P,R66,1*%
%TO.N,Net-(R65-Pad2)*%
X153370000Y-81650000D03*
%TO.P,R66,2*%
%TO.N,Net-(R66-Pad2)*%
X163530000Y-81650000D03*
%TD*%
%TO.P,R33,1*%
%TO.N,Net-(R33-Pad1)*%
X115710000Y-101840000D03*
%TO.P,R33,2*%
%TO.N,Net-(R32-Pad2)*%
X125870000Y-101840000D03*
%TD*%
%TO.P,R16,1*%
%TO.N,Net-(R15-Pad2)*%
X97690000Y-110020000D03*
%TO.P,R16,2*%
%TO.N,Net-(R16-Pad2)*%
X107850000Y-110020000D03*
%TD*%
%TO.P,R37,1*%
%TO.N,Net-(R36-Pad2)*%
X115710000Y-118040000D03*
%TO.P,R37,2*%
%TO.N,Net-(R37-Pad2)*%
X125870000Y-118040000D03*
%TD*%
%TO.P,R26,1*%
%TO.N,Net-(R25-Pad2)*%
X115710000Y-73490000D03*
%TO.P,R26,2*%
%TO.N,Net-(R26-Pad2)*%
X125870000Y-73490000D03*
%TD*%
%TO.P,R62,1*%
%TO.N,Net-(R61-Pad2)*%
X153370000Y-65450000D03*
%TO.P,R62,2*%
%TO.N,Net-(R62-Pad2)*%
X163530000Y-65450000D03*
%TD*%
%TO.P,R17,1*%
%TO.N,Net-(R16-Pad2)*%
X97690000Y-114070000D03*
%TO.P,R17,2*%
%TO.N,Net-(R17-Pad2)*%
X107850000Y-114070000D03*
%TD*%
%TO.P,R44,1*%
%TO.N,Net-(R43-Pad1)*%
X134820000Y-69510000D03*
%TO.P,R44,2*%
%TO.N,Net-(R44-Pad2)*%
X144980000Y-69510000D03*
%TD*%
%TO.P,R87,1*%
%TO.N,Net-(R86-Pad2)*%
X171570000Y-89750000D03*
%TO.P,R87,2*%
%TO.N,Net-(R87-Pad2)*%
X181730000Y-89750000D03*
%TD*%
%TO.P,R48,1*%
%TO.N,Net-(R48-Pad1)*%
X134820000Y-85710000D03*
%TO.P,R48,2*%
%TO.N,Net-(R47-Pad2)*%
X144980000Y-85710000D03*
%TD*%
%TO.P,R21,1*%
%TO.N,Net-(R20-Pad2)*%
X115710000Y-53240000D03*
%TO.P,R21,2*%
%TO.N,Net-(R21-Pad2)*%
X125870000Y-53240000D03*
%TD*%
%TO.P,R22,1*%
%TO.N,Net-(R21-Pad2)*%
X115710000Y-57290000D03*
%TO.P,R22,2*%
%TO.N,Net-(R22-Pad2)*%
X125870000Y-57290000D03*
%TD*%
%TO.P,R72,1*%
%TO.N,Net-(R71-Pad2)*%
X153370000Y-105950000D03*
%TO.P,R72,2*%
%TO.N,Net-(R72-Pad2)*%
X163530000Y-105950000D03*
%TD*%
%TO.P,R11,1*%
%TO.N,Net-(R10-Pad2)*%
X97690000Y-89770000D03*
%TO.P,R11,2*%
%TO.N,Net-(R11-Pad2)*%
X107850000Y-89770000D03*
%TD*%
%TO.P,R42,1*%
%TO.N,Net-(R41-Pad2)*%
X134820000Y-61410000D03*
%TO.P,R42,2*%
%TO.N,Net-(R42-Pad2)*%
X144980000Y-61410000D03*
%TD*%
%TO.P,R80,1*%
%TO.N,Net-(R79-Pad2)*%
X171570000Y-61400000D03*
%TO.P,R80,2*%
%TO.N,Net-(R80-Pad2)*%
X181730000Y-61400000D03*
%TD*%
%TO.P,R71,1*%
%TO.N,Net-(R70-Pad2)*%
X153370000Y-101900000D03*
%TO.P,R71,2*%
%TO.N,Net-(R71-Pad2)*%
X163530000Y-101900000D03*
%TD*%
%TO.P,R34,1*%
%TO.N,Net-(R33-Pad1)*%
X115710000Y-105890000D03*
%TO.P,R34,2*%
%TO.N,Net-(R34-Pad2)*%
X125870000Y-105890000D03*
%TD*%
%TO.P,R5,1*%
%TO.N,Net-(R4-Pad2)*%
X97690000Y-65470000D03*
%TO.P,R5,2*%
%TO.N,Net-(R5-Pad2)*%
X107850000Y-65470000D03*
%TD*%
%TO.P,R28,1*%
%TO.N,Net-(R28-Pad1)*%
X115710000Y-81590000D03*
%TO.P,R28,2*%
%TO.N,Net-(R27-Pad2)*%
X125870000Y-81590000D03*
%TD*%
%TO.P,R24,1*%
%TO.N,Net-(R23-Pad1)*%
X115710000Y-65390000D03*
%TO.P,R24,2*%
%TO.N,Net-(R24-Pad2)*%
X125870000Y-65390000D03*
%TD*%
%TO.P,R43,1*%
%TO.N,Net-(R43-Pad1)*%
X134820000Y-65460000D03*
%TO.P,R43,2*%
%TO.N,Net-(R42-Pad2)*%
X144980000Y-65460000D03*
%TD*%
%TO.P,R36,1*%
%TO.N,Net-(R35-Pad2)*%
X115710000Y-113990000D03*
%TO.P,R36,2*%
%TO.N,Net-(R36-Pad2)*%
X125870000Y-113990000D03*
%TD*%
%TO.P,R41,1*%
%TO.N,Net-(R40-Pad2)*%
X134820000Y-57360000D03*
%TO.P,R41,2*%
%TO.N,Net-(R41-Pad2)*%
X144980000Y-57360000D03*
%TD*%
%TO.P,R67,1*%
%TO.N,Net-(R66-Pad2)*%
X153370000Y-85700000D03*
%TO.P,R67,2*%
%TO.N,Net-(R67-Pad2)*%
X163530000Y-85700000D03*
%TD*%
%TO.P,R75,1*%
%TO.N,Net-(R74-Pad2)*%
X153370000Y-118100000D03*
%TO.P,R75,2*%
%TO.N,Net-(R75-Pad2)*%
X163530000Y-118100000D03*
%TD*%
%TO.P,R19,1*%
%TO.N,Net-(R18-Pad1)*%
X97690000Y-122170000D03*
%TO.P,R19,2*%
%TO.N,Net-(R19-Pad2)*%
X107850000Y-122170000D03*
%TD*%
%TO.P,R78,1*%
%TO.N,Net-(R78-Pad1)*%
X171570000Y-53300000D03*
%TO.P,R78,2*%
%TO.N,Net-(R77-Pad2)*%
X181730000Y-53300000D03*
%TD*%
%TO.P,R70,1*%
%TO.N,Net-(R69-Pad2)*%
X153370000Y-97850000D03*
%TO.P,R70,2*%
%TO.N,Net-(R70-Pad2)*%
X163530000Y-97850000D03*
%TD*%
%TO.P,R69,1*%
%TO.N,Net-(R68-Pad1)*%
X153370000Y-93800000D03*
%TO.P,R69,2*%
%TO.N,Net-(R69-Pad2)*%
X163530000Y-93800000D03*
%TD*%
%TO.P,R2,1*%
%TO.N,Net-(R1-Pad2)*%
X97690000Y-53320000D03*
%TO.P,R2,2*%
%TO.N,Net-(R2-Pad2)*%
X107850000Y-53320000D03*
%TD*%
%TO.P,R65,1*%
%TO.N,Net-(R64-Pad2)*%
X153370000Y-77600000D03*
%TO.P,R65,2*%
%TO.N,Net-(R65-Pad2)*%
X163530000Y-77600000D03*
%TD*%
%TO.P,R30,1*%
%TO.N,Net-(R29-Pad2)*%
X115710000Y-89690000D03*
%TO.P,R30,2*%
%TO.N,Net-(R30-Pad2)*%
X125870000Y-89690000D03*
%TD*%
%TO.P,R12,1*%
%TO.N,Net-(R11-Pad2)*%
X97690000Y-93820000D03*
%TO.P,R12,2*%
%TO.N,Net-(R12-Pad2)*%
X107850000Y-93820000D03*
%TD*%
%TO.P,R61,1*%
%TO.N,Net-(R31-Pad1)*%
X153370000Y-61400000D03*
%TO.P,R61,2*%
%TO.N,Net-(R61-Pad2)*%
X163530000Y-61400000D03*
%TD*%
%TO.P,R68,1*%
%TO.N,Net-(R68-Pad1)*%
X153370000Y-89750000D03*
%TO.P,R68,2*%
%TO.N,Net-(R67-Pad2)*%
X163530000Y-89750000D03*
%TD*%
%TO.P,R45,1*%
%TO.N,Net-(R44-Pad2)*%
X134820000Y-73560000D03*
%TO.P,R45,2*%
%TO.N,Net-(R45-Pad2)*%
X144980000Y-73560000D03*
%TD*%
%TO.P,R79,1*%
%TO.N,Net-(R78-Pad1)*%
X171570000Y-57350000D03*
%TO.P,R79,2*%
%TO.N,Net-(R79-Pad2)*%
X181730000Y-57350000D03*
%TD*%
%TO.P,R76,1*%
%TO.N,Net-(R75-Pad2)*%
X153370000Y-122150000D03*
%TO.P,R76,2*%
%TO.N,Net-(R76-Pad2)*%
X163530000Y-122150000D03*
%TD*%
%TO.P,R20,1*%
%TO.N,Net-(R19-Pad2)*%
X115710000Y-49190000D03*
%TO.P,R20,2*%
%TO.N,Net-(R20-Pad2)*%
X125870000Y-49190000D03*
%TD*%
%TO.P,R8,1*%
%TO.N,Net-(R8-Pad1)*%
X97690000Y-77620000D03*
%TO.P,R8,2*%
%TO.N,Net-(R7-Pad2)*%
X107850000Y-77620000D03*
%TD*%
%TO.P,R38,1*%
%TO.N,Net-(R38-Pad1)*%
X115710000Y-122090000D03*
%TO.P,R38,2*%
%TO.N,Net-(R37-Pad2)*%
X125870000Y-122090000D03*
%TD*%
%TO.P,R84,1*%
%TO.N,Net-(R83-Pad1)*%
X171570000Y-77600000D03*
%TO.P,R84,2*%
%TO.N,Net-(R84-Pad2)*%
X181730000Y-77600000D03*
%TD*%
%TO.P,R35,1*%
%TO.N,Net-(R34-Pad2)*%
X115710000Y-109940000D03*
%TO.P,R35,2*%
%TO.N,Net-(R35-Pad2)*%
X125870000Y-109940000D03*
%TD*%
%TO.P,R86,1*%
%TO.N,Net-(R85-Pad2)*%
X171570000Y-85700000D03*
%TO.P,R86,2*%
%TO.N,Net-(R86-Pad2)*%
X181730000Y-85700000D03*
%TD*%
%TO.P,R88,1*%
%TO.N,Net-(R88-Pad1)*%
X171570000Y-93800000D03*
%TO.P,R88,2*%
%TO.N,Net-(R87-Pad2)*%
X181730000Y-93800000D03*
%TD*%
%TO.P,R9,1*%
%TO.N,Net-(R8-Pad1)*%
X97690000Y-81670000D03*
%TO.P,R9,2*%
%TO.N,Net-(R10-Pad1)*%
X107850000Y-81670000D03*
%TD*%
%TO.P,R57,1*%
%TO.N,Net-(R56-Pad2)*%
X134820000Y-122160000D03*
%TO.P,R57,2*%
%TO.N,Net-(R57-Pad2)*%
X144980000Y-122160000D03*
%TD*%
D11*
%TO.P,J1,1,Pin_1*%
%TO.N,Net-(J1-Pin_1)*%
X91545000Y-40755000D03*
D12*
%TO.P,J1,2,Pin_2*%
%TO.N,Net-(J1-Pin_2)*%
X91545000Y-43295000D03*
%TD*%
D10*
%TO.P,R50,1*%
%TO.N,Net-(R49-Pad2)*%
X134820000Y-93810000D03*
%TO.P,R50,2*%
%TO.N,Net-(R50-Pad2)*%
X144980000Y-93810000D03*
%TD*%
%TO.P,R47,1*%
%TO.N,Net-(R46-Pad2)*%
X134820000Y-81660000D03*
%TO.P,R47,2*%
%TO.N,Net-(R47-Pad2)*%
X144980000Y-81660000D03*
%TD*%
%TO.P,R51,1*%
%TO.N,Net-(R50-Pad2)*%
X134820000Y-97860000D03*
%TO.P,R51,2*%
%TO.N,Net-(R51-Pad2)*%
X144980000Y-97860000D03*
%TD*%
%TO.P,R46,1*%
%TO.N,Net-(R45-Pad2)*%
X134820000Y-77610000D03*
%TO.P,R46,2*%
%TO.N,Net-(R46-Pad2)*%
X144980000Y-77610000D03*
%TD*%
%TO.P,R74,1*%
%TO.N,Net-(R73-Pad1)*%
X153370000Y-114050000D03*
%TO.P,R74,2*%
%TO.N,Net-(R74-Pad2)*%
X163530000Y-114050000D03*
%TD*%
%TO.P,R31,1*%
%TO.N,Net-(R31-Pad1)*%
X115710000Y-93740000D03*
%TO.P,R31,2*%
%TO.N,Net-(R31-Pad2)*%
X125870000Y-93740000D03*
%TD*%
%TO.P,R4,1*%
%TO.N,Net-(R3-Pad1)*%
X97690000Y-61420000D03*
%TO.P,R4,2*%
%TO.N,Net-(R4-Pad2)*%
X107850000Y-61420000D03*
%TD*%
%TO.P,R89,1*%
%TO.N,Net-(R88-Pad1)*%
X171570000Y-97850000D03*
%TO.P,R89,2*%
%TO.N,Net-(R89-Pad2)*%
X181730000Y-97850000D03*
%TD*%
%TO.P,R32,1*%
%TO.N,Net-(R31-Pad2)*%
X115710000Y-97790000D03*
%TO.P,R32,2*%
%TO.N,Net-(R32-Pad2)*%
X125870000Y-97790000D03*
%TD*%
%TO.P,R54,1*%
%TO.N,Net-(R53-Pad1)*%
X134820000Y-110010000D03*
%TO.P,R54,2*%
%TO.N,Net-(R54-Pad2)*%
X144980000Y-110010000D03*
%TD*%
%TO.P,R63,1*%
%TO.N,Net-(R63-Pad1)*%
X153370000Y-69500000D03*
%TO.P,R63,2*%
%TO.N,Net-(R62-Pad2)*%
X163530000Y-69500000D03*
%TD*%
%TO.P,R10,1*%
%TO.N,Net-(R10-Pad1)*%
X97690000Y-85720000D03*
%TO.P,R10,2*%
%TO.N,Net-(R10-Pad2)*%
X107850000Y-85720000D03*
%TD*%
%TO.P,R49,1*%
%TO.N,Net-(R48-Pad1)*%
X134820000Y-89760000D03*
%TO.P,R49,2*%
%TO.N,Net-(R49-Pad2)*%
X144980000Y-89760000D03*
%TD*%
%TO.P,R52,1*%
%TO.N,Net-(R51-Pad2)*%
X134820000Y-101910000D03*
%TO.P,R52,2*%
%TO.N,Net-(R52-Pad2)*%
X144980000Y-101910000D03*
%TD*%
%TO.P,R73,1*%
%TO.N,Net-(R73-Pad1)*%
X153370000Y-110000000D03*
%TO.P,R73,2*%
%TO.N,Net-(R72-Pad2)*%
X163530000Y-110000000D03*
%TD*%
%TO.P,R60,1*%
%TO.N,Net-(R59-Pad2)*%
X153370000Y-57350000D03*
%TO.P,R60,2*%
%TO.N,Net-(R30-Pad2)*%
X163530000Y-57350000D03*
%TD*%
%TO.P,R3,1*%
%TO.N,Net-(R3-Pad1)*%
X97690000Y-57370000D03*
%TO.P,R3,2*%
%TO.N,Net-(R2-Pad2)*%
X107850000Y-57370000D03*
%TD*%
%TO.P,R85,1*%
%TO.N,Net-(R84-Pad2)*%
X171570000Y-81650000D03*
%TO.P,R85,2*%
%TO.N,Net-(R85-Pad2)*%
X181730000Y-81650000D03*
%TD*%
%TO.P,R40,1*%
%TO.N,Net-(R39-Pad2)*%
X134820000Y-53310000D03*
%TO.P,R40,2*%
%TO.N,Net-(R40-Pad2)*%
X144980000Y-53310000D03*
%TD*%
%TO.P,R77,1*%
%TO.N,Net-(R76-Pad2)*%
X171570000Y-49250000D03*
%TO.P,R77,2*%
%TO.N,Net-(R77-Pad2)*%
X181730000Y-49250000D03*
%TD*%
%TO.P,R90,1*%
%TO.N,Net-(R89-Pad2)*%
X171570000Y-101900000D03*
%TO.P,R90,2*%
%TO.N,Net-(J1-Pin_2)*%
X181730000Y-101900000D03*
%TD*%
%TO.P,R13,1*%
%TO.N,Net-(R13-Pad1)*%
X97690000Y-97870000D03*
%TO.P,R13,2*%
%TO.N,Net-(R12-Pad2)*%
X107850000Y-97870000D03*
%TD*%
%TO.P,R6,1*%
%TO.N,Net-(R5-Pad2)*%
X97690000Y-69520000D03*
%TO.P,R6,2*%
%TO.N,Net-(R6-Pad2)*%
X107850000Y-69520000D03*
%TD*%
%TO.P,R56,1*%
%TO.N,Net-(R55-Pad2)*%
X134820000Y-118110000D03*
%TO.P,R56,2*%
%TO.N,Net-(R56-Pad2)*%
X144980000Y-118110000D03*
%TD*%
%TO.P,R7,1*%
%TO.N,Net-(R6-Pad2)*%
X97690000Y-73570000D03*
%TO.P,R7,2*%
%TO.N,Net-(R7-Pad2)*%
X107850000Y-73570000D03*
%TD*%
D13*
%TO.N,Net-(R38-Pad1)*%
X113460000Y-53360000D03*
%TO.N,Net-(R45-Pad2)*%
X139840000Y-77970000D03*
%TO.N,Net-(R46-Pad2)*%
X141642867Y-80522868D03*
%TO.N,Net-(R57-Pad2)*%
X148687868Y-73757867D03*
%TO.N,Net-(R61-Pad2)*%
X158974920Y-64734920D03*
%TD*%
D14*
%TO.N,Net-(R38-Pad1)*%
X113460000Y-53360000D02*
X116129000Y-50691000D01*
X116129000Y-50691000D02*
X133389000Y-50691000D01*
X133389000Y-50691000D02*
X134820000Y-49260000D01*
%TO.N,Net-(R45-Pad2)*%
X135180000Y-77970000D02*
X134820000Y-77610000D01*
X139840000Y-77970000D02*
X135180000Y-77970000D01*
%TO.N,Net-(R46-Pad2)*%
X135957132Y-80522868D02*
X134820000Y-81660000D01*
X141642867Y-80522868D02*
X135957132Y-80522868D01*
%TO.N,Net-(R57-Pad2)*%
X148687868Y-73757867D02*
X148687868Y-48332132D01*
X161070000Y-46790000D02*
X163530000Y-49250000D01*
X150230000Y-46790000D02*
X161070000Y-46790000D01*
X148687868Y-48332132D02*
X150230000Y-46790000D01*
%TO.N,Net-(R61-Pad2)*%
X158974920Y-64734920D02*
X154085080Y-64734920D01*
X154085080Y-64734920D02*
X153370000Y-65450000D01*
%TD*%
M02*
